<svg viewBox="0 0 330 200" xmlns="http://www.w3.org/2000/svg"><g><g><g><g><g><line x1="41.171875" y1="177" x2="36.171875" y2="177" style="visibility: inherit;" fill="rgb(0, 0, 0)" stroke="rgb(204, 204, 204)" stroke-width="1px"></line><line x1="41.171875" y1="164.35714285714286" x2="36.171875" y2="164.35714285714286" style="visibility: inherit;" fill="rgb(0, 0, 0)" stroke="rgb(204, 204, 204)" stroke-width="1px"></line><line x1="41.171875" y1="151.71428571428572" x2="36.171875" y2="151.71428571428572" style="visibility: inherit;" fill="rgb(0, 0, 0)" stroke="rgb(204, 204, 204)" stroke-width="1px"></line><line x1="41.171875" y1="139.07142857142856" x2="36.171875" y2="139.07142857142856" style="visibility: inherit;" fill="rgb(0, 0, 0)" stroke="rgb(204, 204, 204)" stroke-width="1px"></line><line x1="41.171875" y1="126.42857142857143" x2="36.171875" y2="126.42857142857143" style="visibility: inherit;" fill="rgb(0, 0, 0)" stroke="rgb(204, 204, 204)" stroke-width="1px"></line><line x1="41.171875" y1="113.78571428571428" x2="36.171875" y2="113.78571428571428" style="visibility: inherit;" fill="rgb(0, 0, 0)" stroke="rgb(204, 204, 204)" stroke-width="1px"></line><line x1="41.171875" y1="101.14285714285714" x2="36.171875" y2="101.14285714285714" style="visibility: inherit;" fill="rgb(0, 0, 0)" stroke="rgb(204, 204, 204)" stroke-width="1px"></line><line x1="41.171875" y1="88.5" x2="36.171875" y2="88.5" style="visibility: inherit;" fill="rgb(0, 0, 0)" stroke="rgb(204, 204, 204)" stroke-width="1px"></line><line x1="41.171875" y1="75.85714285714286" x2="36.171875" y2="75.85714285714286" style="visibility: inherit;" fill="rgb(0, 0, 0)" stroke="rgb(204, 204, 204)" stroke-width="1px"></line><line x1="41.171875" y1="63.21428571428571" x2="36.171875" y2="63.21428571428571" style="visibility: inherit;" fill="rgb(0, 0, 0)" stroke="rgb(204, 204, 204)" stroke-width="1px"></line><line x1="41.171875" y1="50.57142857142857" x2="36.171875" y2="50.57142857142857" style="visibility: inherit;" fill="rgb(0, 0, 0)" stroke="rgb(204, 204, 204)" stroke-width="1px"></line><line x1="41.171875" y1="37.92857142857143" x2="36.171875" y2="37.92857142857143" style="visibility: inherit;" fill="rgb(0, 0, 0)" stroke="rgb(204, 204, 204)" stroke-width="1px"></line><line x1="41.171875" y1="25.285714285714295" x2="36.171875" y2="25.285714285714295" style="visibility: inherit;" fill="rgb(0, 0, 0)" stroke="rgb(204, 204, 204)" stroke-width="1px"></line><line x1="41.171875" y1="12.642857142857137" x2="36.171875" y2="12.642857142857137" style="visibility: inherit;" fill="rgb(0, 0, 0)" stroke="rgb(204, 204, 204)" stroke-width="1px"></line><line x1="41.171875" y1="0" x2="36.171875" y2="0" style="visibility: inherit;" fill="rgb(0, 0, 0)" stroke="rgb(204, 204, 204)" stroke-width="1px"></line></g><g transform="translate(31.171875, 0)"><text x="0" y="177" dx="0em" dy="0.3em" style="text-anchor: end; visibility: hidden; font-family: Roboto, sans-serif; font-size: 12px; font-weight: 200;" fill="rgb(33, 33, 33)" stroke="none" stroke-width="1px">30</text><text x="0" y="164.35714285714286" dx="0em" dy="0.3em" style="text-anchor: end; visibility: inherit; font-family: Roboto, sans-serif; font-size: 12px; font-weight: 200;" fill="rgb(33, 33, 33)" stroke="none" stroke-width="1px">40</text><text x="0" y="151.71428571428572" dx="0em" dy="0.3em" style="text-anchor: end; visibility: hidden; font-family: Roboto, sans-serif; font-size: 12px; font-weight: 200;" fill="rgb(33, 33, 33)" stroke="none" stroke-width="1px">50</text><text x="0" y="139.07142857142856" dx="0em" dy="0.3em" style="text-anchor: end; visibility: inherit; font-family: Roboto, sans-serif; font-size: 12px; font-weight: 200;" fill="rgb(33, 33, 33)" stroke="none" stroke-width="1px">60</text><text x="0" y="126.42857142857143" dx="0em" dy="0.3em" style="text-anchor: end; visibility: hidden; font-family: Roboto, sans-serif; font-size: 12px; font-weight: 200;" fill="rgb(33, 33, 33)" stroke="none" stroke-width="1px">70</text><text x="0" y="113.78571428571428" dx="0em" dy="0.3em" style="text-anchor: end; visibility: inherit; font-family: Roboto, sans-serif; font-size: 12px; font-weight: 200;" fill="rgb(33, 33, 33)" stroke="none" stroke-width="1px">80</text><text x="0" y="101.14285714285714" dx="0em" dy="0.3em" style="text-anchor: end; visibility: hidden; font-family: Roboto, sans-serif; font-size: 12px; font-weight: 200;" fill="rgb(33, 33, 33)" stroke="none" stroke-width="1px">90</text><text x="0" y="88.5" dx="0em" dy="0.3em" style="text-anchor: end; visibility: inherit; font-family: Roboto, sans-serif; font-size: 12px; font-weight: 200;" fill="rgb(33, 33, 33)" stroke="none" stroke-width="1px">100</text><text x="0" y="75.85714285714286" dx="0em" dy="0.3em" style="text-anchor: end; visibility: hidden; font-family: Roboto, sans-serif; font-size: 12px; font-weight: 200;" fill="rgb(33, 33, 33)" stroke="none" stroke-width="1px">110</text><text x="0" y="63.21428571428571" dx="0em" dy="0.3em" style="text-anchor: end; visibility: inherit; font-family: Roboto, sans-serif; font-size: 12px; font-weight: 200;" fill="rgb(33, 33, 33)" stroke="none" stroke-width="1px">120</text><text x="0" y="50.57142857142857" dx="0em" dy="0.3em" style="text-anchor: end; visibility: hidden; font-family: Roboto, sans-serif; font-size: 12px; font-weight: 200;" fill="rgb(33, 33, 33)" stroke="none" stroke-width="1px">130</text><text x="0" y="37.92857142857143" dx="0em" dy="0.3em" style="text-anchor: end; visibility: inherit; font-family: Roboto, sans-serif; font-size: 12px; font-weight: 200;" fill="rgb(33, 33, 33)" stroke="none" stroke-width="1px">140</text><text x="0" y="25.285714285714295" dx="0em" dy="0.3em" style="text-anchor: end; visibility: hidden; font-family: Roboto, sans-serif; font-size: 12px; font-weight: 200;" fill="rgb(33, 33, 33)" stroke="none" stroke-width="1px">150</text><text x="0" y="12.642857142857137" dx="0em" dy="0.3em" style="text-anchor: end; visibility: inherit; font-family: Roboto, sans-serif; font-size: 12px; font-weight: 200;" fill="rgb(33, 33, 33)" stroke="none" stroke-width="1px">160</text><text x="0" y="0" dx="0em" dy="0.3em" style="text-anchor: end; visibility: hidden; font-family: Roboto, sans-serif; font-size: 12px; font-weight: 200;" fill="rgb(33, 33, 33)" stroke="none" stroke-width="1px">170</text></g><line x1="41.171875" y1="0" x2="41.171875" y2="177" fill="rgb(0, 0, 0)" stroke="rgb(204, 204, 204)" stroke-width="1px"></line></g></g><g transform="translate(41, 0)" clip-path="url(#clip_0)"><clipPath id="clip_0"><rect width="288" height="177"></rect></clipPath><g><g><g><line x1="0" y1="0" x2="0" y2="177" fill="rgb(0, 0, 0)" stroke="rgb(66, 66, 66)" stroke-width="1px" opacity="0.25"></line><line x1="28.8828125" y1="0" x2="28.8828125" y2="177" fill="rgb(0, 0, 0)" stroke="rgb(66, 66, 66)" stroke-width="1px" opacity="0.25"></line><line x1="57.765625" y1="0" x2="57.765625" y2="177" fill="rgb(0, 0, 0)" stroke="rgb(66, 66, 66)" stroke-width="1px" opacity="0.25"></line><line x1="86.6484375" y1="0" x2="86.6484375" y2="177" fill="rgb(0, 0, 0)" stroke="rgb(66, 66, 66)" stroke-width="1px" opacity="0.25"></line><line x1="115.53125" y1="0" x2="115.53125" y2="177" fill="rgb(0, 0, 0)" stroke="rgb(66, 66, 66)" stroke-width="1px" opacity="0.25"></line><line x1="144.4140625" y1="0" x2="144.4140625" y2="177" fill="rgb(0, 0, 0)" stroke="rgb(66, 66, 66)" stroke-width="1px" opacity="0.25"></line><line x1="173.296875" y1="0" x2="173.296875" y2="177" fill="rgb(0, 0, 0)" stroke="rgb(66, 66, 66)" stroke-width="1px" opacity="0.25"></line><line x1="202.1796875" y1="0" x2="202.1796875" y2="177" fill="rgb(0, 0, 0)" stroke="rgb(66, 66, 66)" stroke-width="1px" opacity="0.25"></line><line x1="231.0625" y1="0" x2="231.0625" y2="177" fill="rgb(0, 0, 0)" stroke="rgb(66, 66, 66)" stroke-width="1px" opacity="0.25"></line><line x1="259.9453125" y1="0" x2="259.9453125" y2="177" fill="rgb(0, 0, 0)" stroke="rgb(66, 66, 66)" stroke-width="1px" opacity="0.25"></line><line x1="288.828125" y1="0" x2="288.828125" y2="177" fill="rgb(0, 0, 0)" stroke="rgb(66, 66, 66)" stroke-width="1px" opacity="0.25"></line></g><g><line x1="0" y1="177" x2="288.828125" y2="177" fill="rgb(0, 0, 0)" stroke="rgb(66, 66, 66)" stroke-width="1px" opacity="0.25"></line><line x1="0" y1="164.35714285714286" x2="288.828125" y2="164.35714285714286" fill="rgb(0, 0, 0)" stroke="rgb(66, 66, 66)" stroke-width="1px" opacity="0.25"></line><line x1="0" y1="151.71428571428572" x2="288.828125" y2="151.71428571428572" fill="rgb(0, 0, 0)" stroke="rgb(66, 66, 66)" stroke-width="1px" opacity="0.25"></line><line x1="0" y1="139.07142857142856" x2="288.828125" y2="139.07142857142856" fill="rgb(0, 0, 0)" stroke="rgb(66, 66, 66)" stroke-width="1px" opacity="0.25"></line><line x1="0" y1="126.42857142857143" x2="288.828125" y2="126.42857142857143" fill="rgb(0, 0, 0)" stroke="rgb(66, 66, 66)" stroke-width="1px" opacity="0.25"></line><line x1="0" y1="113.78571428571428" x2="288.828125" y2="113.78571428571428" fill="rgb(0, 0, 0)" stroke="rgb(66, 66, 66)" stroke-width="1px" opacity="0.25"></line><line x1="0" y1="101.14285714285714" x2="288.828125" y2="101.14285714285714" fill="rgb(0, 0, 0)" stroke="rgb(66, 66, 66)" stroke-width="1px" opacity="0.25"></line><line x1="0" y1="88.5" x2="288.828125" y2="88.5" fill="rgb(0, 0, 0)" stroke="rgb(66, 66, 66)" stroke-width="1px" opacity="0.25"></line><line x1="0" y1="75.85714285714286" x2="288.828125" y2="75.85714285714286" fill="rgb(0, 0, 0)" stroke="rgb(66, 66, 66)" stroke-width="1px" opacity="0.25"></line><line x1="0" y1="63.21428571428571" x2="288.828125" y2="63.21428571428571" fill="rgb(0, 0, 0)" stroke="rgb(66, 66, 66)" stroke-width="1px" opacity="0.25"></line><line x1="0" y1="50.57142857142857" x2="288.828125" y2="50.57142857142857" fill="rgb(0, 0, 0)" stroke="rgb(66, 66, 66)" stroke-width="1px" opacity="0.25"></line><line x1="0" y1="37.92857142857143" x2="288.828125" y2="37.92857142857143" fill="rgb(0, 0, 0)" stroke="rgb(66, 66, 66)" stroke-width="1px" opacity="0.25"></line><line x1="0" y1="25.285714285714295" x2="288.828125" y2="25.285714285714295" fill="rgb(0, 0, 0)" stroke="rgb(66, 66, 66)" stroke-width="1px" opacity="0.25"></line><line x1="0" y1="12.642857142857137" x2="288.828125" y2="12.642857142857137" fill="rgb(0, 0, 0)" stroke="rgb(66, 66, 66)" stroke-width="1px" opacity="0.25"></line><line x1="0" y1="0" x2="288.828125" y2="0" fill="rgb(0, 0, 0)" stroke="rgb(66, 66, 66)" stroke-width="1px" opacity="0.25"></line></g></g></g><g><g><line x1="0" y1="214.92857142857142" x2="288.828125" y2="214.92857142857142" fill="rgb(0, 0, 0)" stroke="rgb(153, 153, 153)" stroke-width="1.5px"></line></g></g><g><g><line x1="28.8828125" y1="0" x2="28.8828125" y2="177" fill="rgb(0, 0, 0)" stroke="rgb(153, 153, 153)" stroke-width="1.5px"></line></g></g><g><g><g><g><g><path stroke="rgb(51, 187, 238)" stroke-width="2px" d="M41.360187499999995,-1.309773901378234L42.746562499999996,2.2700673042981983L44.1329375,4.404068189250244L45.5193125,6.186320488874274L46.9056875,7.253185693323697L48.29206249999999,7.892412340613038L49.678437499999994,8.27562758642226L51.0648125,8.505441384851705L52.4511875,8.643288163765822L53.837562500000004,8.725981296570481L55.223937500000005,8.775591801006716L56.6103125,8.80535616883645L57.9966875,8.82321409305028L59.3830625,8.833928596856273L60.7694375,8.840357208882477L62.1558125,8.844214343606069L63.5421875,8.846528612743155L64.9285625,8.847917170014528L66.3149375,8.848750302861362L67.7013125,8.849250182023788L69.0876875,8.849550109324797L70.4740625,8.849730065634631L71.8604375,8.849838039395127L73.2468125,9.355617149604628L74.6331875,9.65908458996823L76.01956249999999,9.84116504491205L77.40593750000001,9.950413314539553L78.7923125,10.015962275114099L80.17868750000001,10.055291651026154L81.5650625,10.07888927641758L82.9514375,10.093047851596403L84.3378125,10.10154299668347L85.7241875,10.106640083728468L87.1105625,10.109698335952855L88.4969375,10.11153328728653L89.88331249999999,10.112634258086393L91.2696875,10.11329484056621L92.65606249999999,10.113691190054016L94.0424375,10.113928999746713L95.4288125,10.114071685562319L96.8151875,10.11415729705169L98.20156250000001,10.114208663945305L99.5879375,10.114239484081462L100.97431250000001,10.1142579761632L102.3606875,10.114269071412203L103.74706250000001,10.114275728561617L105.1334375,10.114279722851277L106.5198125,10.114282119425049L107.9061875,10.11428355736932L109.2925625,10.11428442013588L110.67893749999999,10.114284937795839L112.0653125,10.114285248391798L113.45168749999999,10.114285434749357L114.8380625,10.114285546563918L116.2244375,10.114285613652626L117.61081250000001,10.114285653905863L118.9971875,10.1142856780578L120.3835625,10.114285692548998L121.7699375,10.114285701243698L123.1563125,10.114285706460553L124.54268750000001,10.114285709590575L125.9290625,10.114285711468616L127.3154375,10.11428571259546L128.7018125,10.114285713271572L130.0881875,10.114285713677226L131.4745625,10.114285713920642L132.8609375,10.114285714066668L134.2473125,10.114285714154272L135.6336875,10.114285714206877L137.0200625,10.114285714238418L138.4064375,10.114285714257322L139.7928125,10.11428571426868L141.1791875,10.11428571427552L142.5655625,10.114285714279607L143.9519375,10.114285714282042L145.3383125,10.114285714283517L146.72468750000002,10.11428571428442L148.1110625,10.114285714284932L149.4974375,10.114285714285247L150.8838125,10.114285714285423L152.2701875,10.11428571428558L153.6565625,10.11428571428564L155.04293750000002,10.114285714285678L156.42931249999998,10.114285714285717L157.8156875,10.114285714285717L159.2020625,10.114285714285717L160.58843750000003,10.114285714285717L161.97481249999998,10.114285714285717L163.3611875,10.114285714285717L164.74756250000002,10.114285714285717L166.1339375,10.114285714285717L167.5203125,10.114285714285717L168.9066875,10.114285714285717L170.2930625,10.114285714285717L171.6794375,10.114285714285717L173.0658125,10.114285714285717L174.4521875,10.114285714285717L175.8385625,10.114285714285717L177.2249375,10.114285714285717L178.6113125,10.114285714285717L179.99768749999998,10.114285714285717L181.3840625,10.114285714285717L182.7704375,10.114285714285717L184.15681249999997,10.114285714285717L185.5431875,10.114285714285717L186.9295625,10.114285714285717L188.31593750000002,10.114285714285717L189.7023125,10.114285714285717L191.0886875,10.114285714285717L192.4750625,10.114285714285717L193.8614375,10.114285714285717L195.2478125,10.114285714285717L196.6341875,10.114285714285717L198.02056249999998,10.114285714285717L199.4069375,10.114285714285717L200.7933125,10.114285714285717L202.1796875,10.114285714285717L203.5660625,10.114285714285717L204.9524375,10.114285714285717L206.33881250000002,10.114285714285717L207.72518749999998,10.114285714285717L209.1115625,10.114285714285717L210.4979375,10.114285714285717L211.88431250000002,10.114285714285717L213.27068749999998,10.114285714285717L214.6570625,10.114285714285717L216.0434375,10.114285714285717L217.4298125,10.114285714285717L218.8161875,10.114285714285717L220.2025625,10.114285714285717L221.5889375,10.114285714285717L222.9753125,10.114285714285717L224.36168750000002,10.114285714285717L225.74806249999997,10.114285714285717L227.1344375,10.114285714285717L228.5208125,10.114285714285717L229.90718750000002,10.114285714285717L231.29356249999998,10.114285714285717L232.6799375,10.114285714285717L234.0663125,10.114285714285717L235.4526875,10.114285714285717L236.83906249999998,10.114285714285717L238.2254375,10.114285714285717L239.6118125,10.114285714285717L240.9981875,10.114285714285717L242.3845625,10.114285714285717L243.7709375,10.114285714285717L245.1573125,10.114285714285717L246.5436875,10.114285714285717L247.93006250000002,10.114285714285717L249.31643749999998,10.114285714285717L250.7028125,10.114285714285717L252.0891875,10.114285714285717L253.47556250000002,10.114285714285717L254.86193749999998,10.114285714285717L256.2483125,10.114285714285717L257.6346875,10.114285714285717L259.0210625,10.114285714285717L260.4074375,10.114285714285717L261.7938125,10.114285714285717L263.1801875,10.114285714285717L264.56656250000003,10.114285714285717L265.95293749999996,10.114285714285717L267.3393125,10.114285714285717L268.7256875,10.114285714285717L270.11206250000004,10.114285714285717" style="fill: none;" fill="none"></path></g><g><path stroke="rgb(204, 51, 17)" stroke-width="2px" d="M31.655562500000002,-20.0705357142857L33.0419375,14.036151603498556L34.4283125,31.988287815126053L35.8146875,42.79006146525232L37.2010625,-6.460961715513291L38.5874375,27.41457843428663L39.9738125,48.151330581807805L41.360187499999995,59.85733937565384L42.746562499999996,66.29619406030952L44.1329375,70.13449883576853L45.5193125,71.92173257744312L46.9056875,72.48520405074441L48.29206249999999,72.82281556831886L49.678437499999994,73.02521307668924L51.0648125,73.14659065939223L52.4511875,72.71359538971492L53.837562500000004,72.45384513931906L55.223937500000005,72.29801187345389L56.6103125,72.20451799150216L57.9966875,72.14842385008119L59.3830625,72.11476815278098L60.7694375,72.0945750179116L62.1558125,72.08245923905206L63.5421875,72.07518980847833L64.9285625,72.0708281633611L66.3149375,72.06821118105249L67.7013125,71.56092639711083L69.0876875,71.25655572611915L70.4740625,71.07393339529847L71.8604375,70.96436002264478L73.2468125,70.89861600835452L74.6331875,70.85916960312905L76.01956249999999,70.83550176119932L77.40593750000001,70.82130105647549L78.7923125,70.81278063379739L80.17868750000001,70.80766838024678L81.5650625,70.80460102813669L82.9514375,70.80276061687792L84.3378125,70.80165637012527L85.7241875,70.80099382207463L87.1105625,70.80059629324461L88.4969375,70.80035777594668L89.88331249999999,70.80021466556799L91.2696875,70.80012879934077L92.65606249999999,70.80007727960448L94.0424375,70.80004636776268L95.4288125,70.80002782065762L96.8151875,70.80001669239455L98.20156250000001,70.80001001543675L99.5879375,70.80000600926206L100.97431250000001,70.80000360555725L102.3606875,70.80000216333434L103.74706250000001,70.80000129800062L105.1334375,70.80000077880038L106.5198125,70.80000046728024L107.9061875,70.80000028036815L109.2925625,70.8000001682209L110.67893749999999,70.80000010093252L112.0653125,70.80000006055953L113.45168749999999,70.8000000363357L114.8380625,70.80000002180141L116.2244375,70.80000001308083L117.61081250000001,70.8000000078485L118.9971875,70.80000000470912L120.3835625,70.80000000282544L121.7699375,70.80000000169527L123.1563125,70.80000000101715L124.54268750000001,70.80000000061028L125.9290625,70.80000000036618L127.3154375,70.8000000002197L128.7018125,70.80000000013182L130.0881875,70.80000000007908L131.4745625,70.80000000004746L132.8609375,70.8000000000285L134.2473125,70.8000000000171L135.6336875,70.80000000001029L137.0200625,1.0114285714347342L138.4064375,16.28400000000369L139.7928125,31.010400000002225L141.1791875,42.37481142857278L142.5655625,50.204886857143656L143.9519375,55.408646400000485L145.3383125,59.036616411428874L146.72468750000002,61.71911270400018L148.1110625,63.32861047954295L149.4974375,64.8000234305829L150.8838125,65.6828712012069L152.2701875,66.21257986358127L153.6565625,66.53040506100591L155.04293750000002,67.22681446517497L156.42931249999998,67.6446601076764L157.8156875,67.89536749317728L159.2020625,68.04579192447778L160.58843750000003,68.13604658325808L161.97481249999998,68.19019937852627L163.3611875,68.22269105568719L164.74756250000002,68.74790034769802L166.1339375,69.06302592290453L167.5203125,69.25210126802844" style="fill: none;" fill="none"></path></g></g></g></g><g opacity="0.2"><g><g><g><path stroke="rgb(51, 187, 238)" stroke-width="2px" d="M38.5874375,-1.2642857142857098L39.9738125,3.792857142857149L41.360187499999995,6.3214285714285685L42.746562499999996,7.585714285714278L44.1329375,7.585714285714278L45.5193125,8.850000000000009L46.9056875,8.850000000000009L48.29206249999999,8.850000000000009L49.678437499999994,8.850000000000009L51.0648125,8.850000000000009L52.4511875,8.850000000000009L53.837562500000004,8.850000000000009L55.223937500000005,8.850000000000009L56.6103125,8.850000000000009L57.9966875,8.850000000000009L59.3830625,8.850000000000009L60.7694375,8.850000000000009L62.1558125,8.850000000000009L63.5421875,8.850000000000009L64.9285625,8.850000000000009L66.3149375,8.850000000000009L67.7013125,8.850000000000009L69.0876875,8.850000000000009L70.4740625,8.850000000000009L71.8604375,8.850000000000009L73.2468125,10.114285714285717L74.6331875,10.114285714285717L76.01956249999999,10.114285714285717L77.40593750000001,10.114285714285717L78.7923125,10.114285714285717L80.17868750000001,10.114285714285717L81.5650625,10.114285714285717L82.9514375,10.114285714285717L84.3378125,10.114285714285717L85.7241875,10.114285714285717L87.1105625,10.114285714285717L88.4969375,10.114285714285717L89.88331249999999,10.114285714285717L91.2696875,10.114285714285717L92.65606249999999,10.114285714285717L94.0424375,10.114285714285717L95.4288125,10.114285714285717L96.8151875,10.114285714285717L98.20156250000001,10.114285714285717L99.5879375,10.114285714285717L100.97431250000001,10.114285714285717L102.3606875,10.114285714285717L103.74706250000001,10.114285714285717L105.1334375,10.114285714285717L106.5198125,10.114285714285717L107.9061875,10.114285714285717L109.2925625,10.114285714285717L110.67893749999999,10.114285714285717L112.0653125,10.114285714285717L113.45168749999999,10.114285714285717L114.8380625,10.114285714285717L116.2244375,10.114285714285717L117.61081250000001,10.114285714285717L118.9971875,10.114285714285717L120.3835625,10.114285714285717L121.7699375,10.114285714285717L123.1563125,10.114285714285717L124.54268750000001,10.114285714285717L125.9290625,10.114285714285717L127.3154375,10.114285714285717L128.7018125,10.114285714285717L130.0881875,10.114285714285717L131.4745625,10.114285714285717L132.8609375,10.114285714285717L134.2473125,10.114285714285717L135.6336875,10.114285714285717L137.0200625,10.114285714285717L138.4064375,10.114285714285717L139.7928125,10.114285714285717L141.1791875,10.114285714285717L142.5655625,10.114285714285717L143.9519375,10.114285714285717L145.3383125,10.114285714285717L146.72468750000002,10.114285714285717L148.1110625,10.114285714285717L149.4974375,10.114285714285717L150.8838125,10.114285714285717L152.2701875,10.114285714285717L153.6565625,10.114285714285717L155.04293750000002,10.114285714285717L156.42931249999998,10.114285714285717L157.8156875,10.114285714285717L159.2020625,10.114285714285717L160.58843750000003,10.114285714285717L161.97481249999998,10.114285714285717L163.3611875,10.114285714285717L164.74756250000002,10.114285714285717L166.1339375,10.114285714285717L167.5203125,10.114285714285717L168.9066875,10.114285714285717L170.2930625,10.114285714285717L171.6794375,10.114285714285717L173.0658125,10.114285714285717L174.4521875,10.114285714285717L175.8385625,10.114285714285717L177.2249375,10.114285714285717L178.6113125,10.114285714285717L179.99768749999998,10.114285714285717L181.3840625,10.114285714285717L182.7704375,10.114285714285717L184.15681249999997,10.114285714285717L185.5431875,10.114285714285717L186.9295625,10.114285714285717L188.31593750000002,10.114285714285717L189.7023125,10.114285714285717L191.0886875,10.114285714285717L192.4750625,10.114285714285717L193.8614375,10.114285714285717L195.2478125,10.114285714285717L196.6341875,10.114285714285717L198.02056249999998,10.114285714285717L199.4069375,10.114285714285717L200.7933125,10.114285714285717L202.1796875,10.114285714285717L203.5660625,10.114285714285717L204.9524375,10.114285714285717L206.33881250000002,10.114285714285717L207.72518749999998,10.114285714285717L209.1115625,10.114285714285717L210.4979375,10.114285714285717L211.88431250000002,10.114285714285717L213.27068749999998,10.114285714285717L214.6570625,10.114285714285717L216.0434375,10.114285714285717L217.4298125,10.114285714285717L218.8161875,10.114285714285717L220.2025625,10.114285714285717L221.5889375,10.114285714285717L222.9753125,10.114285714285717L224.36168750000002,10.114285714285717L225.74806249999997,10.114285714285717L227.1344375,10.114285714285717L228.5208125,10.114285714285717L229.90718750000002,10.114285714285717L231.29356249999998,10.114285714285717L232.6799375,10.114285714285717L234.0663125,10.114285714285717L235.4526875,10.114285714285717L236.83906249999998,10.114285714285717L238.2254375,10.114285714285717L239.6118125,10.114285714285717L240.9981875,10.114285714285717L242.3845625,10.114285714285717L243.7709375,10.114285714285717L245.1573125,10.114285714285717L246.5436875,10.114285714285717L247.93006250000002,10.114285714285717L249.31643749999998,10.114285714285717L250.7028125,10.114285714285717L252.0891875,10.114285714285717L253.47556250000002,10.114285714285717L254.86193749999998,10.114285714285717L256.2483125,10.114285714285717L257.6346875,10.114285714285717L259.0210625,10.114285714285717L260.4074375,10.114285714285717L261.7938125,10.114285714285717L263.1801875,10.114285714285717L264.56656250000003,10.114285714285717L265.95293749999996,10.114285714285717L267.3393125,10.114285714285717L268.7256875,10.114285714285717L270.11206250000004,10.114285714285717" style="fill: none;" fill="none"></path></g><g><path stroke="rgb(204, 51, 17)" stroke-width="2px" d="M30.2691875,-106.20000000000002L31.655562500000002,31.60714285714286L33.0419375,46.77857142857142L34.4283125,53.10000000000001L35.8146875,56.89285714285714L37.2010625,-74.59285714285716L38.5874375,75.85714285714286L39.9738125,78.38571428571429L41.360187499999995,77.12142857142857L42.746562499999996,75.85714285714286L44.1329375,75.85714285714286L45.5193125,74.59285714285713L46.9056875,73.32857142857142L48.29206249999999,73.32857142857142L49.678437499999994,73.32857142857142L51.0648125,73.32857142857142L52.4511875,72.06428571428572L53.837562500000004,72.06428571428572L55.223937500000005,72.06428571428572L56.6103125,72.06428571428572L57.9966875,72.06428571428572L59.3830625,72.06428571428572L60.7694375,72.06428571428572L62.1558125,72.06428571428572L63.5421875,72.06428571428572L64.9285625,72.06428571428572L66.3149375,72.06428571428572L67.7013125,70.8L69.0876875,70.8L70.4740625,70.8L71.8604375,70.8L73.2468125,70.8L74.6331875,70.8L76.01956249999999,70.8L77.40593750000001,70.8L78.7923125,70.8L80.17868750000001,70.8L81.5650625,70.8L82.9514375,70.8L84.3378125,70.8L85.7241875,70.8L87.1105625,70.8L88.4969375,70.8L89.88331249999999,70.8L91.2696875,70.8L92.65606249999999,70.8L94.0424375,70.8L95.4288125,70.8L96.8151875,70.8L98.20156250000001,70.8L99.5879375,70.8L100.97431250000001,70.8L102.3606875,70.8L103.74706250000001,70.8L105.1334375,70.8L106.5198125,70.8L107.9061875,70.8L109.2925625,70.8L110.67893749999999,70.8L112.0653125,70.8L113.45168749999999,70.8L114.8380625,70.8L116.2244375,70.8L117.61081250000001,70.8L118.9971875,70.8L120.3835625,70.8L121.7699375,70.8L123.1563125,70.8L124.54268750000001,70.8L125.9290625,70.8L127.3154375,70.8L128.7018125,70.8L130.0881875,70.8L131.4745625,70.8L132.8609375,70.8L134.2473125,70.8L135.6336875,70.8L137.0200625,-103.67142857142856L138.4064375,39.19285714285714L139.7928125,53.10000000000001L141.1791875,59.42142857142858L142.5655625,61.949999999999996L143.9519375,63.21428571428571L145.3383125,64.47857142857144L146.72468750000002,65.74285714285715L148.1110625,65.74285714285715L149.4974375,67.00714285714285L150.8838125,67.00714285714285L152.2701875,67.00714285714285L153.6565625,67.00714285714285L155.04293750000002,68.27142857142856L156.42931249999998,68.27142857142856L157.8156875,68.27142857142856L159.2020625,68.27142857142856L160.58843750000003,68.27142857142856L161.97481249999998,68.27142857142856L163.3611875,68.27142857142856L164.74756250000002,69.53571428571429L166.1339375,69.53571428571429L167.5203125,69.53571428571429" style="fill: none;" fill="none"></path></g></g></g></g></g></g><g transform="translate(41, 177)" clip-path="url(#clip_1)"><clipPath id="clip_1"><rect width="288" height="23"></rect></clipPath><g><g><line x1="0" y1="0" x2="0" y2="5" style="visibility: inherit;" fill="rgb(0, 0, 0)" stroke="rgb(204, 204, 204)" stroke-width="1px"></line><line x1="28.8828125" y1="0" x2="28.8828125" y2="5" style="visibility: inherit;" fill="rgb(0, 0, 0)" stroke="rgb(204, 204, 204)" stroke-width="1px"></line><line x1="57.765625" y1="0" x2="57.765625" y2="5" style="visibility: inherit;" fill="rgb(0, 0, 0)" stroke="rgb(204, 204, 204)" stroke-width="1px"></line><line x1="86.6484375" y1="0" x2="86.6484375" y2="5" style="visibility: inherit;" fill="rgb(0, 0, 0)" stroke="rgb(204, 204, 204)" stroke-width="1px"></line><line x1="115.53125" y1="0" x2="115.53125" y2="5" style="visibility: inherit;" fill="rgb(0, 0, 0)" stroke="rgb(204, 204, 204)" stroke-width="1px"></line><line x1="144.4140625" y1="0" x2="144.4140625" y2="5" style="visibility: inherit;" fill="rgb(0, 0, 0)" stroke="rgb(204, 204, 204)" stroke-width="1px"></line><line x1="173.296875" y1="0" x2="173.296875" y2="5" style="visibility: inherit;" fill="rgb(0, 0, 0)" stroke="rgb(204, 204, 204)" stroke-width="1px"></line><line x1="202.1796875" y1="0" x2="202.1796875" y2="5" style="visibility: inherit;" fill="rgb(0, 0, 0)" stroke="rgb(204, 204, 204)" stroke-width="1px"></line><line x1="231.0625" y1="0" x2="231.0625" y2="5" style="visibility: inherit;" fill="rgb(0, 0, 0)" stroke="rgb(204, 204, 204)" stroke-width="1px"></line><line x1="259.9453125" y1="0" x2="259.9453125" y2="5" style="visibility: inherit;" fill="rgb(0, 0, 0)" stroke="rgb(204, 204, 204)" stroke-width="1px"></line><line x1="288.828125" y1="0" x2="288.828125" y2="5" style="visibility: inherit;" fill="rgb(0, 0, 0)" stroke="rgb(204, 204, 204)" stroke-width="1px"></line></g><g transform="translate(0, 8)"><text x="0" y="0" dx="0em" dy="0.95em" style="text-anchor: middle; visibility: hidden; font-family: Roboto, sans-serif; font-size: 12px; font-weight: 200;" fill="rgb(33, 33, 33)" stroke="none" stroke-width="1px">-500k</text><text x="28.8828125" y="0" dx="0em" dy="0.95em" style="text-anchor: middle; visibility: inherit; font-family: Roboto, sans-serif; font-size: 12px; font-weight: 200;" fill="rgb(33, 33, 33)" stroke="none" stroke-width="1px">0</text><text x="57.765625" y="0" dx="0em" dy="0.95em" style="text-anchor: middle; visibility: inherit; font-family: Roboto, sans-serif; font-size: 12px; font-weight: 200;" fill="rgb(33, 33, 33)" stroke="none" stroke-width="1px">500k</text><text x="86.6484375" y="0" dx="0em" dy="0.95em" style="text-anchor: middle; visibility: inherit; font-family: Roboto, sans-serif; font-size: 12px; font-weight: 200;" fill="rgb(33, 33, 33)" stroke="none" stroke-width="1px">1M</text><text x="115.53125" y="0" dx="0em" dy="0.95em" style="text-anchor: middle; visibility: inherit; font-family: Roboto, sans-serif; font-size: 12px; font-weight: 200;" fill="rgb(33, 33, 33)" stroke="none" stroke-width="1px">1.5M</text><text x="144.4140625" y="0" dx="0em" dy="0.95em" style="text-anchor: middle; visibility: inherit; font-family: Roboto, sans-serif; font-size: 12px; font-weight: 200;" fill="rgb(33, 33, 33)" stroke="none" stroke-width="1px">2M</text><text x="173.296875" y="0" dx="0em" dy="0.95em" style="text-anchor: middle; visibility: inherit; font-family: Roboto, sans-serif; font-size: 12px; font-weight: 200;" fill="rgb(33, 33, 33)" stroke="none" stroke-width="1px">2.5M</text><text x="202.1796875" y="0" dx="0em" dy="0.95em" style="text-anchor: middle; visibility: inherit; font-family: Roboto, sans-serif; font-size: 12px; font-weight: 200;" fill="rgb(33, 33, 33)" stroke="none" stroke-width="1px">3M</text><text x="231.0625" y="0" dx="0em" dy="0.95em" style="text-anchor: middle; visibility: inherit; font-family: Roboto, sans-serif; font-size: 12px; font-weight: 200;" fill="rgb(33, 33, 33)" stroke="none" stroke-width="1px">3.5M</text><text x="259.9453125" y="0" dx="0em" dy="0.95em" style="text-anchor: middle; visibility: inherit; font-family: Roboto, sans-serif; font-size: 12px; font-weight: 200;" fill="rgb(33, 33, 33)" stroke="none" stroke-width="1px">4M</text><text x="288.828125" y="0" dx="0em" dy="0.95em" style="text-anchor: middle; visibility: hidden; font-family: Roboto, sans-serif; font-size: 12px; font-weight: 200;" fill="rgb(33, 33, 33)" stroke="none" stroke-width="1px">4.5M</text></g><line x1="0" y1="0" x2="288.828125" y2="0" fill="rgb(0, 0, 0)" stroke="rgb(204, 204, 204)" stroke-width="1px"></line></g></g></g></g></svg>