<svg viewBox="0 0 330 200" xmlns="http://www.w3.org/2000/svg"><g><g><g><g><g><line x1="51.5625" y1="177" x2="46.5625" y2="177" style="visibility: inherit;" fill="rgb(0, 0, 0)" stroke="rgb(204, 204, 204)" stroke-width="1px"></line><line x1="51.5625" y1="154.8750003296882" x2="46.5625" y2="154.8750003296882" style="visibility: inherit;" fill="rgb(0, 0, 0)" stroke="rgb(204, 204, 204)" stroke-width="1px"></line><line x1="51.5625" y1="132.75000065937638" x2="46.5625" y2="132.75000065937638" style="visibility: inherit;" fill="rgb(0, 0, 0)" stroke="rgb(204, 204, 204)" stroke-width="1px"></line><line x1="51.5625" y1="110.62500098906457" x2="46.5625" y2="110.62500098906457" style="visibility: inherit;" fill="rgb(0, 0, 0)" stroke="rgb(204, 204, 204)" stroke-width="1px"></line><line x1="51.5625" y1="88.50000131875275" x2="46.5625" y2="88.50000131875275" style="visibility: inherit;" fill="rgb(0, 0, 0)" stroke="rgb(204, 204, 204)" stroke-width="1px"></line><line x1="51.5625" y1="66.37500164844094" x2="46.5625" y2="66.37500164844094" style="visibility: inherit;" fill="rgb(0, 0, 0)" stroke="rgb(204, 204, 204)" stroke-width="1px"></line><line x1="51.5625" y1="44.25000197812913" x2="46.5625" y2="44.25000197812913" style="visibility: inherit;" fill="rgb(0, 0, 0)" stroke="rgb(204, 204, 204)" stroke-width="1px"></line><line x1="51.5625" y1="22.12500230781732" x2="46.5625" y2="22.12500230781732" style="visibility: inherit;" fill="rgb(0, 0, 0)" stroke="rgb(204, 204, 204)" stroke-width="1px"></line><line x1="51.5625" y1="0.00000263750549200914" x2="46.5625" y2="0.00000263750549200914" style="visibility: inherit;" fill="rgb(0, 0, 0)" stroke="rgb(204, 204, 204)" stroke-width="1px"></line></g><g transform="translate(41.5625, 0)"><text x="0" y="177" dx="0em" dy="0.3em" style="text-anchor: end; visibility: hidden; font-family: Roboto, sans-serif; font-size: 12px; font-weight: 200;" fill="rgb(33, 33, 33)" stroke="none" stroke-width="1px">0</text><text x="0" y="154.8750003296882" dx="0em" dy="0.3em" style="text-anchor: end; visibility: inherit; font-family: Roboto, sans-serif; font-size: 12px; font-weight: 200;" fill="rgb(33, 33, 33)" stroke="none" stroke-width="1px">0.05</text><text x="0" y="132.75000065937638" dx="0em" dy="0.3em" style="text-anchor: end; visibility: hidden; font-family: Roboto, sans-serif; font-size: 12px; font-weight: 200;" fill="rgb(33, 33, 33)" stroke="none" stroke-width="1px">0.1</text><text x="0" y="110.62500098906457" dx="0em" dy="0.3em" style="text-anchor: end; visibility: inherit; font-family: Roboto, sans-serif; font-size: 12px; font-weight: 200;" fill="rgb(33, 33, 33)" stroke="none" stroke-width="1px">0.15</text><text x="0" y="88.50000131875275" dx="0em" dy="0.3em" style="text-anchor: end; visibility: hidden; font-family: Roboto, sans-serif; font-size: 12px; font-weight: 200;" fill="rgb(33, 33, 33)" stroke="none" stroke-width="1px">0.2</text><text x="0" y="66.37500164844094" dx="0em" dy="0.3em" style="text-anchor: end; visibility: inherit; font-family: Roboto, sans-serif; font-size: 12px; font-weight: 200;" fill="rgb(33, 33, 33)" stroke="none" stroke-width="1px">0.25</text><text x="0" y="44.25000197812913" dx="0em" dy="0.3em" style="text-anchor: end; visibility: hidden; font-family: Roboto, sans-serif; font-size: 12px; font-weight: 200;" fill="rgb(33, 33, 33)" stroke="none" stroke-width="1px">0.3</text><text x="0" y="22.12500230781732" dx="0em" dy="0.3em" style="text-anchor: end; visibility: inherit; font-family: Roboto, sans-serif; font-size: 12px; font-weight: 200;" fill="rgb(33, 33, 33)" stroke="none" stroke-width="1px">0.35</text><text x="0" y="0.00000263750549200914" dx="0em" dy="0.3em" style="text-anchor: end; visibility: hidden; font-family: Roboto, sans-serif; font-size: 12px; font-weight: 200;" fill="rgb(33, 33, 33)" stroke="none" stroke-width="1px">0.4</text></g><line x1="51.5625" y1="0" x2="51.5625" y2="177" fill="rgb(0, 0, 0)" stroke="rgb(204, 204, 204)" stroke-width="1px"></line></g></g><g transform="translate(51, 0)" clip-path="url(#clip_0)"><clipPath id="clip_0"><rect width="278" height="177"></rect></clipPath><g><g><g><line x1="0" y1="0" x2="0" y2="177" fill="rgb(0, 0, 0)" stroke="rgb(66, 66, 66)" stroke-width="1px" opacity="0.25"></line><line x1="27.84375" y1="0" x2="27.84375" y2="177" fill="rgb(0, 0, 0)" stroke="rgb(66, 66, 66)" stroke-width="1px" opacity="0.25"></line><line x1="55.6875" y1="0" x2="55.6875" y2="177" fill="rgb(0, 0, 0)" stroke="rgb(66, 66, 66)" stroke-width="1px" opacity="0.25"></line><line x1="83.53125" y1="0" x2="83.53125" y2="177" fill="rgb(0, 0, 0)" stroke="rgb(66, 66, 66)" stroke-width="1px" opacity="0.25"></line><line x1="111.375" y1="0" x2="111.375" y2="177" fill="rgb(0, 0, 0)" stroke="rgb(66, 66, 66)" stroke-width="1px" opacity="0.25"></line><line x1="139.21875" y1="0" x2="139.21875" y2="177" fill="rgb(0, 0, 0)" stroke="rgb(66, 66, 66)" stroke-width="1px" opacity="0.25"></line><line x1="167.0625" y1="0" x2="167.0625" y2="177" fill="rgb(0, 0, 0)" stroke="rgb(66, 66, 66)" stroke-width="1px" opacity="0.25"></line><line x1="194.90625" y1="0" x2="194.90625" y2="177" fill="rgb(0, 0, 0)" stroke="rgb(66, 66, 66)" stroke-width="1px" opacity="0.25"></line><line x1="222.75" y1="0" x2="222.75" y2="177" fill="rgb(0, 0, 0)" stroke="rgb(66, 66, 66)" stroke-width="1px" opacity="0.25"></line><line x1="250.59375" y1="0" x2="250.59375" y2="177" fill="rgb(0, 0, 0)" stroke="rgb(66, 66, 66)" stroke-width="1px" opacity="0.25"></line><line x1="278.4375" y1="0" x2="278.4375" y2="177" fill="rgb(0, 0, 0)" stroke="rgb(66, 66, 66)" stroke-width="1px" opacity="0.25"></line></g><g><line x1="0" y1="177" x2="278.4375" y2="177" fill="rgb(0, 0, 0)" stroke="rgb(66, 66, 66)" stroke-width="1px" opacity="0.25"></line><line x1="0" y1="154.8750003296882" x2="278.4375" y2="154.8750003296882" fill="rgb(0, 0, 0)" stroke="rgb(66, 66, 66)" stroke-width="1px" opacity="0.25"></line><line x1="0" y1="132.75000065937638" x2="278.4375" y2="132.75000065937638" fill="rgb(0, 0, 0)" stroke="rgb(66, 66, 66)" stroke-width="1px" opacity="0.25"></line><line x1="0" y1="110.62500098906457" x2="278.4375" y2="110.62500098906457" fill="rgb(0, 0, 0)" stroke="rgb(66, 66, 66)" stroke-width="1px" opacity="0.25"></line><line x1="0" y1="88.50000131875275" x2="278.4375" y2="88.50000131875275" fill="rgb(0, 0, 0)" stroke="rgb(66, 66, 66)" stroke-width="1px" opacity="0.25"></line><line x1="0" y1="66.37500164844094" x2="278.4375" y2="66.37500164844094" fill="rgb(0, 0, 0)" stroke="rgb(66, 66, 66)" stroke-width="1px" opacity="0.25"></line><line x1="0" y1="44.25000197812913" x2="278.4375" y2="44.25000197812913" fill="rgb(0, 0, 0)" stroke="rgb(66, 66, 66)" stroke-width="1px" opacity="0.25"></line><line x1="0" y1="22.12500230781732" x2="278.4375" y2="22.12500230781732" fill="rgb(0, 0, 0)" stroke="rgb(66, 66, 66)" stroke-width="1px" opacity="0.25"></line><line x1="0" y1="0.00000263750549200914" x2="278.4375" y2="0.00000263750549200914" fill="rgb(0, 0, 0)" stroke="rgb(66, 66, 66)" stroke-width="1px" opacity="0.25"></line></g></g></g><g><g><line x1="0" y1="177" x2="278.4375" y2="177" fill="rgb(0, 0, 0)" stroke="rgb(153, 153, 153)" stroke-width="1.5px"></line></g></g><g><g><line x1="27.84375" y1="0" x2="27.84375" y2="177" fill="rgb(0, 0, 0)" stroke="rgb(153, 153, 153)" stroke-width="1.5px"></line></g></g><g><g><g><g><g><path stroke="rgb(51, 187, 238)" stroke-width="2px" d="M30.516750000000002,88.5L31.85325,88.5L33.189750000000004,88.5L34.52625,88.5L35.86275,88.5L37.19925,88.5L38.53575,88.5L39.87225,88.5L41.208749999999995,88.5L42.545249999999996,88.5L43.88175,88.5L45.21825,88.5L46.55475,88.5L47.89125,88.5L49.22775,88.5L50.56425,88.5L51.90075,88.5L53.23725,88.5L54.573750000000004,88.5L55.910250000000005,88.5L57.24675,88.5L58.58325,88.5L59.91975,88.5L61.25625,88.5L62.59275,88.5L63.929249999999996,88.5L65.26575,88.5L66.60225,88.5L67.93875,88.5L69.27525,88.5L70.61175,88.5L71.94825,88.5L73.28475,88.5L74.62125,88.5L75.95774999999999,88.5L77.29425,88.5L78.63074999999999,88.5L79.96725,88.5L81.30375,88.5L82.64025000000001,88.5L83.97675,88.5L85.31325,88.5L86.64975,88.5L87.98625,88.5L89.32275,88.5L90.65925,88.5L91.99575,88.5L93.33225,88.5L94.66875,88.5L96.00525,88.5L97.34175,88.5L98.67824999999999,88.5L100.01475,88.5L101.35125,88.5L102.68775000000001,88.5L104.02425,88.5L105.36075000000001,88.5L106.69725,88.5L108.03375,88.5L109.37025,88.5L110.70675,88.5L112.04325,88.5L113.37975,88.5L114.71624999999999,88.5L116.05275,88.5L117.38924999999999,88.5L118.72575,88.5L120.06225,88.5L121.39874999999999,88.5L122.73525000000001,88.5L124.07175,88.5L125.40825000000001,88.5L126.74475,88.5L128.08125,88.5L129.41774999999998,88.5L130.75425,88.5L132.09074999999999,88.5L133.42725000000002,88.5L134.76375,88.5L136.10025000000002,88.5L137.43675,88.5L138.77325,88.5L140.10975,88.5L141.44625,88.5L142.78275000000002,88.5L144.11925,88.5L145.45575,88.5L146.79225,88.5L148.12875,88.5L149.46525000000003,88.5L150.80175,88.5L152.13825,88.5L153.47475,88.5L154.81125,88.5L156.14775,88.5L157.48425,88.5L158.82075,88.5L160.15725,88.5L161.49374999999998,88.5L162.83025,88.5L164.16675,88.5L165.50325,88.5L166.83974999999998,88.5L168.17624999999998,88.5L169.51275,88.5L170.84925,88.5L172.18574999999998,88.5L173.52224999999999,88.5L174.85875000000001,88.5L176.19525000000002,88.5L177.53175,88.5L178.86825,88.5L180.20475,88.5L181.54125000000002,88.5L182.87775000000002,88.5L184.21425,88.5L185.55075,88.5L186.88725,88.5L188.22375000000002,88.5L189.56025,88.5L190.89675,88.5L192.23325,88.5L193.56975,88.5L194.90625,88.5L196.24275,88.5L197.57925,88.5L198.91575,88.5L200.25224999999998,88.5L201.58875,88.5L202.92525,88.5L204.26175,88.5L205.59824999999998,88.5L206.93474999999998,88.5L208.27125,88.5L209.60775,88.5L210.94425,88.5L212.28074999999998,88.5L213.61724999999998,88.5L214.95375,88.5L216.29025000000001,88.5L217.62675,88.5L218.96325,88.5L220.29975000000002,88.5L221.63625000000002,88.5L222.97275,88.5L224.30925,88.5L225.64575,88.5L226.98225000000002,88.5L228.31875,88.5L229.65525,88.5L230.99175,88.5L232.32825,88.5L233.66475,88.5L235.00125,88.5L236.33775,88.5L237.67425,88.5L239.01075,88.5L240.34725,88.5L241.68375,88.5L243.02025,88.5L244.35675,88.5L245.69324999999998,88.5L247.02975,88.5L248.36625,88.5L249.70275,88.5L251.03924999999998,88.5L252.37574999999998,88.5L253.71225,88.5L255.04875,88.5L256.38525,88.5L257.72175,88.5L259.05825,88.5L260.39475,88.5" style="fill: none;" fill="none"></path></g><g><path stroke="rgb(204, 51, 17)" stroke-width="2px" d="M30.516750000000002,88.5L31.85325,88.5L33.189750000000004,88.5L34.52625,88.5L37.19925,88.5L38.53575,88.5L39.87225,88.5L41.208749999999995,88.5L42.545249999999996,88.5L43.88175,88.5L45.21825,88.5L46.55475,88.5L47.89125,88.5L49.22775,88.5L50.56425,88.5L51.90075,88.5L53.23725,88.5L54.573750000000004,88.5L55.910250000000005,88.5L57.24675,88.5L58.58325,88.5L59.91975,88.5L61.25625,88.5L62.59275,88.5L63.929249999999996,88.5L65.26575,88.5L66.60225,88.5L67.93875,88.5L69.27525,88.5L70.61175,88.5L71.94825,88.5L73.28475,88.5L74.62125,88.5L75.95774999999999,88.5L77.29425,88.5L78.63074999999999,88.5L79.96725,88.5L81.30375,88.5L82.64025000000001,88.5L83.97675,88.5L85.31325,88.5L86.64975,88.5L87.98625,88.5L89.32275,88.5L90.65925,88.5L91.99575,88.5L93.33225,88.5L94.66875,88.5L96.00525,88.5L97.34175,88.5L98.67824999999999,88.5L100.01475,88.5L101.35125,88.5L102.68775000000001,88.5L104.02425,88.5L105.36075000000001,88.5L106.69725,88.5L108.03375,88.5L109.37025,88.5L110.70675,88.5L112.04325,88.5L113.37975,88.5L114.71624999999999,88.5L116.05275,88.5L117.38924999999999,88.5L118.72575,88.5L120.06225,88.5L121.39874999999999,88.5L122.73525000000001,88.5L124.07175,88.5L125.40825000000001,88.5L126.74475,88.5L128.08125,88.5L129.41774999999998,88.5L130.75425,88.5L133.42725000000002,88.5L134.76375,88.5L136.10025000000002,88.5L137.43675,88.5L138.77325,88.5L140.10975,88.5L141.44625,88.5L142.78275000000002,88.5L144.11925,88.5L145.45575,88.5L146.79225,88.5L148.12875,88.5L149.46525000000003,88.5L150.80175,88.5L152.13825,88.5L153.47475,88.5L154.81125,88.5L156.14775,88.5L157.48425,88.5L158.82075,88.5L160.15725,88.5L161.49374999999998,88.5" style="fill: none;" fill="none"></path></g></g></g></g><g opacity="0.2"><g><g><g><path stroke="rgb(51, 187, 238)" stroke-width="2px" d="M30.516750000000002,88.5L31.85325,88.5L33.189750000000004,88.5L34.52625,88.5L35.86275,88.5L37.19925,88.5L38.53575,88.5L39.87225,88.5L41.208749999999995,88.5L42.545249999999996,88.5L43.88175,88.5L45.21825,88.5L46.55475,88.5L47.89125,88.5L49.22775,88.5L50.56425,88.5L51.90075,88.5L53.23725,88.5L54.573750000000004,88.5L55.910250000000005,88.5L57.24675,88.5L58.58325,88.5L59.91975,88.5L61.25625,88.5L62.59275,88.5L63.929249999999996,88.5L65.26575,88.5L66.60225,88.5L67.93875,88.5L69.27525,88.5L70.61175,88.5L71.94825,88.5L73.28475,88.5L74.62125,88.5L75.95774999999999,88.5L77.29425,88.5L78.63074999999999,88.5L79.96725,88.5L81.30375,88.5L82.64025000000001,88.5L83.97675,88.5L85.31325,88.5L86.64975,88.5L87.98625,88.5L89.32275,88.5L90.65925,88.5L91.99575,88.5L93.33225,88.5L94.66875,88.5L96.00525,88.5L97.34175,88.5L98.67824999999999,88.5L100.01475,88.5L101.35125,88.5L102.68775000000001,88.5L104.02425,88.5L105.36075000000001,88.5L106.69725,88.5L108.03375,88.5L109.37025,88.5L110.70675,88.5L112.04325,88.5L113.37975,88.5L114.71624999999999,88.5L116.05275,88.5L117.38924999999999,88.5L118.72575,88.5L120.06225,88.5L121.39874999999999,88.5L122.73525000000001,88.5L124.07175,88.5L125.40825000000001,88.5L126.74475,88.5L128.08125,88.5L129.41774999999998,88.5L130.75425,88.5L132.09074999999999,88.5L133.42725000000002,88.5L134.76375,88.5L136.10025000000002,88.5L137.43675,88.5L138.77325,88.5L140.10975,88.5L141.44625,88.5L142.78275000000002,88.5L144.11925,88.5L145.45575,88.5L146.79225,88.5L148.12875,88.5L149.46525000000003,88.5L150.80175,88.5L152.13825,88.5L153.47475,88.5L154.81125,88.5L156.14775,88.5L157.48425,88.5L158.82075,88.5L160.15725,88.5L161.49374999999998,88.5L162.83025,88.5L164.16675,88.5L165.50325,88.5L166.83974999999998,88.5L168.17624999999998,88.5L169.51275,88.5L170.84925,88.5L172.18574999999998,88.5L173.52224999999999,88.5L174.85875000000001,88.5L176.19525000000002,88.5L177.53175,88.5L178.86825,88.5L180.20475,88.5L181.54125000000002,88.5L182.87775000000002,88.5L184.21425,88.5L185.55075,88.5L186.88725,88.5L188.22375000000002,88.5L189.56025,88.5L190.89675,88.5L192.23325,88.5L193.56975,88.5L194.90625,88.5L196.24275,88.5L197.57925,88.5L198.91575,88.5L200.25224999999998,88.5L201.58875,88.5L202.92525,88.5L204.26175,88.5L205.59824999999998,88.5L206.93474999999998,88.5L208.27125,88.5L209.60775,88.5L210.94425,88.5L212.28074999999998,88.5L213.61724999999998,88.5L214.95375,88.5L216.29025000000001,88.5L217.62675,88.5L218.96325,88.5L220.29975000000002,88.5L221.63625000000002,88.5L222.97275,88.5L224.30925,88.5L225.64575,88.5L226.98225000000002,88.5L228.31875,88.5L229.65525,88.5L230.99175,88.5L232.32825,88.5L233.66475,88.5L235.00125,88.5L236.33775,88.5L237.67425,88.5L239.01075,88.5L240.34725,88.5L241.68375,88.5L243.02025,88.5L244.35675,88.5L245.69324999999998,88.5L247.02975,88.5L248.36625,88.5L249.70275,88.5L251.03924999999998,88.5L252.37574999999998,88.5L253.71225,88.5L255.04875,88.5L256.38525,88.5L257.72175,88.5L259.05825,88.5L260.39475,88.5" style="fill: none;" fill="none"></path></g><g><path stroke="rgb(204, 51, 17)" stroke-width="2px" d="M30.516750000000002,88.5L31.85325,88.5L33.189750000000004,88.5L34.52625,88.5L37.19925,88.5L38.53575,88.5L39.87225,88.5L41.208749999999995,88.5L42.545249999999996,88.5L43.88175,88.5L45.21825,88.5L46.55475,88.5L47.89125,88.5L49.22775,88.5L50.56425,88.5L51.90075,88.5L53.23725,88.5L54.573750000000004,88.5L55.910250000000005,88.5L57.24675,88.5L58.58325,88.5L59.91975,88.5L61.25625,88.5L62.59275,88.5L63.929249999999996,88.5L65.26575,88.5L66.60225,88.5L67.93875,88.5L69.27525,88.5L70.61175,88.5L71.94825,88.5L73.28475,88.5L74.62125,88.5L75.95774999999999,88.5L77.29425,88.5L78.63074999999999,88.5L79.96725,88.5L81.30375,88.5L82.64025000000001,88.5L83.97675,88.5L85.31325,88.5L86.64975,88.5L87.98625,88.5L89.32275,88.5L90.65925,88.5L91.99575,88.5L93.33225,88.5L94.66875,88.5L96.00525,88.5L97.34175,88.5L98.67824999999999,88.5L100.01475,88.5L101.35125,88.5L102.68775000000001,88.5L104.02425,88.5L105.36075000000001,88.5L106.69725,88.5L108.03375,88.5L109.37025,88.5L110.70675,88.5L112.04325,88.5L113.37975,88.5L114.71624999999999,88.5L116.05275,88.5L117.38924999999999,88.5L118.72575,88.5L120.06225,88.5L121.39874999999999,88.5L122.73525000000001,88.5L124.07175,88.5L125.40825000000001,88.5L126.74475,88.5L128.08125,88.5L129.41774999999998,88.5L130.75425,88.5L133.42725000000002,88.5L134.76375,88.5L136.10025000000002,88.5L137.43675,88.5L138.77325,88.5L140.10975,88.5L141.44625,88.5L142.78275000000002,88.5L144.11925,88.5L145.45575,88.5L146.79225,88.5L148.12875,88.5L149.46525000000003,88.5L150.80175,88.5L152.13825,88.5L153.47475,88.5L154.81125,88.5L156.14775,88.5L157.48425,88.5L158.82075,88.5L160.15725,88.5L161.49374999999998,88.5" style="fill: none;" fill="none"></path></g></g></g></g></g></g><g transform="translate(51, 177)" clip-path="url(#clip_1)"><clipPath id="clip_1"><rect width="278" height="23"></rect></clipPath><g><g><line x1="0" y1="0" x2="0" y2="5" style="visibility: inherit;" fill="rgb(0, 0, 0)" stroke="rgb(204, 204, 204)" stroke-width="1px"></line><line x1="27.84375" y1="0" x2="27.84375" y2="5" style="visibility: inherit;" fill="rgb(0, 0, 0)" stroke="rgb(204, 204, 204)" stroke-width="1px"></line><line x1="55.6875" y1="0" x2="55.6875" y2="5" style="visibility: inherit;" fill="rgb(0, 0, 0)" stroke="rgb(204, 204, 204)" stroke-width="1px"></line><line x1="83.53125" y1="0" x2="83.53125" y2="5" style="visibility: inherit;" fill="rgb(0, 0, 0)" stroke="rgb(204, 204, 204)" stroke-width="1px"></line><line x1="111.375" y1="0" x2="111.375" y2="5" style="visibility: inherit;" fill="rgb(0, 0, 0)" stroke="rgb(204, 204, 204)" stroke-width="1px"></line><line x1="139.21875" y1="0" x2="139.21875" y2="5" style="visibility: inherit;" fill="rgb(0, 0, 0)" stroke="rgb(204, 204, 204)" stroke-width="1px"></line><line x1="167.0625" y1="0" x2="167.0625" y2="5" style="visibility: inherit;" fill="rgb(0, 0, 0)" stroke="rgb(204, 204, 204)" stroke-width="1px"></line><line x1="194.90625" y1="0" x2="194.90625" y2="5" style="visibility: inherit;" fill="rgb(0, 0, 0)" stroke="rgb(204, 204, 204)" stroke-width="1px"></line><line x1="222.75" y1="0" x2="222.75" y2="5" style="visibility: inherit;" fill="rgb(0, 0, 0)" stroke="rgb(204, 204, 204)" stroke-width="1px"></line><line x1="250.59375" y1="0" x2="250.59375" y2="5" style="visibility: inherit;" fill="rgb(0, 0, 0)" stroke="rgb(204, 204, 204)" stroke-width="1px"></line><line x1="278.4375" y1="0" x2="278.4375" y2="5" style="visibility: inherit;" fill="rgb(0, 0, 0)" stroke="rgb(204, 204, 204)" stroke-width="1px"></line></g><g transform="translate(0, 8)"><text x="0" y="0" dx="0em" dy="0.95em" style="text-anchor: middle; visibility: hidden; font-family: Roboto, sans-serif; font-size: 12px; font-weight: 200;" fill="rgb(33, 33, 33)" stroke="none" stroke-width="1px">-500k</text><text x="27.84375" y="0" dx="0em" dy="0.95em" style="text-anchor: middle; visibility: inherit; font-family: Roboto, sans-serif; font-size: 12px; font-weight: 200;" fill="rgb(33, 33, 33)" stroke="none" stroke-width="1px">0</text><text x="55.6875" y="0" dx="0em" dy="0.95em" style="text-anchor: middle; visibility: inherit; font-family: Roboto, sans-serif; font-size: 12px; font-weight: 200;" fill="rgb(33, 33, 33)" stroke="none" stroke-width="1px">500k</text><text x="83.53125" y="0" dx="0em" dy="0.95em" style="text-anchor: middle; visibility: inherit; font-family: Roboto, sans-serif; font-size: 12px; font-weight: 200;" fill="rgb(33, 33, 33)" stroke="none" stroke-width="1px">1M</text><text x="111.375" y="0" dx="0em" dy="0.95em" style="text-anchor: middle; visibility: inherit; font-family: Roboto, sans-serif; font-size: 12px; font-weight: 200;" fill="rgb(33, 33, 33)" stroke="none" stroke-width="1px">1.5M</text><text x="139.21875" y="0" dx="0em" dy="0.95em" style="text-anchor: middle; visibility: inherit; font-family: Roboto, sans-serif; font-size: 12px; font-weight: 200;" fill="rgb(33, 33, 33)" stroke="none" stroke-width="1px">2M</text><text x="167.0625" y="0" dx="0em" dy="0.95em" style="text-anchor: middle; visibility: inherit; font-family: Roboto, sans-serif; font-size: 12px; font-weight: 200;" fill="rgb(33, 33, 33)" stroke="none" stroke-width="1px">2.5M</text><text x="194.90625" y="0" dx="0em" dy="0.95em" style="text-anchor: middle; visibility: inherit; font-family: Roboto, sans-serif; font-size: 12px; font-weight: 200;" fill="rgb(33, 33, 33)" stroke="none" stroke-width="1px">3M</text><text x="222.75" y="0" dx="0em" dy="0.95em" style="text-anchor: middle; visibility: inherit; font-family: Roboto, sans-serif; font-size: 12px; font-weight: 200;" fill="rgb(33, 33, 33)" stroke="none" stroke-width="1px">3.5M</text><text x="250.59375" y="0" dx="0em" dy="0.95em" style="text-anchor: middle; visibility: inherit; font-family: Roboto, sans-serif; font-size: 12px; font-weight: 200;" fill="rgb(33, 33, 33)" stroke="none" stroke-width="1px">4M</text><text x="278.4375" y="0" dx="0em" dy="0.95em" style="text-anchor: middle; visibility: hidden; font-family: Roboto, sans-serif; font-size: 12px; font-weight: 200;" fill="rgb(33, 33, 33)" stroke="none" stroke-width="1px">4.5M</text></g><line x1="0" y1="0" x2="278.4375" y2="0" fill="rgb(0, 0, 0)" stroke="rgb(204, 204, 204)" stroke-width="1px"></line></g></g></g></g></svg>