<svg viewBox="0 0 330 200" xmlns="http://www.w3.org/2000/svg"><g><g><g><g><g><line x1="51.5625" y1="177" x2="46.5625" y2="177" style="visibility: inherit;" fill="rgb(0, 0, 0)" stroke="rgb(204, 204, 204)" stroke-width="1px"></line><line x1="51.5625" y1="157.33333333333334" x2="46.5625" y2="157.33333333333334" style="visibility: inherit;" fill="rgb(0, 0, 0)" stroke="rgb(204, 204, 204)" stroke-width="1px"></line><line x1="51.5625" y1="137.66666666666666" x2="46.5625" y2="137.66666666666666" style="visibility: inherit;" fill="rgb(0, 0, 0)" stroke="rgb(204, 204, 204)" stroke-width="1px"></line><line x1="51.5625" y1="118.00000000000001" x2="46.5625" y2="118.00000000000001" style="visibility: inherit;" fill="rgb(0, 0, 0)" stroke="rgb(204, 204, 204)" stroke-width="1px"></line><line x1="51.5625" y1="98.33333333333336" x2="46.5625" y2="98.33333333333336" style="visibility: inherit;" fill="rgb(0, 0, 0)" stroke="rgb(204, 204, 204)" stroke-width="1px"></line><line x1="51.5625" y1="78.66666666666669" x2="46.5625" y2="78.66666666666669" style="visibility: inherit;" fill="rgb(0, 0, 0)" stroke="rgb(204, 204, 204)" stroke-width="1px"></line><line x1="51.5625" y1="58.999999999999986" x2="46.5625" y2="58.999999999999986" style="visibility: inherit;" fill="rgb(0, 0, 0)" stroke="rgb(204, 204, 204)" stroke-width="1px"></line><line x1="51.5625" y1="39.33333333333337" x2="46.5625" y2="39.33333333333337" style="visibility: inherit;" fill="rgb(0, 0, 0)" stroke="rgb(204, 204, 204)" stroke-width="1px"></line><line x1="51.5625" y1="19.666666666666675" x2="46.5625" y2="19.666666666666675" style="visibility: inherit;" fill="rgb(0, 0, 0)" stroke="rgb(204, 204, 204)" stroke-width="1px"></line><line x1="51.5625" y1="0" x2="46.5625" y2="0" style="visibility: inherit;" fill="rgb(0, 0, 0)" stroke="rgb(204, 204, 204)" stroke-width="1px"></line></g><g transform="translate(41.5625, 0)"><text x="0" y="177" dx="0em" dy="0.3em" style="text-anchor: end; visibility: hidden; font-family: Roboto, sans-serif; font-size: 12px; font-weight: 200;" fill="rgb(33, 33, 33)" stroke="none" stroke-width="1px">0.08</text><text x="0" y="157.33333333333334" dx="0em" dy="0.3em" style="text-anchor: end; visibility: inherit; font-family: Roboto, sans-serif; font-size: 12px; font-weight: 200;" fill="rgb(33, 33, 33)" stroke="none" stroke-width="1px">0.09</text><text x="0" y="137.66666666666666" dx="0em" dy="0.3em" style="text-anchor: end; visibility: hidden; font-family: Roboto, sans-serif; font-size: 12px; font-weight: 200;" fill="rgb(33, 33, 33)" stroke="none" stroke-width="1px">0.1</text><text x="0" y="118.00000000000001" dx="0em" dy="0.3em" style="text-anchor: end; visibility: inherit; font-family: Roboto, sans-serif; font-size: 12px; font-weight: 200;" fill="rgb(33, 33, 33)" stroke="none" stroke-width="1px">0.11</text><text x="0" y="98.33333333333336" dx="0em" dy="0.3em" style="text-anchor: end; visibility: hidden; font-family: Roboto, sans-serif; font-size: 12px; font-weight: 200;" fill="rgb(33, 33, 33)" stroke="none" stroke-width="1px">0.12</text><text x="0" y="78.66666666666669" dx="0em" dy="0.3em" style="text-anchor: end; visibility: inherit; font-family: Roboto, sans-serif; font-size: 12px; font-weight: 200;" fill="rgb(33, 33, 33)" stroke="none" stroke-width="1px">0.13</text><text x="0" y="58.999999999999986" dx="0em" dy="0.3em" style="text-anchor: end; visibility: hidden; font-family: Roboto, sans-serif; font-size: 12px; font-weight: 200;" fill="rgb(33, 33, 33)" stroke="none" stroke-width="1px">0.14</text><text x="0" y="39.33333333333337" dx="0em" dy="0.3em" style="text-anchor: end; visibility: inherit; font-family: Roboto, sans-serif; font-size: 12px; font-weight: 200;" fill="rgb(33, 33, 33)" stroke="none" stroke-width="1px">0.15</text><text x="0" y="19.666666666666675" dx="0em" dy="0.3em" style="text-anchor: end; visibility: hidden; font-family: Roboto, sans-serif; font-size: 12px; font-weight: 200;" fill="rgb(33, 33, 33)" stroke="none" stroke-width="1px">0.16</text><text x="0" y="0" dx="0em" dy="0.3em" style="text-anchor: end; visibility: hidden; font-family: Roboto, sans-serif; font-size: 12px; font-weight: 200;" fill="rgb(33, 33, 33)" stroke="none" stroke-width="1px">0.17</text></g><line x1="51.5625" y1="0" x2="51.5625" y2="177" fill="rgb(0, 0, 0)" stroke="rgb(204, 204, 204)" stroke-width="1px"></line></g></g><g transform="translate(51, 0)" clip-path="url(#clip_0)"><clipPath id="clip_0"><rect width="278" height="177"></rect></clipPath><g><g><g><line x1="0" y1="0" x2="0" y2="177" fill="rgb(0, 0, 0)" stroke="rgb(66, 66, 66)" stroke-width="1px" opacity="0.25"></line><line x1="27.84375" y1="0" x2="27.84375" y2="177" fill="rgb(0, 0, 0)" stroke="rgb(66, 66, 66)" stroke-width="1px" opacity="0.25"></line><line x1="55.6875" y1="0" x2="55.6875" y2="177" fill="rgb(0, 0, 0)" stroke="rgb(66, 66, 66)" stroke-width="1px" opacity="0.25"></line><line x1="83.53125" y1="0" x2="83.53125" y2="177" fill="rgb(0, 0, 0)" stroke="rgb(66, 66, 66)" stroke-width="1px" opacity="0.25"></line><line x1="111.375" y1="0" x2="111.375" y2="177" fill="rgb(0, 0, 0)" stroke="rgb(66, 66, 66)" stroke-width="1px" opacity="0.25"></line><line x1="139.21875" y1="0" x2="139.21875" y2="177" fill="rgb(0, 0, 0)" stroke="rgb(66, 66, 66)" stroke-width="1px" opacity="0.25"></line><line x1="167.0625" y1="0" x2="167.0625" y2="177" fill="rgb(0, 0, 0)" stroke="rgb(66, 66, 66)" stroke-width="1px" opacity="0.25"></line><line x1="194.90625" y1="0" x2="194.90625" y2="177" fill="rgb(0, 0, 0)" stroke="rgb(66, 66, 66)" stroke-width="1px" opacity="0.25"></line><line x1="222.75" y1="0" x2="222.75" y2="177" fill="rgb(0, 0, 0)" stroke="rgb(66, 66, 66)" stroke-width="1px" opacity="0.25"></line><line x1="250.59375" y1="0" x2="250.59375" y2="177" fill="rgb(0, 0, 0)" stroke="rgb(66, 66, 66)" stroke-width="1px" opacity="0.25"></line><line x1="278.4375" y1="0" x2="278.4375" y2="177" fill="rgb(0, 0, 0)" stroke="rgb(66, 66, 66)" stroke-width="1px" opacity="0.25"></line></g><g><line x1="0" y1="177" x2="278.4375" y2="177" fill="rgb(0, 0, 0)" stroke="rgb(66, 66, 66)" stroke-width="1px" opacity="0.25"></line><line x1="0" y1="157.33333333333334" x2="278.4375" y2="157.33333333333334" fill="rgb(0, 0, 0)" stroke="rgb(66, 66, 66)" stroke-width="1px" opacity="0.25"></line><line x1="0" y1="137.66666666666666" x2="278.4375" y2="137.66666666666666" fill="rgb(0, 0, 0)" stroke="rgb(66, 66, 66)" stroke-width="1px" opacity="0.25"></line><line x1="0" y1="118.00000000000001" x2="278.4375" y2="118.00000000000001" fill="rgb(0, 0, 0)" stroke="rgb(66, 66, 66)" stroke-width="1px" opacity="0.25"></line><line x1="0" y1="98.33333333333336" x2="278.4375" y2="98.33333333333336" fill="rgb(0, 0, 0)" stroke="rgb(66, 66, 66)" stroke-width="1px" opacity="0.25"></line><line x1="0" y1="78.66666666666669" x2="278.4375" y2="78.66666666666669" fill="rgb(0, 0, 0)" stroke="rgb(66, 66, 66)" stroke-width="1px" opacity="0.25"></line><line x1="0" y1="58.999999999999986" x2="278.4375" y2="58.999999999999986" fill="rgb(0, 0, 0)" stroke="rgb(66, 66, 66)" stroke-width="1px" opacity="0.25"></line><line x1="0" y1="39.33333333333337" x2="278.4375" y2="39.33333333333337" fill="rgb(0, 0, 0)" stroke="rgb(66, 66, 66)" stroke-width="1px" opacity="0.25"></line><line x1="0" y1="19.666666666666675" x2="278.4375" y2="19.666666666666675" fill="rgb(0, 0, 0)" stroke="rgb(66, 66, 66)" stroke-width="1px" opacity="0.25"></line><line x1="0" y1="0" x2="278.4375" y2="0" fill="rgb(0, 0, 0)" stroke="rgb(66, 66, 66)" stroke-width="1px" opacity="0.25"></line></g></g></g><g><g><line x1="0" y1="334.3333333333333" x2="278.4375" y2="334.3333333333333" fill="rgb(0, 0, 0)" stroke="rgb(153, 153, 153)" stroke-width="1.5px"></line></g></g><g><g><line x1="27.84375" y1="0" x2="27.84375" y2="177" fill="rgb(0, 0, 0)" stroke="rgb(153, 153, 153)" stroke-width="1.5px"></line></g></g><g><g><g><g><g><path stroke="rgb(51, 187, 238)" stroke-width="2px" d="M30.516750000000002,115.91861368219055L31.85325,96.17511728530127L33.189750000000004,48.1848341325919L34.52625,17.3194135315352L35.86275,-1.7363565760975974L41.208749999999995,-1.649167294150828L42.545249999999996,18.279783452860265L43.88175,19.691881667503075L45.21825,35.06837701768606L46.55475,42.19199869714188L47.89125,41.69714226701938L49.22775,43.61730501096563L50.56425,42.8966757141928L51.90075,18.476873734823464L53.23725,12.622807186089192L54.573750000000004,14.106382174762404L55.910250000000005,19.598639277260123L57.24675,16.71840304324036L58.58325,14.239681231352204L59.91975,23.41515581464139L61.25625,37.996609507707696L62.59275,28.593052994522772L63.929249999999996,16.25114493976438L65.26575,35.79920252603128L66.60225,43.50618925776047L67.93875,39.90315148248999L69.27525,53.281281247994585L70.61175,59.80365352635698L71.94825,63.64824330095262L73.28475,53.00450424757811L74.62125,63.07597962708968L75.95774999999999,47.19709054169087L77.29425,64.3246404678173L78.63074999999999,78.72789354598605L79.96725,39.38318088232764L81.30375,56.78134718586459L82.64025000000001,56.43963648660667L83.97675,71.44350439192438L85.31325,77.76131924624244L86.64975,65.22540346797945L87.98625,63.52190987249495L89.32275,35.72692878740367L90.65925,42.5122632887066L91.99575,75.4279160932759L93.33225,84.15414060191392L94.66875,70.22143460713586L96.00525,70.60364139916466L97.34175,84.71107413482734L98.67824999999999,75.72464840078958L100.01475,74.54145467558064L101.35125,74.52643323110672L102.68775000000001,77.51658065418869L104.02425,82.94572612027808L105.36075000000001,82.18793359029569L106.69725,67.81909178074962L108.03375,73.3381220164508L109.37025,54.9473709779538L110.70675,55.011473297132454L112.04325,52.83744265976751L113.37975,70.98663207497142L114.71624999999999,63.943429116046055L116.05275,70.70133465347826L117.38924999999999,61.985850583422966L118.72575,83.05417829210096L120.06225,50.8289551583203L121.39874999999999,57.94221096717951L122.73525000000001,80.91971435636458L124.07175,92.53305249903705L125.40825000000001,91.93594515816834L126.74475,110.56256865161538L128.08125,125.5702638945851L129.41774999999998,127.12121421427764L130.75425,123.48911669849103L132.09074999999999,122.59474538365251L133.42725000000002,117.97729198097734L134.76375,103.04626660322874L136.10025000000002,103.73742839162985L137.43675,87.63867988863849L138.77325,90.42187485305028L140.10975,104.92757002835013L141.44625,100.67720693940645L142.78275000000002,106.10510337309871L144.11925,111.70872882181506L145.45575,110.28207321469449L146.79225,102.05763375861127L148.12875,83.45463689229496L149.46525000000003,110.90178179777624L150.80175,122.53534526846985L152.13825,84.11825753384143L153.47475,87.30006637851385L154.81125,95.99087588000292L156.14775,107.79696851576166L157.48425,78.11379699074106L158.82075,107.33016639250243L160.15725,108.36948875564967L161.49374999999998,119.03619331903438L162.83025,137.92127049041102L164.16675,134.87598333799227L165.50325,136.37247829463115L166.83974999999998,131.24909666871648L168.17624999999998,140.71256745872273L169.51275,139.75315040161635L170.84925,139.43316823131102L172.18574999999998,134.83912358613566L173.52224999999999,125.65497273563399L174.85875000000001,127.72598601396315L176.19525000000002,138.62492373197537L177.53175,133.90839742387888L178.86825,156.02237370073135L180.20475,156.44514630512003L181.54125000000002,154.5485864139136L182.87775000000002,114.74270938574489L184.21425,127.78334627194732L185.55075,146.20806241220356L186.88725,153.64422864627514L188.22375000000002,144.8178121303221L189.56025,160.00480087129478L190.89675,169.65454704877655L192.23325,174.52661902497366L193.56975,169.44224888954653L194.90625,152.6479019852922L196.24275,154.12218484475883L197.57925,150.93575305061344L198.91575,136.94856137226108L200.25224999999998,129.35930232717644L201.58875,137.23836186238557L202.92525,136.9049050810442L204.26175,127.37627872640921L205.59824999999998,132.85271155525268L206.93474999999998,134.06373942905083L208.27125,123.78685304927876L209.60775,138.2608900074644L210.94425,141.49436777856846L212.28074999999998,139.2716736000393L213.61724999999998,151.38350348482217L214.95375,147.95521170780867L216.29025000000001,143.57429535122202L217.62675,144.92496771572922L218.96325,148.59358898972806L220.29975000000002,116.59115630095407L221.63625000000002,129.81347238047044L222.97275,140.44774974797045L224.30925,114.9256998464299L225.64575,107.64302952477331L226.98225000000002,116.20426122778056L228.31875,92.70305896858413L229.65525,107.35828089153789L230.99175,131.304580796377L232.32825,131.60413481908014L233.66475,149.31997920344457L235.00125,162.04726395569355L236.33775,149.59413614806797L237.67425,153.3519257362918L239.01075,129.86948643065907L240.34725,136.54474636676358L241.68375,132.02768237250513L243.02025,135.82383017653706L244.35675,140.1501338774829L245.69324999999998,126.87491411933516L247.02975,128.57594698053128L248.36625,122.66407096414682L249.70275,142.6743300638333L251.03924999999998,145.01759717554262L252.37574999999998,164.72011500809836L253.71225,169.53373834419796L255.04875,184.19569014864294L257.72175,188.78068047770427L259.05825,160.32418409193693L260.39475,177.77512230399336" style="fill: none;" fill="none"></path></g><g><path stroke="rgb(204, 51, 17)" stroke-width="2px" d="M30.516750000000002,114.95986576875052L31.85325,110.41706470524274L33.189750000000004,146.3529458062179L34.52625,161.17140894215188L37.19925,163.217266983093L38.53575,166.69658234509387L39.87225,146.6468507443372L41.208749999999995,126.91462870101321L42.545249999999996,119.1867859971144L43.88175,133.9083678590904L45.21825,113.00105729050158L46.55475,112.44275061374071L47.89125,134.649763697894L49.22775,130.11686003926434L50.56425,144.91424045888797L51.90075,130.00122670808696L53.23725,150.2758914803295L54.573750000000004,152.73856264971548L55.910250000000005,151.54117722503713L57.24675,152.94031227931873L58.58325,169.64455197900253L59.91975,140.7656863909007L61.25625,122.05537426251175L62.59275,124.7926829726624L63.929249999999996,116.02153131388337L65.26575,116.68836566128218L66.60225,106.17017785831078L67.93875,94.10676933083516L69.27525,102.33984390713064L70.61175,110.4492950316105L71.94825,118.61569180782776L73.28475,115.40630091732548L74.62125,124.65789388194374L75.95774999999999,110.48973798634734L77.29425,125.06112221424448L78.63074999999999,145.0631180136855L79.96725,142.20286835228285L81.30375,116.91622243667871L82.64025000000001,116.336902499966L83.97675,105.64463871923647L85.31325,103.36256227036607L86.64975,115.81242700107171L87.98625,123.02340140364521L89.32275,126.72393014746613L90.65925,105.05580298705796L91.99575,115.71392569968359L93.33225,113.28174234239651L94.66875,84.02688100754138L96.00525,80.72901343590898L97.34175,90.05535079618012L98.67824999999999,95.72326847464437L100.01475,121.65873739657756L101.35125,114.40340970477958L102.68775000000001,126.11787920310236L104.02425,112.78828284608957L105.36075000000001,110.51024883270757L106.69725,126.39764966536225L108.03375,122.01592387339606L109.37025,123.86432951041755L110.70675,107.5192111493065L112.04325,118.58502482340248L113.37975,109.86812354504362L114.71624999999999,102.51726421939898L116.05275,82.8585261735969L117.38924999999999,75.9930625180594L118.72575,78.03600535910479L120.06225,62.577884019143276L121.39874999999999,79.67273290598008L122.73525000000001,77.98869347359903L124.07175,66.94827000172631L125.40825000000001,86.77896420481818L126.74475,108.23537841035734L128.08125,108.79133760090954L129.41774999999998,92.95236219856913L130.75425,63.22835910654336L133.42725000000002,72.29468500019871L134.76375,86.34192122659144L136.10025000000002,83.74053719227149L137.43675,94.46810293148737L138.77325,82.87358783851532L140.10975,80.95153689684747L141.44625,95.20714700799552L142.78275000000002,108.18223248669325L144.11925,81.27856485892627L145.45575,98.41564126918293L146.79225,115.84671691324061L148.12875,92.73108911076632L149.46525000000003,108.54526640311548L150.80175,103.44110525847874L152.13825,100.33927457253974L153.47475,100.0515068216374L154.81125,128.75279144703848L156.14775,105.47334603623251L157.48425,105.806620614662L158.82075,98.4218110662307L160.15725,124.84464087615045L161.49374999999998,146.99823172408125" style="fill: none;" fill="none"></path></g></g></g></g><g opacity="0.2"><g><g><g><path stroke="rgb(51, 187, 238)" stroke-width="2px" d="M30.516750000000002,115.9186136821906L31.85325,84.32901944716774L33.189750000000004,2.114162305990883L34.52625,-18.978321095307646L39.87225,-1.3111075162887442L41.208749999999995,31.40931721528373L42.545249999999996,47.87195271253589L43.88175,21.79722136259081L45.21825,58.04944183429084L46.55475,52.85417135556541L47.89125,40.95582709709805L49.22775,46.49529204765957L50.56425,41.81624001264575L51.90075,-18.14249559243518L53.23725,3.843193709850331L54.573750000000004,16.331518650054953L55.910250000000005,27.836522916952784L57.24675,12.398206651210804L58.58325,10.521680076917036L59.91975,37.178186535835295L61.25625,59.86861731608711L62.59275,14.48778506120049L63.929249999999996,-2.261664509773241L65.26575,65.12123888731006L66.60225,55.06665752331417L67.93875,34.498598138491325L69.27525,73.34846850236258L70.61175,69.58720978101097L71.94825,69.41512719790141L73.28475,37.03889693816505L74.62125,78.18319197495781L75.95774999999999,23.378757596015955L77.29425,90.01596491535506L78.63074999999999,100.33277294039726L79.96725,-19.633887747923502L81.30375,82.87859654426576L82.64025000000001,55.92707043886187L83.97675,93.94930621981624L85.31325,87.23804152011871L86.64975,46.42152980963391L87.98625,60.96666948000591L89.32275,-5.965542833010325L90.65925,52.69026503960293L91.99575,124.80139529705048L93.33225,97.24347736438116L94.66875,49.322375615437835L96.00525,71.17695158720016L97.34175,105.8722232381503L98.67824999999999,62.24500979979835L100.01475,72.76666408777238L101.35125,74.5039010643959L102.68775000000001,82.00180178880692L104.02425,91.08944431940716L105.36075000000001,81.05124479532242L106.69725,46.26582906643551L108.03375,81.6166673700015L109.37025,27.361244420210536L110.70675,55.10762677590054L112.04325,49.57639670372011L113.37975,98.21041619777681L114.71624999999999,53.378624677658095L116.05275,80.83819295962653L117.38924999999999,48.91262447834017L118.72575,114.6566698551178L120.06225,2.491120457649264L121.39874999999999,68.61209468046826L122.73525000000001,115.38596944014233L124.07175,109.95305971304576L125.40825000000001,91.04028414686523L126.74475,138.50250389178595L128.08125,148.08180675903955L129.41774999999998,129.4476396938165L130.75425,118.04097042481105L132.09074999999999,121.25318841139476L133.42725000000002,111.05111187696458L134.76375,80.64972853660585L136.10025000000002,104.77417107423149L137.43675,63.49055713415147L138.77325,94.59666729966801L140.10975,126.68611279129983L141.44625,94.30166230599087L142.78275000000002,114.24694802363715L144.11925,120.1141669948896L145.45575,108.14208980401358L146.79225,89.72097457448643L148.12875,55.5501415928205L149.46525000000003,152.07249915599823L150.80175,139.9856904745102L152.13825,26.492625931898782L153.47475,92.07277964552244L154.81125,109.0270901322365L156.14775,125.50610746939978L157.48425,33.58903970321022L158.82075,151.15472049514455L160.15725,109.92847230037054L161.49374999999998,135.03625016411146L162.83025,166.24888624747595L164.16675,130.3080526093642L165.50325,138.61722072958946L166.83974999999998,123.56402422984443L168.17624999999998,154.90777364373207L169.51275,138.31402481595677L170.84925,138.95319497585297L172.18574999999998,127.94805661837259L173.52224999999999,111.87874645988148L174.85875000000001,130.8325059314569L176.19525000000002,154.97333030899367L177.53175,126.83360796173416L178.86825,189.19333811601004L180.20475,157.07930521170297L181.54125000000002,151.70374657710394L182.87775000000002,55.03389384349188L184.21425,147.34430160125098L185.55075,173.84513662258783L186.88725,164.7984779973825L188.22375000000002,131.57818735639253L189.56025,182.78528398275375L192.23325,181.83472698926926L193.56975,161.8156936864058L194.90625,127.45638162891072L196.24275,156.33360913395882L197.57925,146.15610535939535L198.91575,115.96777385473251L200.25224999999998,117.97541375954948L201.58875,149.05695116519928L202.92525,136.4047199090322L204.26175,113.08333919445676L205.59824999999998,141.06736079851785L206.93474999999998,135.880281239748L208.27125,108.37152347962063L209.60775,159.97194544474283L210.94425,146.34458443522453L212.28074999999998,135.93763233224553L213.61724999999998,169.55124831199646L214.95375,142.81277404228845L216.29025000000001,137.00292081634205L217.62675,146.95097626248995L218.96325,154.09652090072632L220.29975000000002,68.58750726779303L221.63625000000002,149.64694649974504L222.97275,156.3991657992204L224.30925,76.64262499411903L225.64575,96.71902404228848L226.98225000000002,129.0461087822914L228.31875,57.451255579789496L229.65525,129.34111377596855L230.99175,167.22403065363565L232.32825,132.05346585313478L233.66475,175.89374577999115L235.00125,181.13819108406705L236.33775,130.91444443662962L237.67425,158.98861011862755L239.01075,94.64582747220994L240.34725,146.55763627092043L241.68375,125.25208638111752L243.02025,141.5180518825849L244.35675,146.63958942890167L245.69324999999998,106.96208448211354L247.02975,131.12749627232552L248.36625,113.79625693957013L249.70275,172.68971871336302L251.03924999999998,148.5324978431066L252.37574999999998,194.27389175693193L253.71225,176.75417334834734L255.04875,206.18861785531044L257.72175,197.96957916021347L259.05825,117.63943951328596L260.39475,203.95152962207794" style="fill: none;" fill="none"></path></g><g><path stroke="rgb(204, 51, 17)" stroke-width="2px" d="M30.516750000000002,114.95986576875052L31.85325,107.69138406713806L33.189750000000004,180.85139166315398L34.52625,178.59792159001032L37.19925,165.88833924134573L38.53575,171.50972804427147L39.87225,117.97541375954948L41.208749999999995,98.14485953251523L42.545249999999996,107.78971906503043L43.88175,155.76820121208826L45.21825,81.8297192056974L46.55475,111.60832887887955L47.89125,167.8877735733986L49.22775,123.32638498147331L50.56425,167.0929173231125L51.90075,107.6422238945961L53.23725,180.67930908004442L54.573750000000004,156.4319441318512L55.910250000000005,149.74528149763742L57.24675,155.03888697425523L58.58325,194.69999542832375L59.91975,97.4483382801215L61.25625,93.99027547240259L62.59275,128.8986136118571L63.929249999999996,102.86486616730693L65.26575,117.6886143386364L66.60225,90.39292306701343L67.93875,76.0116750597954L69.27525,114.68944818774861L70.61175,122.61346723635994L71.94825,130.86528426408768L73.28475,110.59221522013348L74.62125,138.53528222441673L75.95774999999999,89.2375051577886L77.29425,146.91819792985916L78.63074999999999,175.06611119707426L79.96725,137.91249390443167L81.30375,78.98625379800798L82.64025000000001,115.46792259812355L83.97675,89.6062430838744L85.31325,99.93944760163626L86.64975,134.48722408215207L87.98625,133.83986300230026L89.32275,132.27472326159477L90.65925,72.55361225207649L91.99575,131.70110976696014L93.33225,109.6334673066934L94.66875,40.144589006900816L96.00525,75.78221207857133L97.34175,104.04485683639845L98.67824999999999,104.22514499227208L100.01475,160.56194077928862L101.35125,103.52041816711429L102.68775000000001,143.6895834505558L104.02425,92.7938883105914L105.36075000000001,107.09319781263672L106.69725,150.22875091433525L108.03375,115.44333518544835L109.37025,126.63693796594939L110.70675,83.00153360764187L112.04325,135.18374533454576L113.37975,96.79277162750563L114.71624999999999,91.49097523093225L116.05275,53.37041910489401L117.38924999999999,65.69486703475319L118.72575,81.10041962067288L120.06225,39.39070200920107L121.39874999999999,105.3150062362353L122.73525000000001,75.46263432502747L124.07175,50.38763479391735L125.40825000000001,116.52500550945601L126.74475,140.41999971866608L128.08125,109.62527638673784L129.41774999999998,69.19389909505846L130.75425,18.642354468504617L133.42725000000002,85.89417384068173L134.76375,107.41277556618056L136.10025000000002,79.8384611407916L137.43675,110.55945154031119L138.77325,65.48181519905727L140.10975,78.06846048434578L141.44625,116.59056217471758L142.78275000000002,127.6448607047399L144.11925,40.92306341727576L145.45575,124.12125588456792L146.79225,141.99333037932715L148.12875,58.05764740705492L149.46525000000003,132.26653234163922L150.80175,95.78486354152363L152.13825,95.68652854363124L153.47475,99.61985519528389L154.81125,171.8047183851401L156.14775,70.55417792002362L157.48425,106.30653248230618L158.82075,87.34459674358368L160.15725,164.47888559103012L161.49374999999998,180.2286179959774" style="fill: none;" fill="none"></path></g></g></g></g></g></g><g transform="translate(51, 177)" clip-path="url(#clip_1)"><clipPath id="clip_1"><rect width="278" height="23"></rect></clipPath><g><g><line x1="0" y1="0" x2="0" y2="5" style="visibility: inherit;" fill="rgb(0, 0, 0)" stroke="rgb(204, 204, 204)" stroke-width="1px"></line><line x1="27.84375" y1="0" x2="27.84375" y2="5" style="visibility: inherit;" fill="rgb(0, 0, 0)" stroke="rgb(204, 204, 204)" stroke-width="1px"></line><line x1="55.6875" y1="0" x2="55.6875" y2="5" style="visibility: inherit;" fill="rgb(0, 0, 0)" stroke="rgb(204, 204, 204)" stroke-width="1px"></line><line x1="83.53125" y1="0" x2="83.53125" y2="5" style="visibility: inherit;" fill="rgb(0, 0, 0)" stroke="rgb(204, 204, 204)" stroke-width="1px"></line><line x1="111.375" y1="0" x2="111.375" y2="5" style="visibility: inherit;" fill="rgb(0, 0, 0)" stroke="rgb(204, 204, 204)" stroke-width="1px"></line><line x1="139.21875" y1="0" x2="139.21875" y2="5" style="visibility: inherit;" fill="rgb(0, 0, 0)" stroke="rgb(204, 204, 204)" stroke-width="1px"></line><line x1="167.0625" y1="0" x2="167.0625" y2="5" style="visibility: inherit;" fill="rgb(0, 0, 0)" stroke="rgb(204, 204, 204)" stroke-width="1px"></line><line x1="194.90625" y1="0" x2="194.90625" y2="5" style="visibility: inherit;" fill="rgb(0, 0, 0)" stroke="rgb(204, 204, 204)" stroke-width="1px"></line><line x1="222.75" y1="0" x2="222.75" y2="5" style="visibility: inherit;" fill="rgb(0, 0, 0)" stroke="rgb(204, 204, 204)" stroke-width="1px"></line><line x1="250.59375" y1="0" x2="250.59375" y2="5" style="visibility: inherit;" fill="rgb(0, 0, 0)" stroke="rgb(204, 204, 204)" stroke-width="1px"></line><line x1="278.4375" y1="0" x2="278.4375" y2="5" style="visibility: inherit;" fill="rgb(0, 0, 0)" stroke="rgb(204, 204, 204)" stroke-width="1px"></line></g><g transform="translate(0, 8)"><text x="0" y="0" dx="0em" dy="0.95em" style="text-anchor: middle; visibility: hidden; font-family: Roboto, sans-serif; font-size: 12px; font-weight: 200;" fill="rgb(33, 33, 33)" stroke="none" stroke-width="1px">-500k</text><text x="27.84375" y="0" dx="0em" dy="0.95em" style="text-anchor: middle; visibility: inherit; font-family: Roboto, sans-serif; font-size: 12px; font-weight: 200;" fill="rgb(33, 33, 33)" stroke="none" stroke-width="1px">0</text><text x="55.6875" y="0" dx="0em" dy="0.95em" style="text-anchor: middle; visibility: inherit; font-family: Roboto, sans-serif; font-size: 12px; font-weight: 200;" fill="rgb(33, 33, 33)" stroke="none" stroke-width="1px">500k</text><text x="83.53125" y="0" dx="0em" dy="0.95em" style="text-anchor: middle; visibility: inherit; font-family: Roboto, sans-serif; font-size: 12px; font-weight: 200;" fill="rgb(33, 33, 33)" stroke="none" stroke-width="1px">1M</text><text x="111.375" y="0" dx="0em" dy="0.95em" style="text-anchor: middle; visibility: inherit; font-family: Roboto, sans-serif; font-size: 12px; font-weight: 200;" fill="rgb(33, 33, 33)" stroke="none" stroke-width="1px">1.5M</text><text x="139.21875" y="0" dx="0em" dy="0.95em" style="text-anchor: middle; visibility: inherit; font-family: Roboto, sans-serif; font-size: 12px; font-weight: 200;" fill="rgb(33, 33, 33)" stroke="none" stroke-width="1px">2M</text><text x="167.0625" y="0" dx="0em" dy="0.95em" style="text-anchor: middle; visibility: inherit; font-family: Roboto, sans-serif; font-size: 12px; font-weight: 200;" fill="rgb(33, 33, 33)" stroke="none" stroke-width="1px">2.5M</text><text x="194.90625" y="0" dx="0em" dy="0.95em" style="text-anchor: middle; visibility: inherit; font-family: Roboto, sans-serif; font-size: 12px; font-weight: 200;" fill="rgb(33, 33, 33)" stroke="none" stroke-width="1px">3M</text><text x="222.75" y="0" dx="0em" dy="0.95em" style="text-anchor: middle; visibility: inherit; font-family: Roboto, sans-serif; font-size: 12px; font-weight: 200;" fill="rgb(33, 33, 33)" stroke="none" stroke-width="1px">3.5M</text><text x="250.59375" y="0" dx="0em" dy="0.95em" style="text-anchor: middle; visibility: inherit; font-family: Roboto, sans-serif; font-size: 12px; font-weight: 200;" fill="rgb(33, 33, 33)" stroke="none" stroke-width="1px">4M</text><text x="278.4375" y="0" dx="0em" dy="0.95em" style="text-anchor: middle; visibility: hidden; font-family: Roboto, sans-serif; font-size: 12px; font-weight: 200;" fill="rgb(33, 33, 33)" stroke="none" stroke-width="1px">4.5M</text></g><line x1="0" y1="0" x2="278.4375" y2="0" fill="rgb(0, 0, 0)" stroke="rgb(204, 204, 204)" stroke-width="1px"></line></g></g></g></g></svg>