<svg viewBox="0 0 330 200" xmlns="http://www.w3.org/2000/svg"><g><g><g><g><g><line x1="51.5625" y1="177" x2="46.5625" y2="177" style="visibility: inherit;" fill="rgb(0, 0, 0)" stroke="rgb(204, 204, 204)" stroke-width="1px"></line><line x1="51.5625" y1="154.87499999999991" x2="46.5625" y2="154.87499999999991" style="visibility: inherit;" fill="rgb(0, 0, 0)" stroke="rgb(204, 204, 204)" stroke-width="1px"></line><line x1="51.5625" y1="132.75" x2="46.5625" y2="132.75" style="visibility: inherit;" fill="rgb(0, 0, 0)" stroke="rgb(204, 204, 204)" stroke-width="1px"></line><line x1="51.5625" y1="110.6249999999999" x2="46.5625" y2="110.6249999999999" style="visibility: inherit;" fill="rgb(0, 0, 0)" stroke="rgb(204, 204, 204)" stroke-width="1px"></line><line x1="51.5625" y1="88.5" x2="46.5625" y2="88.5" style="visibility: inherit;" fill="rgb(0, 0, 0)" stroke="rgb(204, 204, 204)" stroke-width="1px"></line><line x1="51.5625" y1="66.3750000000001" x2="46.5625" y2="66.3750000000001" style="visibility: inherit;" fill="rgb(0, 0, 0)" stroke="rgb(204, 204, 204)" stroke-width="1px"></line><line x1="51.5625" y1="44.25" x2="46.5625" y2="44.25" style="visibility: inherit;" fill="rgb(0, 0, 0)" stroke="rgb(204, 204, 204)" stroke-width="1px"></line><line x1="51.5625" y1="22.1250000000001" x2="46.5625" y2="22.1250000000001" style="visibility: inherit;" fill="rgb(0, 0, 0)" stroke="rgb(204, 204, 204)" stroke-width="1px"></line><line x1="51.5625" y1="0" x2="46.5625" y2="0" style="visibility: inherit;" fill="rgb(0, 0, 0)" stroke="rgb(204, 204, 204)" stroke-width="1px"></line></g><g transform="translate(41.5625, 0)"><text x="0" y="177" dx="0em" dy="0.3em" style="text-anchor: end; visibility: hidden; font-family: Roboto, sans-serif; font-size: 12px; font-weight: 200;" fill="rgb(33, 33, 33)" stroke="none" stroke-width="1px">-6.4</text><text x="0" y="154.87499999999991" dx="0em" dy="0.3em" style="text-anchor: end; visibility: inherit; font-family: Roboto, sans-serif; font-size: 12px; font-weight: 200;" fill="rgb(33, 33, 33)" stroke="none" stroke-width="1px">-6.3</text><text x="0" y="132.75" dx="0em" dy="0.3em" style="text-anchor: end; visibility: hidden; font-family: Roboto, sans-serif; font-size: 12px; font-weight: 200;" fill="rgb(33, 33, 33)" stroke="none" stroke-width="1px">-6.2</text><text x="0" y="110.6249999999999" dx="0em" dy="0.3em" style="text-anchor: end; visibility: inherit; font-family: Roboto, sans-serif; font-size: 12px; font-weight: 200;" fill="rgb(33, 33, 33)" stroke="none" stroke-width="1px">-6.1</text><text x="0" y="88.5" dx="0em" dy="0.3em" style="text-anchor: end; visibility: hidden; font-family: Roboto, sans-serif; font-size: 12px; font-weight: 200;" fill="rgb(33, 33, 33)" stroke="none" stroke-width="1px">-6</text><text x="0" y="66.3750000000001" dx="0em" dy="0.3em" style="text-anchor: end; visibility: inherit; font-family: Roboto, sans-serif; font-size: 12px; font-weight: 200;" fill="rgb(33, 33, 33)" stroke="none" stroke-width="1px">-5.9</text><text x="0" y="44.25" dx="0em" dy="0.3em" style="text-anchor: end; visibility: hidden; font-family: Roboto, sans-serif; font-size: 12px; font-weight: 200;" fill="rgb(33, 33, 33)" stroke="none" stroke-width="1px">-5.8</text><text x="0" y="22.1250000000001" dx="0em" dy="0.3em" style="text-anchor: end; visibility: inherit; font-family: Roboto, sans-serif; font-size: 12px; font-weight: 200;" fill="rgb(33, 33, 33)" stroke="none" stroke-width="1px">-5.7</text><text x="0" y="0" dx="0em" dy="0.3em" style="text-anchor: end; visibility: hidden; font-family: Roboto, sans-serif; font-size: 12px; font-weight: 200;" fill="rgb(33, 33, 33)" stroke="none" stroke-width="1px">-5.6</text></g><line x1="51.5625" y1="0" x2="51.5625" y2="177" fill="rgb(0, 0, 0)" stroke="rgb(204, 204, 204)" stroke-width="1px"></line></g></g><g transform="translate(51, 0)" clip-path="url(#clip_0)"><clipPath id="clip_0"><rect width="278" height="177"></rect></clipPath><g><g><g><line x1="0" y1="0" x2="0" y2="177" fill="rgb(0, 0, 0)" stroke="rgb(66, 66, 66)" stroke-width="1px" opacity="0.25"></line><line x1="27.84375" y1="0" x2="27.84375" y2="177" fill="rgb(0, 0, 0)" stroke="rgb(66, 66, 66)" stroke-width="1px" opacity="0.25"></line><line x1="55.6875" y1="0" x2="55.6875" y2="177" fill="rgb(0, 0, 0)" stroke="rgb(66, 66, 66)" stroke-width="1px" opacity="0.25"></line><line x1="83.53125" y1="0" x2="83.53125" y2="177" fill="rgb(0, 0, 0)" stroke="rgb(66, 66, 66)" stroke-width="1px" opacity="0.25"></line><line x1="111.375" y1="0" x2="111.375" y2="177" fill="rgb(0, 0, 0)" stroke="rgb(66, 66, 66)" stroke-width="1px" opacity="0.25"></line><line x1="139.21875" y1="0" x2="139.21875" y2="177" fill="rgb(0, 0, 0)" stroke="rgb(66, 66, 66)" stroke-width="1px" opacity="0.25"></line><line x1="167.0625" y1="0" x2="167.0625" y2="177" fill="rgb(0, 0, 0)" stroke="rgb(66, 66, 66)" stroke-width="1px" opacity="0.25"></line><line x1="194.90625" y1="0" x2="194.90625" y2="177" fill="rgb(0, 0, 0)" stroke="rgb(66, 66, 66)" stroke-width="1px" opacity="0.25"></line><line x1="222.75" y1="0" x2="222.75" y2="177" fill="rgb(0, 0, 0)" stroke="rgb(66, 66, 66)" stroke-width="1px" opacity="0.25"></line><line x1="250.59375" y1="0" x2="250.59375" y2="177" fill="rgb(0, 0, 0)" stroke="rgb(66, 66, 66)" stroke-width="1px" opacity="0.25"></line><line x1="278.4375" y1="0" x2="278.4375" y2="177" fill="rgb(0, 0, 0)" stroke="rgb(66, 66, 66)" stroke-width="1px" opacity="0.25"></line></g><g><line x1="0" y1="177" x2="278.4375" y2="177" fill="rgb(0, 0, 0)" stroke="rgb(66, 66, 66)" stroke-width="1px" opacity="0.25"></line><line x1="0" y1="154.87499999999991" x2="278.4375" y2="154.87499999999991" fill="rgb(0, 0, 0)" stroke="rgb(66, 66, 66)" stroke-width="1px" opacity="0.25"></line><line x1="0" y1="132.75" x2="278.4375" y2="132.75" fill="rgb(0, 0, 0)" stroke="rgb(66, 66, 66)" stroke-width="1px" opacity="0.25"></line><line x1="0" y1="110.6249999999999" x2="278.4375" y2="110.6249999999999" fill="rgb(0, 0, 0)" stroke="rgb(66, 66, 66)" stroke-width="1px" opacity="0.25"></line><line x1="0" y1="88.5" x2="278.4375" y2="88.5" fill="rgb(0, 0, 0)" stroke="rgb(66, 66, 66)" stroke-width="1px" opacity="0.25"></line><line x1="0" y1="66.3750000000001" x2="278.4375" y2="66.3750000000001" fill="rgb(0, 0, 0)" stroke="rgb(66, 66, 66)" stroke-width="1px" opacity="0.25"></line><line x1="0" y1="44.25" x2="278.4375" y2="44.25" fill="rgb(0, 0, 0)" stroke="rgb(66, 66, 66)" stroke-width="1px" opacity="0.25"></line><line x1="0" y1="22.1250000000001" x2="278.4375" y2="22.1250000000001" fill="rgb(0, 0, 0)" stroke="rgb(66, 66, 66)" stroke-width="1px" opacity="0.25"></line><line x1="0" y1="0" x2="278.4375" y2="0" fill="rgb(0, 0, 0)" stroke="rgb(66, 66, 66)" stroke-width="1px" opacity="0.25"></line></g></g></g><g><g><line x1="0" y1="-1238.9999999999989" x2="278.4375" y2="-1238.9999999999989" fill="rgb(0, 0, 0)" stroke="rgb(153, 153, 153)" stroke-width="1.5px"></line></g></g><g><g><line x1="27.84375" y1="0" x2="27.84375" y2="177" fill="rgb(0, 0, 0)" stroke="rgb(153, 153, 153)" stroke-width="1.5px"></line></g></g><g><g><g><g><g><path stroke="rgb(51, 187, 238)" stroke-width="2px" d="M30.516750000000002,165.5265555381774L31.85325,164.35161276161645L33.189750000000004,161.64859347684026L34.52625,160.3201370734501L35.86275,158.9549321137228L37.19925,158.24540925363658L38.53575,156.36897035449024L39.87225,156.2991624980751L41.208749999999995,157.44420716272808L42.545249999999996,158.09590968729302L43.88175,157.87852969184664L45.21825,158.19377469411643L46.55475,157.92304031556705L47.89125,158.03745352496162L49.22775,156.4571865175075L50.56425,153.62625594584287L51.90075,148.63840826536148L53.23725,147.31681581532547L54.573750000000004,147.86202379496692L55.910250000000005,147.91477451327785L57.24675,144.08157042170893L58.58325,141.0914680518179L59.91975,141.8918715480998L61.25625,140.9557413187405L62.59275,142.07751673658768L63.929249999999996,144.46508806643422L65.26575,147.15620498536708L66.60225,147.4811534771768L67.93875,146.23351188760586L69.27525,144.4958413351257L70.61175,142.8439542909003L71.94825,146.04928373929417L73.28475,149.3393421768826L74.62125,151.89227796952997L75.95774999999999,152.95629360931997L77.29425,153.7239196538105L78.63074999999999,153.20836502228065L79.96725,153.93816722851105L81.30375,151.8656074800873L82.64025000000001,152.2336508159065L83.97675,151.8915698361169L85.31325,152.2447128197326L86.64975,151.74540051808108L87.98625,152.52959581025195L89.32275,151.23922989240432L90.65925,149.99093454753196L91.99575,149.85411182447666L93.33225,148.52905678391113L94.66875,143.97099966781934L96.00525,140.9279781518784L97.34175,138.83229567636468L98.67824999999999,135.59511123912228L100.01475,133.88122965583938L101.35125,132.07030006461983L102.68775000000001,128.77798588403058L104.02425,127.63689312534282L105.36075000000001,125.56495176074895L106.69725,126.0764666218639L108.03375,128.21021736974018L109.37025,130.01218751260325L110.70675,130.4989391516965L112.04325,129.2326252669883L113.37975,127.72024055783689L114.71624999999999,129.37806871214363L116.05275,131.52858382868075L117.38924999999999,131.6829931164224L118.72575,130.45507131960613L120.06225,131.11176516381866L121.39874999999999,132.7137168035982L122.73525000000001,133.95547617590893L124.07175,134.42268641660516L125.40825000000001,134.44065461081203L126.74475,134.03331705046844L128.08125,132.3420844800063L129.41774999999998,131.87763409178183L130.75425,126.38742172933055L132.09074999999999,122.96509044299378L133.42725000000002,120.77597618657262L134.76375,119.24053516720467L136.10025000000002,117.86815160950857L137.43675,116.99437676930918L138.77325,118.08198644557284L140.10975,118.24693022870241L141.44625,117.41876055421358L142.78275000000002,117.55583067907061L144.11925,116.16782167061076L145.45575,113.4513309151167L146.79225,115.26133447588886L148.12875,120.7318414074266L149.46525000000003,124.39601416719444L150.80175,124.8994246681481L152.13825,123.7459055161445L153.47475,123.94674789762308L154.81125,121.8768999329556L156.14775,120.50957249113031L157.48425,119.93203753535826L158.82075,122.15621935310878L160.15725,123.25225574364015L161.49374999999998,120.63409570807067L162.83025,118.40449850531716L164.16675,115.91054215891532L165.50325,114.5017757348024L166.83974999999998,109.77735714505928L168.17624999999998,105.60635578865292L169.51275,102.93887922903592L170.84925,102.52552398288664L172.18574999999998,99.8584329619671L173.52224999999999,94.04855072108883L174.85875000000001,87.71230079894045L176.19525000000002,77.76410795548422L177.53175,76.77197528659622L178.86825,77.42607150542328L180.20475,76.26358257572423L181.54125000000002,75.4442997624909L182.87775000000002,77.40130580964302L184.21425,80.66985763014921L185.55075,83.2787178808545L186.88725,83.90710766637883L188.22375000000002,88.42105841353286L189.56025,85.33721351453512L190.89675,82.26977162259128L192.23325,78.77202461181462L193.56975,78.62546809922682L194.90625,80.78557510620965L196.24275,84.03955461649063L197.57925,86.910849249768L198.91575,84.3668172814893L200.25224999999998,85.14908054223342L201.58875,84.06817604750815L202.92525,81.81354018241414L204.26175,74.24194262141144L205.59824999999998,65.19944184848156L206.93474999999998,60.22189532416165L208.27125,61.750819079262705L209.60775,62.19992115031638L210.94425,62.64012395102362L212.28074999999998,62.43455864643213L213.61724999999998,60.152811537117664L214.95375,54.35524378414795L216.29025000000001,48.05537401554494L217.62675,45.81621958564229L218.96325,48.09948693365166L220.29975000000002,45.88214441925485L221.63625000000002,46.564007930697215L222.97275,49.875985725367805L224.30925,56.27848326185036L225.64575,60.078963297716875L226.98225000000002,59.99110895282736L228.31875,61.44658530883037L229.65525,62.11186688621067L230.99175,62.0675973026707L232.32825,63.730642695948625L233.66475,62.052731120422614L235.00125,57.16555943717679L236.33775,50.87497338432152L237.67425,50.91162734495454L239.01075,59.37528322498107L240.34725,63.53832563376497L241.68375,63.25786605248494L243.02025,65.53947424155263L244.35675,68.57264184511766L245.69324999999998,69.92665343020606L247.02975,71.99725601991571L248.36625,67.83049462986334L249.70275,64.49660624714119L251.03924999999998,64.03362244159824L252.37574999999998,64.01738830680152L253.71225,58.07043297454426L255.04875,54.79175238230654L256.38525,52.425331189744576L257.72175,48.08734235436495L259.05825,42.0174319819854L260.39475,38.06746731258912" style="fill: none;" fill="none"></path></g><g><path stroke="rgb(204, 51, 17)" stroke-width="2px" d="M30.516750000000002,165.43044483661643L31.85325,165.11658167839062L33.189750000000004,164.82796321596427L34.52625,165.01136266177178L37.19925,163.40228910854836L38.53575,162.50592431025905L39.87225,160.52911132588045L41.208749999999995,158.01115279228304L42.545249999999996,155.56023913524064L43.88175,153.5112844192895L45.21825,151.0655921777053L46.55475,146.78890241885767L47.89125,142.1314292101029L49.22775,139.0185177856402L50.56425,135.8578695351909L51.90075,134.7697363925323L53.23725,135.2152852005807L54.573750000000004,134.65147766585045L55.910250000000005,134.86034508014697L57.24675,135.24578823911844L58.58325,136.42623032795237L59.91975,138.73966490208454L61.25625,140.31617324215196L62.59275,141.9279908299816L63.929249999999996,141.25981841622684L65.26575,140.3070646850561L66.60225,140.06972292976536L67.93875,138.22230680931517L69.27525,135.56975605593217L70.61175,133.93501332922827L71.94825,134.1091844999795L73.28475,136.63424225661544L74.62125,138.4418500095307L75.95774999999999,139.55726287161482L77.29425,140.43978981936246L78.63074999999999,140.61617563408308L79.96725,137.57856470994847L81.30375,135.3730745630187L82.64025000000001,136.30507981488452L83.97675,137.40186989280778L85.31325,137.60329678058815L86.64975,139.05071269581953L87.98625,137.81953904062854L89.32275,135.4418678102567L90.65925,130.22489532283396L91.99575,125.46076660395637L93.33225,118.78820317387022L94.66875,112.29857350215316L96.00525,111.38471274866411L97.34175,107.65484722428741L98.67824999999999,108.63109765037305L100.01475,110.438920268925L101.35125,108.49166408151756L102.68775000000001,107.1310889659531L104.02425,105.47892894376463L105.36075000000001,102.89639419334537L106.69725,101.21765667210416L108.03375,99.48917244678964L109.37025,98.83639811757932L110.70675,93.00931992103845L112.04325,85.86955956202843L113.37975,77.67708894957347L114.71624999999999,71.65841186850803L116.05275,67.03815930372197L117.38924999999999,59.952821119342644L118.72575,54.36277820093301L120.06225,48.41808901681218L121.39874999999999,47.007700028739514L122.73525000000001,45.52892950935497L124.07175,42.33589656211938L125.40825000000001,36.591895765411984L126.74475,32.03622376105081L128.08125,29.513399000053973L129.41774999999998,25.396887084892676L130.75425,24.618612683446084L133.42725000000002,20.795221803564456L134.76375,16.82440895913752L136.10025000000002,14.153779048196926L137.43675,14.867848359628175L138.77325,11.92530467694022L140.10975,12.233111015469083L141.44625,14.272404308027358L142.78275000000002,13.305162689034125L144.11925,8.412517273988755L145.45575,4.631324651578993L146.79225,0.20643775626408178L148.12875,-4.53499335667857" style="fill: none;" fill="none"></path></g></g></g></g><g opacity="0.2"><g><g><g><path stroke="rgb(51, 187, 238)" stroke-width="2px" d="M30.516750000000002,165.5265555381774L31.85325,163.64664709568018L33.189750000000004,159.05369496345514L34.52625,158.7578723430633L35.86275,157.17252051830286L37.19925,157.26388370990747L38.53575,153.68563270568842L39.87225,156.19738197326654L41.208749999999995,159.13292562961573L42.545249999999996,159.06361198425287L43.88175,157.5544313192367L45.21825,158.6649266481399L46.55475,157.5178227424621L47.89125,158.2088491916656L49.22775,154.08864355087275L50.56425,149.38185667991632L51.90075,141.15874743461606L53.23725,145.33476269245145L54.573750000000004,148.67975270748133L55.910250000000005,147.9938957691192L57.24675,138.33197450637815L58.58325,136.6064128875732L59.91975,143.09246098995206L61.25625,139.55155706405637L62.59275,143.76017189025876L63.929249999999996,148.04643487930292L65.26575,151.19287347793573L66.60225,147.96857571601862L67.93875,144.36205065250394L69.27525,141.88933646678922L70.61175,140.36612427234647L71.94825,150.85727727413172L73.28475,154.2744294404983L74.62125,155.7216814756393L75.95774999999999,154.55231702327723L77.29425,154.8753587007522L78.63074999999999,152.43503308296198L79.96725,155.0328705310821L81.30375,148.7567678689956L82.64025000000001,152.7857158184051L83.97675,151.37844836711878L85.31325,152.77442729473108L86.64975,150.9964320659637L87.98625,153.7058887481689L89.32275,149.30368101596827L90.65925,148.11849153041834L91.99575,149.64887773990625L93.33225,146.54147422313687L94.66875,137.13391399383542L96.00525,136.36344587802884L97.34175,135.68877196311948L98.67824999999999,130.73933458328244L100.01475,131.3104072809219L101.35125,129.35390567779538L102.68775000000001,123.83951461315151L104.02425,125.92525398731227L105.36075000000001,122.45703971385952L106.69725,126.84373891353603L108.03375,131.41084349155423L109.37025,132.71514272689816L110.70675,131.22906661033628L112.04325,127.3331544399261L113.37975,125.45166349411006L114.71624999999999,131.8648109436035L116.05275,134.7543565034866L117.38924999999999,131.91460704803464L118.72575,128.613188624382L120.06225,132.0968059301376L121.39874999999999,135.1166442632675L122.73525000000001,135.81811523437497L124.07175,135.1235017776489L125.40825000000001,134.46760690212247L126.74475,133.42231070995328L128.08125,129.80523562431333L129.41774999999998,131.18095850944516L130.75425,118.15210318565364L132.09074999999999,117.83159351348873L133.42725000000002,117.49230480194088L134.76375,116.93737363815303L136.10025000000002,115.80957627296446L137.43675,115.6837145090103L138.77325,119.71340095996852L140.10975,118.49434590339656L141.44625,116.17650604248043L142.78275000000002,117.76143586635585L144.11925,114.08580815792082L145.45575,109.3765947818756L146.79225,117.97633981704708L148.12875,128.93760180473325L149.46525000000003,129.8922733068466L150.80175,125.65454041957851L152.13825,122.0156267881393L153.47475,124.24801146984096L154.81125,118.77212798595424L156.14775,118.45858132839199L157.48425,119.06573510169979L158.82075,125.49249207973476L160.15725,124.89631032943721L161.49374999999998,116.70685565471645L162.83025,115.06010270118712L164.16675,112.16960763931273L165.50325,112.3886260986328L166.83974999999998,102.69072926044464L168.17624999999998,99.34985375404358L169.51275,98.93766438961029L170.84925,101.90549111366272L172.18574999999998,95.85779643058777L173.52224999999999,85.33372735977173L174.85875000000001,78.20792591571808L176.19525000000002,62.84181869030001L177.53175,75.28377628326417L178.86825,78.40721583366394L180.20475,74.51984918117525L181.54125000000002,74.2153755426407L182.87775000000002,80.3368148803711L184.21425,85.57268536090851L185.55075,87.19200825691223L186.88725,84.84969234466553L188.22375000000002,95.19198453426361L189.56025,80.71144616603851L190.89675,77.6686087846756L192.23325,73.52540409564973L193.56975,78.40563333034515L194.90625,84.02573561668396L196.24275,88.92052388191223L197.57925,91.21779119968414L198.91575,80.55076932907104L200.25224999999998,86.32247543334961L201.58875,82.44681930541992L202.92525,78.43158638477325L204.26175,62.88454627990725L205.59824999999998,51.63569068908696L206.93474999999998,52.75557553768162L208.27125,64.04420471191408L209.60775,62.873574256896994L210.94425,63.30042815208437L212.28074999999998,62.1262106895447L213.61724999999998,56.73019087314608L214.95375,45.658892154693646L216.29025000000001,38.60556936264042L217.62675,42.45748794078831L218.96325,51.52438795566563L220.29975000000002,42.556130647659344L221.63625000000002,47.58680319786076L222.97275,54.8439524173737L224.30925,65.88222956657411L225.64575,65.77968335151674L226.98225000000002,59.85932743549349L228.31875,63.629799842834494L229.65525,63.10978925228121L230.99175,62.001192927360556L232.32825,66.2252107858658L233.66475,59.535863757133505L235.00125,49.83480191230778L236.33775,41.439094305038495L237.67425,50.96660828590397L239.01075,72.07076704502107L240.34725,69.78288924694063L241.68375,62.8371766805649L243.02025,68.96188652515413L244.35675,73.12239325046541L245.69324999999998,71.95767080783845L247.02975,75.10315990448L248.36625,61.58035254478457L249.70275,59.49577367305758L251.03924999999998,63.33914673328402L252.37574999999998,63.99303710460665L253.71225,49.149999976158185L255.04875,49.87373149394993L256.38525,48.87569940090184L257.72175,41.580359101295514L259.05825,32.912566423416195L260.39475,32.142520308494625" style="fill: none;" fill="none"></path></g><g><path stroke="rgb(204, 51, 17)" stroke-width="2px" d="M30.516750000000002,165.43044483661643L31.85325,164.9282637834548L33.189750000000004,164.55088949203486L34.52625,165.22704041004172L37.19925,161.30148267745966L38.53575,161.2659291028976L39.87225,157.70223712921137L41.208749999999995,154.33994507789606L42.545249999999996,151.9456175565719L43.88175,150.46882545948023L45.21825,147.41923606395716L46.55475,140.3971413373947L47.89125,135.16042685508725L49.22775,134.35524916648862L50.56425,131.12061238288877L51.90075,133.1383041143417L53.23725,135.88341987133023L54.573750000000004,133.80590951442716L55.910250000000005,135.1736143827438L57.24675,135.82391774654386L58.58325,138.19682872295377L59.91975,142.20974063873288L61.25625,142.68090462684629L62.59275,144.3456981182098L63.929249999999996,140.2575645446777L65.26575,138.87793815135953L66.60225,139.71371090412137L67.93875,135.45118546485898L69.27525,131.59093236923215L70.61175,131.48290014266965L71.94825,134.37044119834897L73.28475,140.42182838916776L74.62125,141.15326142311093L75.95774999999999,141.23038208484647L77.29425,141.7635802030563L78.63074999999999,140.88075435161588L79.96725,133.02214837074277L81.30375,132.06483936309812L82.64025000000001,137.70308768749234L83.97675,139.0470550060272L85.31325,137.90543711185452L86.64975,141.22183656692502L87.98625,135.97277855873105L89.32275,131.87536096572873L90.65925,122.39943659305568L91.99575,118.3145735263824L93.33225,108.77935802936553L94.66875,102.56412899494171L96.00525,110.0139216184616L97.34175,102.06004893779755L98.67824999999999,110.09547328948973L100.01475,113.15065419673918L101.35125,105.57077980041502L102.68775000000001,105.09022629261017L104.02425,103.00068891048431L105.36075000000001,99.0225920677185L106.69725,98.69955039024353L108.03375,96.89644610881805L109.37025,97.85723662376404L110.70675,84.26870262622833L112.04325,75.15991902351381L113.37975,65.38838303089143L114.71624999999999,62.63039624691012L116.05275,60.10778045654299L117.38924999999999,49.32481384277348L118.72575,45.977713823318524L120.06225,39.501055240631146L121.39874999999999,44.8921165466309L122.73525000000001,43.31077373027806L124.07175,37.54634714126591L125.40825000000001,27.975894570350707L126.74475,25.202715754509033L128.08125,25.729161858558715L129.41774999999998,19.222119212150634L130.75425,23.451201081276L133.42725000000002,15.060135483741819L134.76375,10.868189692497332L136.10025000000002,10.147834181785662L137.43675,15.938952326774656L138.77325,7.511489152908403L140.10975,12.694820523262083L141.44625,17.33134424686438L142.78275000000002,11.854300260543882L144.11925,1.0735491514206719L145.45575,-1.040464282035749" style="fill: none;" fill="none"></path></g></g></g></g></g></g><g transform="translate(51, 177)" clip-path="url(#clip_1)"><clipPath id="clip_1"><rect width="278" height="23"></rect></clipPath><g><g><line x1="0" y1="0" x2="0" y2="5" style="visibility: inherit;" fill="rgb(0, 0, 0)" stroke="rgb(204, 204, 204)" stroke-width="1px"></line><line x1="27.84375" y1="0" x2="27.84375" y2="5" style="visibility: inherit;" fill="rgb(0, 0, 0)" stroke="rgb(204, 204, 204)" stroke-width="1px"></line><line x1="55.6875" y1="0" x2="55.6875" y2="5" style="visibility: inherit;" fill="rgb(0, 0, 0)" stroke="rgb(204, 204, 204)" stroke-width="1px"></line><line x1="83.53125" y1="0" x2="83.53125" y2="5" style="visibility: inherit;" fill="rgb(0, 0, 0)" stroke="rgb(204, 204, 204)" stroke-width="1px"></line><line x1="111.375" y1="0" x2="111.375" y2="5" style="visibility: inherit;" fill="rgb(0, 0, 0)" stroke="rgb(204, 204, 204)" stroke-width="1px"></line><line x1="139.21875" y1="0" x2="139.21875" y2="5" style="visibility: inherit;" fill="rgb(0, 0, 0)" stroke="rgb(204, 204, 204)" stroke-width="1px"></line><line x1="167.0625" y1="0" x2="167.0625" y2="5" style="visibility: inherit;" fill="rgb(0, 0, 0)" stroke="rgb(204, 204, 204)" stroke-width="1px"></line><line x1="194.90625" y1="0" x2="194.90625" y2="5" style="visibility: inherit;" fill="rgb(0, 0, 0)" stroke="rgb(204, 204, 204)" stroke-width="1px"></line><line x1="222.75" y1="0" x2="222.75" y2="5" style="visibility: inherit;" fill="rgb(0, 0, 0)" stroke="rgb(204, 204, 204)" stroke-width="1px"></line><line x1="250.59375" y1="0" x2="250.59375" y2="5" style="visibility: inherit;" fill="rgb(0, 0, 0)" stroke="rgb(204, 204, 204)" stroke-width="1px"></line><line x1="278.4375" y1="0" x2="278.4375" y2="5" style="visibility: inherit;" fill="rgb(0, 0, 0)" stroke="rgb(204, 204, 204)" stroke-width="1px"></line></g><g transform="translate(0, 8)"><text x="0" y="0" dx="0em" dy="0.95em" style="text-anchor: middle; visibility: hidden; font-family: Roboto, sans-serif; font-size: 12px; font-weight: 200;" fill="rgb(33, 33, 33)" stroke="none" stroke-width="1px">-500k</text><text x="27.84375" y="0" dx="0em" dy="0.95em" style="text-anchor: middle; visibility: inherit; font-family: Roboto, sans-serif; font-size: 12px; font-weight: 200;" fill="rgb(33, 33, 33)" stroke="none" stroke-width="1px">0</text><text x="55.6875" y="0" dx="0em" dy="0.95em" style="text-anchor: middle; visibility: inherit; font-family: Roboto, sans-serif; font-size: 12px; font-weight: 200;" fill="rgb(33, 33, 33)" stroke="none" stroke-width="1px">500k</text><text x="83.53125" y="0" dx="0em" dy="0.95em" style="text-anchor: middle; visibility: inherit; font-family: Roboto, sans-serif; font-size: 12px; font-weight: 200;" fill="rgb(33, 33, 33)" stroke="none" stroke-width="1px">1M</text><text x="111.375" y="0" dx="0em" dy="0.95em" style="text-anchor: middle; visibility: inherit; font-family: Roboto, sans-serif; font-size: 12px; font-weight: 200;" fill="rgb(33, 33, 33)" stroke="none" stroke-width="1px">1.5M</text><text x="139.21875" y="0" dx="0em" dy="0.95em" style="text-anchor: middle; visibility: inherit; font-family: Roboto, sans-serif; font-size: 12px; font-weight: 200;" fill="rgb(33, 33, 33)" stroke="none" stroke-width="1px">2M</text><text x="167.0625" y="0" dx="0em" dy="0.95em" style="text-anchor: middle; visibility: inherit; font-family: Roboto, sans-serif; font-size: 12px; font-weight: 200;" fill="rgb(33, 33, 33)" stroke="none" stroke-width="1px">2.5M</text><text x="194.90625" y="0" dx="0em" dy="0.95em" style="text-anchor: middle; visibility: inherit; font-family: Roboto, sans-serif; font-size: 12px; font-weight: 200;" fill="rgb(33, 33, 33)" stroke="none" stroke-width="1px">3M</text><text x="222.75" y="0" dx="0em" dy="0.95em" style="text-anchor: middle; visibility: inherit; font-family: Roboto, sans-serif; font-size: 12px; font-weight: 200;" fill="rgb(33, 33, 33)" stroke="none" stroke-width="1px">3.5M</text><text x="250.59375" y="0" dx="0em" dy="0.95em" style="text-anchor: middle; visibility: inherit; font-family: Roboto, sans-serif; font-size: 12px; font-weight: 200;" fill="rgb(33, 33, 33)" stroke="none" stroke-width="1px">4M</text><text x="278.4375" y="0" dx="0em" dy="0.95em" style="text-anchor: middle; visibility: hidden; font-family: Roboto, sans-serif; font-size: 12px; font-weight: 200;" fill="rgb(33, 33, 33)" stroke="none" stroke-width="1px">4.5M</text></g><line x1="0" y1="0" x2="278.4375" y2="0" fill="rgb(0, 0, 0)" stroke="rgb(204, 204, 204)" stroke-width="1px"></line></g></g></g></g></svg>