<svg viewBox="0 0 330 200" xmlns="http://www.w3.org/2000/svg"><g><g><g><g><g><line x1="41.171875" y1="177" x2="36.171875" y2="177" style="visibility: inherit;" fill="rgb(0, 0, 0)" stroke="rgb(204, 204, 204)" stroke-width="1px"></line><line x1="41.171875" y1="162.25" x2="36.171875" y2="162.25" style="visibility: inherit;" fill="rgb(0, 0, 0)" stroke="rgb(204, 204, 204)" stroke-width="1px"></line><line x1="41.171875" y1="147.5" x2="36.171875" y2="147.5" style="visibility: inherit;" fill="rgb(0, 0, 0)" stroke="rgb(204, 204, 204)" stroke-width="1px"></line><line x1="41.171875" y1="132.75" x2="36.171875" y2="132.75" style="visibility: inherit;" fill="rgb(0, 0, 0)" stroke="rgb(204, 204, 204)" stroke-width="1px"></line><line x1="41.171875" y1="118.00000000000001" x2="36.171875" y2="118.00000000000001" style="visibility: inherit;" fill="rgb(0, 0, 0)" stroke="rgb(204, 204, 204)" stroke-width="1px"></line><line x1="41.171875" y1="103.25" x2="36.171875" y2="103.25" style="visibility: inherit;" fill="rgb(0, 0, 0)" stroke="rgb(204, 204, 204)" stroke-width="1px"></line><line x1="41.171875" y1="88.49999999999999" x2="36.171875" y2="88.49999999999999" style="visibility: inherit;" fill="rgb(0, 0, 0)" stroke="rgb(204, 204, 204)" stroke-width="1px"></line><line x1="41.171875" y1="73.75" x2="36.171875" y2="73.75" style="visibility: inherit;" fill="rgb(0, 0, 0)" stroke="rgb(204, 204, 204)" stroke-width="1px"></line><line x1="41.171875" y1="58.999999999999986" x2="36.171875" y2="58.999999999999986" style="visibility: inherit;" fill="rgb(0, 0, 0)" stroke="rgb(204, 204, 204)" stroke-width="1px"></line><line x1="41.171875" y1="44.24999999999998" x2="36.171875" y2="44.24999999999998" style="visibility: inherit;" fill="rgb(0, 0, 0)" stroke="rgb(204, 204, 204)" stroke-width="1px"></line><line x1="41.171875" y1="29.499999999999993" x2="36.171875" y2="29.499999999999993" style="visibility: inherit;" fill="rgb(0, 0, 0)" stroke="rgb(204, 204, 204)" stroke-width="1px"></line><line x1="41.171875" y1="14.749999999999988" x2="36.171875" y2="14.749999999999988" style="visibility: inherit;" fill="rgb(0, 0, 0)" stroke="rgb(204, 204, 204)" stroke-width="1px"></line><line x1="41.171875" y1="0" x2="36.171875" y2="0" style="visibility: inherit;" fill="rgb(0, 0, 0)" stroke="rgb(204, 204, 204)" stroke-width="1px"></line></g><g transform="translate(31.171875, 0)"><text x="0" y="177" dx="0em" dy="0.3em" style="text-anchor: end; visibility: hidden; font-family: Roboto, sans-serif; font-size: 12px; font-weight: 200;" fill="rgb(33, 33, 33)" stroke="none" stroke-width="1px">0.4</text><text x="0" y="162.25" dx="0em" dy="0.3em" style="text-anchor: end; visibility: inherit; font-family: Roboto, sans-serif; font-size: 12px; font-weight: 200;" fill="rgb(33, 33, 33)" stroke="none" stroke-width="1px">0.6</text><text x="0" y="147.5" dx="0em" dy="0.3em" style="text-anchor: end; visibility: hidden; font-family: Roboto, sans-serif; font-size: 12px; font-weight: 200;" fill="rgb(33, 33, 33)" stroke="none" stroke-width="1px">0.8</text><text x="0" y="132.75" dx="0em" dy="0.3em" style="text-anchor: end; visibility: inherit; font-family: Roboto, sans-serif; font-size: 12px; font-weight: 200;" fill="rgb(33, 33, 33)" stroke="none" stroke-width="1px">1</text><text x="0" y="118.00000000000001" dx="0em" dy="0.3em" style="text-anchor: end; visibility: hidden; font-family: Roboto, sans-serif; font-size: 12px; font-weight: 200;" fill="rgb(33, 33, 33)" stroke="none" stroke-width="1px">1.2</text><text x="0" y="103.25" dx="0em" dy="0.3em" style="text-anchor: end; visibility: inherit; font-family: Roboto, sans-serif; font-size: 12px; font-weight: 200;" fill="rgb(33, 33, 33)" stroke="none" stroke-width="1px">1.4</text><text x="0" y="88.49999999999999" dx="0em" dy="0.3em" style="text-anchor: end; visibility: hidden; font-family: Roboto, sans-serif; font-size: 12px; font-weight: 200;" fill="rgb(33, 33, 33)" stroke="none" stroke-width="1px">1.6</text><text x="0" y="73.75" dx="0em" dy="0.3em" style="text-anchor: end; visibility: inherit; font-family: Roboto, sans-serif; font-size: 12px; font-weight: 200;" fill="rgb(33, 33, 33)" stroke="none" stroke-width="1px">1.8</text><text x="0" y="58.999999999999986" dx="0em" dy="0.3em" style="text-anchor: end; visibility: hidden; font-family: Roboto, sans-serif; font-size: 12px; font-weight: 200;" fill="rgb(33, 33, 33)" stroke="none" stroke-width="1px">2</text><text x="0" y="44.24999999999998" dx="0em" dy="0.3em" style="text-anchor: end; visibility: inherit; font-family: Roboto, sans-serif; font-size: 12px; font-weight: 200;" fill="rgb(33, 33, 33)" stroke="none" stroke-width="1px">2.2</text><text x="0" y="29.499999999999993" dx="0em" dy="0.3em" style="text-anchor: end; visibility: hidden; font-family: Roboto, sans-serif; font-size: 12px; font-weight: 200;" fill="rgb(33, 33, 33)" stroke="none" stroke-width="1px">2.4</text><text x="0" y="14.749999999999988" dx="0em" dy="0.3em" style="text-anchor: end; visibility: inherit; font-family: Roboto, sans-serif; font-size: 12px; font-weight: 200;" fill="rgb(33, 33, 33)" stroke="none" stroke-width="1px">2.6</text><text x="0" y="0" dx="0em" dy="0.3em" style="text-anchor: end; visibility: hidden; font-family: Roboto, sans-serif; font-size: 12px; font-weight: 200;" fill="rgb(33, 33, 33)" stroke="none" stroke-width="1px">2.8</text></g><line x1="41.171875" y1="0" x2="41.171875" y2="177" fill="rgb(0, 0, 0)" stroke="rgb(204, 204, 204)" stroke-width="1px"></line></g></g><g transform="translate(41, 0)" clip-path="url(#clip_0)"><clipPath id="clip_0"><rect width="288" height="177"></rect></clipPath><g><g><g><line x1="0" y1="0" x2="0" y2="177" fill="rgb(0, 0, 0)" stroke="rgb(66, 66, 66)" stroke-width="1px" opacity="0.25"></line><line x1="28.8828125" y1="0" x2="28.8828125" y2="177" fill="rgb(0, 0, 0)" stroke="rgb(66, 66, 66)" stroke-width="1px" opacity="0.25"></line><line x1="57.765625" y1="0" x2="57.765625" y2="177" fill="rgb(0, 0, 0)" stroke="rgb(66, 66, 66)" stroke-width="1px" opacity="0.25"></line><line x1="86.6484375" y1="0" x2="86.6484375" y2="177" fill="rgb(0, 0, 0)" stroke="rgb(66, 66, 66)" stroke-width="1px" opacity="0.25"></line><line x1="115.53125" y1="0" x2="115.53125" y2="177" fill="rgb(0, 0, 0)" stroke="rgb(66, 66, 66)" stroke-width="1px" opacity="0.25"></line><line x1="144.4140625" y1="0" x2="144.4140625" y2="177" fill="rgb(0, 0, 0)" stroke="rgb(66, 66, 66)" stroke-width="1px" opacity="0.25"></line><line x1="173.296875" y1="0" x2="173.296875" y2="177" fill="rgb(0, 0, 0)" stroke="rgb(66, 66, 66)" stroke-width="1px" opacity="0.25"></line><line x1="202.1796875" y1="0" x2="202.1796875" y2="177" fill="rgb(0, 0, 0)" stroke="rgb(66, 66, 66)" stroke-width="1px" opacity="0.25"></line><line x1="231.0625" y1="0" x2="231.0625" y2="177" fill="rgb(0, 0, 0)" stroke="rgb(66, 66, 66)" stroke-width="1px" opacity="0.25"></line><line x1="259.9453125" y1="0" x2="259.9453125" y2="177" fill="rgb(0, 0, 0)" stroke="rgb(66, 66, 66)" stroke-width="1px" opacity="0.25"></line><line x1="288.828125" y1="0" x2="288.828125" y2="177" fill="rgb(0, 0, 0)" stroke="rgb(66, 66, 66)" stroke-width="1px" opacity="0.25"></line></g><g><line x1="0" y1="177" x2="288.828125" y2="177" fill="rgb(0, 0, 0)" stroke="rgb(66, 66, 66)" stroke-width="1px" opacity="0.25"></line><line x1="0" y1="162.25" x2="288.828125" y2="162.25" fill="rgb(0, 0, 0)" stroke="rgb(66, 66, 66)" stroke-width="1px" opacity="0.25"></line><line x1="0" y1="147.5" x2="288.828125" y2="147.5" fill="rgb(0, 0, 0)" stroke="rgb(66, 66, 66)" stroke-width="1px" opacity="0.25"></line><line x1="0" y1="132.75" x2="288.828125" y2="132.75" fill="rgb(0, 0, 0)" stroke="rgb(66, 66, 66)" stroke-width="1px" opacity="0.25"></line><line x1="0" y1="118.00000000000001" x2="288.828125" y2="118.00000000000001" fill="rgb(0, 0, 0)" stroke="rgb(66, 66, 66)" stroke-width="1px" opacity="0.25"></line><line x1="0" y1="103.25" x2="288.828125" y2="103.25" fill="rgb(0, 0, 0)" stroke="rgb(66, 66, 66)" stroke-width="1px" opacity="0.25"></line><line x1="0" y1="88.49999999999999" x2="288.828125" y2="88.49999999999999" fill="rgb(0, 0, 0)" stroke="rgb(66, 66, 66)" stroke-width="1px" opacity="0.25"></line><line x1="0" y1="73.75" x2="288.828125" y2="73.75" fill="rgb(0, 0, 0)" stroke="rgb(66, 66, 66)" stroke-width="1px" opacity="0.25"></line><line x1="0" y1="58.999999999999986" x2="288.828125" y2="58.999999999999986" fill="rgb(0, 0, 0)" stroke="rgb(66, 66, 66)" stroke-width="1px" opacity="0.25"></line><line x1="0" y1="44.24999999999998" x2="288.828125" y2="44.24999999999998" fill="rgb(0, 0, 0)" stroke="rgb(66, 66, 66)" stroke-width="1px" opacity="0.25"></line><line x1="0" y1="29.499999999999993" x2="288.828125" y2="29.499999999999993" fill="rgb(0, 0, 0)" stroke="rgb(66, 66, 66)" stroke-width="1px" opacity="0.25"></line><line x1="0" y1="14.749999999999988" x2="288.828125" y2="14.749999999999988" fill="rgb(0, 0, 0)" stroke="rgb(66, 66, 66)" stroke-width="1px" opacity="0.25"></line><line x1="0" y1="0" x2="288.828125" y2="0" fill="rgb(0, 0, 0)" stroke="rgb(66, 66, 66)" stroke-width="1px" opacity="0.25"></line></g></g></g><g><g><line x1="0" y1="206.5" x2="288.828125" y2="206.5" fill="rgb(0, 0, 0)" stroke="rgb(153, 153, 153)" stroke-width="1.5px"></line></g></g><g><g><line x1="28.8828125" y1="0" x2="28.8828125" y2="177" fill="rgb(0, 0, 0)" stroke="rgb(153, 153, 153)" stroke-width="1.5px"></line></g></g><g><g><g><g><g><path stroke="rgb(51, 187, 238)" stroke-width="2px" d="M31.655562500000002,-6.628628134727491L33.0419375,6.999099195003496L34.4283125,106.13054694273337L35.8146875,150.09477124854868L37.2010625,110.39568059458958L38.5874375,147.93115876991527L39.9738125,151.84804304814156L41.360187499999995,133.66874520288306L42.746562499999996,146.62261684058694L44.1329375,165.30921453763432L45.5193125,159.300094961829L46.9056875,170.47254004318424L48.29206249999999,174.67318304115147L49.678437499999994,106.27836534210984L51.0648125,66.04858673194627L52.4511875,92.26311872056272L53.837562500000004,136.5015880456199L55.223937500000005,160.0833329375661L56.6103125,143.893512665034L57.9966875,163.45808784393674L59.3830625,138.1554789082024L60.7694375,132.79005417336066L62.1558125,150.12237432314447L63.5421875,156.19419747961442L64.9285625,150.97479486952167L66.3149375,172.0411871564526L67.7013125,178.26054797093673L69.0876875,188.16233461420848L70.4740625,140.10253662121698L71.8604375,99.93633675864983L73.2468125,77.94205555218616L74.6331875,88.60928545791785L76.01956249999999,129.77110517719248L77.40593750000001,144.57501771962254L78.7923125,77.03704228477379L80.17868750000001,123.4747488831634L81.5650625,113.86706400737788L82.9514375,91.81535703592343L84.3378125,133.86158188801392L85.7241875,128.36828878754025L87.1105625,125.4977777412378L88.4969375,127.95525273267532L89.88331249999999,78.5424198758032L91.2696875,74.46639482018823L92.65606249999999,126.00764489612764L94.0424375,131.59615986049332L95.4288125,119.22399490131427L96.8151875,138.99842614011752L98.20156250000001,149.154339999555L99.5879375,154.8657770637726L100.97431250000001,120.10336502082508L102.3606875,105.35603695917227L103.74706250000001,123.65274506696137L105.1334375,105.4138340585522L106.5198125,143.8996214536427L107.9061875,130.66556915447202L109.2925625,81.5673668432428L110.67893749999999,128.7995351276279L112.0653125,157.14835441613315L113.45168749999999,92.01882512869585L114.8380625,99.44262646139971L116.2244375,125.82048272193309L117.61081250000001,118.84885186613097L118.9971875,127.15480491912665L120.3835625,149.94416604278274L121.7699375,103.16067520283325L123.1563125,86.9903656214634L124.54268750000001,93.0532994848585L125.9290625,28.19359580171674L127.3154375,2.3983297079358312L128.7018125,50.635785039040684L130.0881875,71.47686811433631L131.4745625,37.110836196818305L132.8609375,70.85225275092029L134.2473125,76.89271466095866L135.6336875,92.68703664636388L137.0200625,96.01265043792588L138.4064375,65.07332889305033L139.7928125,119.11745759660887L141.1791875,74.64908509740165L142.5655625,123.53990052067597L143.9519375,89.5083286161623L145.3383125,37.20983501645337L146.72468750000002,-52.08768694178814L148.1110625,21.630799397369895L149.4974375,30.25568961175719L150.8838125,77.28916230840944L152.2701875,102.56676035549323L153.6565625,-12.305771747672088L155.04293750000002,7.449911666248101L156.42931249999998,41.282453592022584L157.8156875,48.16912020170708L159.2020625,107.7495176400186L160.58843750000003,92.50162270101555L161.97481249999998,92.27813763876348L163.3611875,60.907973643896504L164.74756250000002,116.06987319916936L166.1339375,149.285443964037L167.5203125,169.38367557298108L168.9066875,98.33721427780964L170.2930625,129.4988051334773L171.6794375,98.54773180960144L173.0658125,139.93495377617194L174.4521875,80.05741625259584L175.8385625,65.59269824761311L177.2249375,32.70485124074313L178.6113125,101.38586176869508L179.99768749999998,117.00299071930192L181.3840625,150.4390745567521L182.7704375,166.15365615828279L184.15681249999997,155.94968168344167L185.5431875,173.12886777538696L186.9295625,146.60152512203837L188.31593750000002,61.04008742219914L189.7023125,75.08263679770654L191.0886875,61.09094136016386L192.4750625,85.82206165228376L193.8614375,64.48563284536654L195.2478125,69.50080414331232L196.6341875,-13.598181511662796L198.02056249999998,39.05617621797181L199.4069375,41.84268691097411L200.7933125,77.06561192247099L202.1796875,111.92060613854424L203.5660625,119.49410897626696L204.9524375,94.20603619893919L206.33881250000002,119.4187370114358L207.72518749999998,122.66570679979515L209.1115625,154.38310215927356L210.4979375,174.5252592757028L211.88431250000002,123.29721337525139L213.27068749999998,46.38827027063424L214.6570625,73.51915918100389L216.0434375,5.599548448970979L217.4298125,75.5404955684251L218.8161875,125.74462364698094L220.2025625,34.113610545305214L221.5889375,17.953408193294898L222.9753125,21.605709309401924L224.36168750000002,84.108037486686L225.74806249999997,19.149481591590423L227.1344375,93.71186876025541L228.5208125,132.62376802996837L229.90718750000002,134.5861885776284L231.29356249999998,77.91679700792805L232.6799375,127.13919952336535L234.0663125,112.93170619501821L235.4526875,107.66901680525632L236.83906249999998,130.24706736026104L238.2254375,62.43392056714232L239.6118125,23.13014616066654L240.9981875,94.98789476339185L242.3845625,100.35655398955443L243.7709375,64.37302682274877L245.1573125,111.79126901611271L246.5436875,80.10078370085107L247.93006250000002,118.78479034013003L249.31643749999998,113.33956006948024L250.7028125,136.52119286229532L252.0891875,141.26323281747295L253.47556250000002,147.58189684165833L254.86193749999998,167.85986407556126L256.2483125,177.3098181036591L257.6346875,54.006516453473516L259.0210625,93.21617297938391L260.4074375,118.28092851406888L261.7938125,87.94751795629591L263.1801875,125.44640750288924L264.56656250000003,32.73021999955149L265.95293749999996,90.07290764129144L267.3393125,135.1354316590785L268.7256875,162.41601616180293L270.11206250000004,128.31833580754014" style="fill: none;" fill="none"></path></g><g><path stroke="rgb(204, 51, 17)" stroke-width="2px" d="M31.655562500000002,155.03064447641373L33.0419375,184.43519290396944L34.4283125,182.91582858843768L35.8146875,163.75179402452127L38.5874375,95.27234971934075L39.9738125,133.66436551934083L41.360187499999995,119.90399843317854L42.746562499999996,145.22110380564243L44.1329375,160.11750029249933L45.5193125,175.09166508479942L46.9056875,98.30620198881005L48.29206249999999,70.28664425373361L49.678437499999994,104.59172903329207L51.0648125,100.6417078537046L52.4511875,131.04761865427696L53.837562500000004,41.37900706590342L55.223937500000005,30.903296237574075L56.6103125,75.24575835939079L57.9966875,121.08064270912514L59.3830625,81.67205405226957L60.7694375,129.710542331962L62.1558125,158.11634663912426L63.5421875,144.48909684886254L64.9285625,91.50128255622359L66.3149375,133.57418629864438L67.7013125,159.72909719990628L69.0876875,81.28051517361799L70.4740625,-33.91018065156167L71.8604375,56.521896139534206L73.2468125,-6.496575354236436L74.6331875,-9.690391677290759L76.01956249999999,23.435909346039022L77.40593750000001,91.445064040312L78.7923125,127.55471430005605L80.17868750000001,96.10074321666288L81.5650625,41.7794914378968L82.9514375,58.925372464327594L84.3378125,55.4167882448501L85.7241875,100.57580376470271L87.1105625,139.9027091093302L88.4969375,77.5745829694714L89.88331249999999,57.284800302352416L91.2696875,90.3133093520198L92.65606249999999,118.28283887419033L94.0424375,122.01228724347334L95.4288125,133.33709298101235L96.8151875,150.7513209857732L98.20156250000001,169.9905810824297L99.5879375,119.56886527895131L100.97431250000001,147.54250774679858L102.3606875,104.01542130626956L103.74706250000001,19.48456906960279L105.1334375,86.94515050772206L106.5198125,59.19733808826507L107.9061875,112.05975241152451L109.2925625,125.90791596584845L110.67893749999999,141.4300892926092L112.0653125,115.64051918845037L113.45168749999999,148.35148370585506L114.8380625,143.24319596482292L116.2244375,148.4624365353167L117.61081250000001,147.3499865522134L118.9971875,71.47618095815982L120.3835625,116.95576864028484L121.7699375,113.24121304478952L123.1563125,128.58874973134226L124.54268750000001,145.2866612373354L125.9290625,150.54888934484495L127.3154375,138.87800131196602L128.7018125,163.07405590239063L130.0881875,173.11806826426323L131.4745625,7.480572251282511L132.8609375,69.22012957799579L134.2473125,115.55677271704761L135.6336875,109.55824341071181L138.4064375,144.16479748006185L139.7928125,167.4076958746643L141.1791875,99.54916118686982L142.5655625,104.44734588328355L143.9519375,56.519187873979526L145.3383125,94.29647531889685L146.72468750000002,58.17291630973106L148.1110625,115.74863601651602L149.4974375,149.86373705373293L150.8838125,140.0293857974177L152.2701875,3.121012730739392L153.6565625,71.14084095856064L155.04293750000002,18.399874252679997L156.42931249999998,-5.644209597943386L157.8156875,38.86567774150482L159.2020625,41.85405265530174L160.58843750000003,102.69458303445715L161.97481249999998,119.16995108481728L163.3611875,79.62257025454332L164.74756250000002,77.68796249517138L166.1339375,69.14702832870684L167.5203125,101.72640592558979" style="fill: none;" fill="none"></path></g></g></g></g><g opacity="0.2"><g><g><g><path stroke="rgb(51, 187, 238)" stroke-width="2px" d="M31.655562500000002,-6.628628134727491L33.0419375,15.17573559284209L34.4283125,201.29673678055406L35.8146875,201.79669903218746L37.2010625,58.564547836780534L38.5874375,199.85623785853386L39.9738125,157.4492502361536L41.360187499999995,107.16315442323686L42.746562499999996,165.7270613461733L44.1329375,193.05663430690765L45.5193125,150.34091787040234L46.9056875,187.17040771245956L48.29206249999999,180.9604317098856L49.678437499999994,3.820131361484508L51.0648125,5.7512074112891955L52.4511875,131.56642818450928L53.837562500000004,202.84057179559022L55.223937500000005,195.44996287301183L56.6103125,119.61124861240386L57.9966875,192.8031623326242L59.3830625,100.2029531598091L60.7694375,124.74209362268446L62.1558125,176.1205123513937L63.5421875,165.30186028778553L64.9285625,143.14572805166245L66.3149375,203.6406857483089L69.0876875,203.01499937754124L70.4740625,68.01288390159606L71.8604375,39.687059164047234L73.2468125,44.950641036033616L74.6331875,104.61012819409372L76.01956249999999,191.51382984220982L77.40593750000001,166.78088547289371L78.7923125,-24.269917964935328L80.17868750000001,193.13130758330226L81.5650625,99.45553684234618L82.9514375,58.737796783447244L84.3378125,196.93091893196106L85.7241875,120.1283491551876L87.1105625,121.19201117753981L88.4969375,131.64146521687508L89.88331249999999,4.423170626163463L91.2696875,68.3523572385311L92.65606249999999,203.31951999664307L94.0424375,139.97893230617046L95.4288125,100.66574746370316L96.8151875,168.6600729972124L98.20156250000001,164.38821078836918L99.5879375,163.43293265998363L100.97431250000001,67.95974695682526L102.3606875,83.23504486680031L103.74706250000001,151.09780722856522L105.1334375,78.05546754598616L106.5198125,201.62830254621804L107.9061875,110.81449070572855L109.2925625,7.9200633764266835L110.67893749999999,199.64778755418956L113.45168749999999,-5.675468802452087L114.8380625,110.57832846045496L116.2244375,165.38726711273193L117.61081250000001,108.39140558242796L118.9971875,139.61373449862003L120.3835625,184.12820772826672L121.7699375,32.98543894290923L123.1563125,62.734901249408715L124.54268750000001,102.1477002799511L125.9290625,-69.09595972299579L127.3154375,-36.29456943273547L128.7018125,122.99196803569794L130.0881875,102.73849272727965L131.4745625,-14.438211679458618L132.8609375,121.46437758207321L134.2473125,85.95340752601622L135.6336875,116.37851962447168L137.0200625,101.00107112526894L138.4064375,18.664346575736992L139.7928125,200.18365065194666L141.1791875,7.946526348590845L142.5655625,196.87612365558743L143.9519375,38.46097075939176L145.3383125,-41.237905383110046L146.72468750000002,-186.03396987915036L148.1110625,132.20852890610695L149.4974375,43.193024933338144L150.8838125,147.83937135338783L152.2701875,140.48315742611885L153.6565625,-184.61456990242002L155.04293750000002,37.083436787128434L156.42931249999998,92.03126648068428L157.8156875,58.49912011623382L159.2020625,197.12011379748583L160.58843750000003,69.62978029251097L161.97481249999998,91.94291004538536L163.3611875,13.85272765159605L164.74756250000002,198.81272253207862L168.9066875,-8.23247766494751L170.2930625,176.24119141697884L171.6794375,52.121121823787675L173.0658125,202.01578672602773L174.4521875,-9.758890032768276L175.8385625,43.895621240139L177.2249375,-16.626919269561768L178.6113125,204.407377560623L179.99768749999998,140.42868414521217L181.3840625,200.59320031292737L182.7704375,189.72552856057882L184.15681249999997,140.64371997117996L185.5431875,198.89764691330492L186.9295625,106.81051114201544L188.31593750000002,-67.30206912755968L189.7023125,96.14646086096764L191.0886875,40.10339820384977L192.4750625,122.91874209046365L193.8614375,32.48098963499068L195.2478125,77.02356109023094L196.6341875,-138.24665999412537L198.02056249999998,118.03771281242369L199.4069375,46.02245295047759L200.7933125,129.89999943971634L202.1796875,164.2030974626541L203.5660625,130.85436323285103L204.9524375,56.273927032947526L206.33881250000002,157.23778823018074L207.72518749999998,127.53616148233412L209.1115625,201.95919519849122L210.4979375,204.73849495034665L211.88431250000002,46.45514452457426L213.27068749999998,-68.97514438629152L214.6570625,114.21549254655837L216.0434375,-96.27986764907838L221.5889375,-6.286895334720612L222.9753125,27.084160983562462L224.36168750000002,177.8615297526121L228.5208125,190.9916169345379L229.90718750000002,137.52981939911842L231.29356249999998,-7.08729034662248L232.6799375,200.9728032965213L234.0663125,91.62046620249748L235.4526875,99.77498272061348L236.83906249999998,164.1141431927681L238.2254375,-39.28579962253572L240.9981875,202.7745176674798L242.3845625,108.4095428287983L243.7709375,10.39773607254027L245.1573125,182.91863230615854L246.5436875,32.56505572795867L247.93006250000002,176.81080029904842L249.31643749999998,105.17171466350555L250.7028125,171.29364205151796L252.0891875,148.37629275023937L253.47556250000002,157.05989287793636L254.86193749999998,198.27681492641568L257.6346875,-130.9484360218048L259.0210625,152.0306577682495L260.4074375,155.8780618160963L261.7938125,42.447402119636514L263.1801875,181.69474182277918L264.56656250000003,-106.34406125545503L265.95293749999996,176.0869391039014L267.3393125,202.72921768575907L268.7256875,203.33689291588962L270.11206250000004,77.17181527614594" style="fill: none;" fill="none"></path></g><g><path stroke="rgb(204, 51, 17)" stroke-width="2px" d="M31.655562500000002,155.03064447641373L33.0419375,202.07792196050286L34.4283125,181.45723884552717L35.8146875,141.21488937735558L38.5874375,5.865587234497064L39.9738125,186.77434449642897L41.360187499999995,100.22645333409308L42.746562499999996,182.13368648290634L46.9056875,-16.17555415630342L48.29206249999999,28.40978884696959L49.678437499999994,155.93734414875507L51.0648125,94.72441458702087L52.4511875,176.62074384838343L53.837562500000004,-93.06066906452179L55.223937500000005,15.194162964820842L56.6103125,141.74819299578667L57.9966875,189.8259867504239L59.3830625,22.562773168086984L60.7694375,201.765640206635L62.1558125,200.72411839477718L63.5421875,124.04849120974542L64.9285625,12.020188808441143L66.3149375,196.68324287608266L74.6331875,-14.481115102767957L76.01956249999999,73.12535429000854L77.40593750000001,193.4587879627943L78.7923125,181.71918710321188L80.17868750000001,48.91978794336317L81.5650625,-39.70238482952121L82.9514375,84.64419373869895L84.3378125,50.153911948204026L85.7241875,168.3143267929554L87.1105625,198.89306699484587L88.4969375,-15.917606115341199L89.88331249999999,26.850126326084123L91.2696875,139.85607290267944L92.65606249999999,160.23713314533234L94.0424375,127.6064597964287L95.4288125,150.32430158555508L96.8151875,176.87266299128532L98.20156250000001,198.84947122633457L99.5879375,43.93629157543182L100.97431250000001,189.50297144800425L102.3606875,38.724791646003716L103.74706250000001,-107.31170928478242L105.1334375,188.13602266460657L106.5198125,17.5756194591522L107.9061875,191.3533738963306L109.2925625,146.68016129732132L110.67893749999999,164.71334928274155L112.0653125,76.95616403222083L113.45168749999999,197.4179304819554L114.8380625,135.5807643532753L116.2244375,156.29129739105701L117.61081250000001,145.68131157755852L118.9971875,-42.33452743291855L120.3835625,185.1751501634717L121.7699375,107.66937965154648L123.1563125,151.61005476117134L124.54268750000001,170.33352849632502L125.9290625,158.44223150610924L127.3154375,121.37166926264763L128.7018125,199.36813778802752L131.4745625,-240.97567176818848L132.8609375,161.82946556806564L134.2473125,185.06173742562532L135.6336875,100.56044945120811L138.4064375,196.0746285840869L141.1791875,-2.23864084482193L142.5655625,111.79462292790413L143.9519375,-15.373049139976501L145.3383125,150.9624064862728L146.72468750000002,3.987577795982354L148.1110625,202.11221557669342L149.4974375,201.03638860955834L150.8838125,125.27785891294481L152.2701875,-202.24154686927793L153.6565625,173.1705833002925L155.04293750000002,-60.711575806140914L156.42931249999998,-41.71033537387848L157.8156875,105.63050875067711L159.2020625,46.33661502599714L160.58843750000003,193.95537860319018L161.97481249999998,143.88300316035748L163.3611875,20.301499009132378L164.74756250000002,74.78605085611342L166.1339375,56.33562707901L167.5203125,150.59547232091427" style="fill: none;" fill="none"></path></g></g></g></g></g></g><g transform="translate(41, 177)" clip-path="url(#clip_1)"><clipPath id="clip_1"><rect width="288" height="23"></rect></clipPath><g><g><line x1="0" y1="0" x2="0" y2="5" style="visibility: inherit;" fill="rgb(0, 0, 0)" stroke="rgb(204, 204, 204)" stroke-width="1px"></line><line x1="28.8828125" y1="0" x2="28.8828125" y2="5" style="visibility: inherit;" fill="rgb(0, 0, 0)" stroke="rgb(204, 204, 204)" stroke-width="1px"></line><line x1="57.765625" y1="0" x2="57.765625" y2="5" style="visibility: inherit;" fill="rgb(0, 0, 0)" stroke="rgb(204, 204, 204)" stroke-width="1px"></line><line x1="86.6484375" y1="0" x2="86.6484375" y2="5" style="visibility: inherit;" fill="rgb(0, 0, 0)" stroke="rgb(204, 204, 204)" stroke-width="1px"></line><line x1="115.53125" y1="0" x2="115.53125" y2="5" style="visibility: inherit;" fill="rgb(0, 0, 0)" stroke="rgb(204, 204, 204)" stroke-width="1px"></line><line x1="144.4140625" y1="0" x2="144.4140625" y2="5" style="visibility: inherit;" fill="rgb(0, 0, 0)" stroke="rgb(204, 204, 204)" stroke-width="1px"></line><line x1="173.296875" y1="0" x2="173.296875" y2="5" style="visibility: inherit;" fill="rgb(0, 0, 0)" stroke="rgb(204, 204, 204)" stroke-width="1px"></line><line x1="202.1796875" y1="0" x2="202.1796875" y2="5" style="visibility: inherit;" fill="rgb(0, 0, 0)" stroke="rgb(204, 204, 204)" stroke-width="1px"></line><line x1="231.0625" y1="0" x2="231.0625" y2="5" style="visibility: inherit;" fill="rgb(0, 0, 0)" stroke="rgb(204, 204, 204)" stroke-width="1px"></line><line x1="259.9453125" y1="0" x2="259.9453125" y2="5" style="visibility: inherit;" fill="rgb(0, 0, 0)" stroke="rgb(204, 204, 204)" stroke-width="1px"></line><line x1="288.828125" y1="0" x2="288.828125" y2="5" style="visibility: inherit;" fill="rgb(0, 0, 0)" stroke="rgb(204, 204, 204)" stroke-width="1px"></line></g><g transform="translate(0, 8)"><text x="0" y="0" dx="0em" dy="0.95em" style="text-anchor: middle; visibility: hidden; font-family: Roboto, sans-serif; font-size: 12px; font-weight: 200;" fill="rgb(33, 33, 33)" stroke="none" stroke-width="1px">-500k</text><text x="28.8828125" y="0" dx="0em" dy="0.95em" style="text-anchor: middle; visibility: inherit; font-family: Roboto, sans-serif; font-size: 12px; font-weight: 200;" fill="rgb(33, 33, 33)" stroke="none" stroke-width="1px">0</text><text x="57.765625" y="0" dx="0em" dy="0.95em" style="text-anchor: middle; visibility: inherit; font-family: Roboto, sans-serif; font-size: 12px; font-weight: 200;" fill="rgb(33, 33, 33)" stroke="none" stroke-width="1px">500k</text><text x="86.6484375" y="0" dx="0em" dy="0.95em" style="text-anchor: middle; visibility: inherit; font-family: Roboto, sans-serif; font-size: 12px; font-weight: 200;" fill="rgb(33, 33, 33)" stroke="none" stroke-width="1px">1M</text><text x="115.53125" y="0" dx="0em" dy="0.95em" style="text-anchor: middle; visibility: inherit; font-family: Roboto, sans-serif; font-size: 12px; font-weight: 200;" fill="rgb(33, 33, 33)" stroke="none" stroke-width="1px">1.5M</text><text x="144.4140625" y="0" dx="0em" dy="0.95em" style="text-anchor: middle; visibility: inherit; font-family: Roboto, sans-serif; font-size: 12px; font-weight: 200;" fill="rgb(33, 33, 33)" stroke="none" stroke-width="1px">2M</text><text x="173.296875" y="0" dx="0em" dy="0.95em" style="text-anchor: middle; visibility: inherit; font-family: Roboto, sans-serif; font-size: 12px; font-weight: 200;" fill="rgb(33, 33, 33)" stroke="none" stroke-width="1px">2.5M</text><text x="202.1796875" y="0" dx="0em" dy="0.95em" style="text-anchor: middle; visibility: inherit; font-family: Roboto, sans-serif; font-size: 12px; font-weight: 200;" fill="rgb(33, 33, 33)" stroke="none" stroke-width="1px">3M</text><text x="231.0625" y="0" dx="0em" dy="0.95em" style="text-anchor: middle; visibility: inherit; font-family: Roboto, sans-serif; font-size: 12px; font-weight: 200;" fill="rgb(33, 33, 33)" stroke="none" stroke-width="1px">3.5M</text><text x="259.9453125" y="0" dx="0em" dy="0.95em" style="text-anchor: middle; visibility: inherit; font-family: Roboto, sans-serif; font-size: 12px; font-weight: 200;" fill="rgb(33, 33, 33)" stroke="none" stroke-width="1px">4M</text><text x="288.828125" y="0" dx="0em" dy="0.95em" style="text-anchor: middle; visibility: hidden; font-family: Roboto, sans-serif; font-size: 12px; font-weight: 200;" fill="rgb(33, 33, 33)" stroke="none" stroke-width="1px">4.5M</text></g><line x1="0" y1="0" x2="288.828125" y2="0" fill="rgb(0, 0, 0)" stroke="rgb(204, 204, 204)" stroke-width="1px"></line></g></g></g></g></svg>