<svg viewBox="0 0 330 200" xmlns="http://www.w3.org/2000/svg"><g><g><g><g><g><line x1="72.34375" y1="177" x2="67.34375" y2="177" style="visibility: inherit;" fill="rgb(0, 0, 0)" stroke="rgb(204, 204, 204)" stroke-width="1px"></line><line x1="72.34375" y1="162.25000070058738" x2="67.34375" y2="162.25000070058738" style="visibility: inherit;" fill="rgb(0, 0, 0)" stroke="rgb(204, 204, 204)" stroke-width="1px"></line><line x1="72.34375" y1="147.50000140117473" x2="67.34375" y2="147.50000140117473" style="visibility: inherit;" fill="rgb(0, 0, 0)" stroke="rgb(204, 204, 204)" stroke-width="1px"></line><line x1="72.34375" y1="132.75000210176213" x2="67.34375" y2="132.75000210176213" style="visibility: inherit;" fill="rgb(0, 0, 0)" stroke="rgb(204, 204, 204)" stroke-width="1px"></line><line x1="72.34375" y1="118.00000280234948" x2="67.34375" y2="118.00000280234948" style="visibility: inherit;" fill="rgb(0, 0, 0)" stroke="rgb(204, 204, 204)" stroke-width="1px"></line><line x1="72.34375" y1="103.25000350293686" x2="67.34375" y2="103.25000350293686" style="visibility: inherit;" fill="rgb(0, 0, 0)" stroke="rgb(204, 204, 204)" stroke-width="1px"></line><line x1="72.34375" y1="88.50000420352424" x2="67.34375" y2="88.50000420352424" style="visibility: inherit;" fill="rgb(0, 0, 0)" stroke="rgb(204, 204, 204)" stroke-width="1px"></line><line x1="72.34375" y1="73.75000490411162" x2="67.34375" y2="73.75000490411162" style="visibility: inherit;" fill="rgb(0, 0, 0)" stroke="rgb(204, 204, 204)" stroke-width="1px"></line><line x1="72.34375" y1="59.000005604698984" x2="67.34375" y2="59.000005604698984" style="visibility: inherit;" fill="rgb(0, 0, 0)" stroke="rgb(204, 204, 204)" stroke-width="1px"></line><line x1="72.34375" y1="44.25000630528637" x2="67.34375" y2="44.25000630528637" style="visibility: inherit;" fill="rgb(0, 0, 0)" stroke="rgb(204, 204, 204)" stroke-width="1px"></line><line x1="72.34375" y1="29.500007005873726" x2="67.34375" y2="29.500007005873726" style="visibility: inherit;" fill="rgb(0, 0, 0)" stroke="rgb(204, 204, 204)" stroke-width="1px"></line><line x1="72.34375" y1="14.750007706461108" x2="67.34375" y2="14.750007706461108" style="visibility: inherit;" fill="rgb(0, 0, 0)" stroke="rgb(204, 204, 204)" stroke-width="1px"></line><line x1="72.34375" y1="0.000008407048488034974" x2="67.34375" y2="0.000008407048488034974" style="visibility: inherit;" fill="rgb(0, 0, 0)" stroke="rgb(204, 204, 204)" stroke-width="1px"></line></g><g transform="translate(62.34375, 0)"><text x="0" y="177" dx="0em" dy="0.3em" style="text-anchor: end; visibility: hidden; font-family: Roboto, sans-serif; font-size: 12px; font-weight: 200;" fill="rgb(33, 33, 33)" stroke="none" stroke-width="1px">0</text><text x="0" y="162.25000070058738" dx="0em" dy="0.3em" style="text-anchor: end; visibility: inherit; font-family: Roboto, sans-serif; font-size: 12px; font-weight: 200;" fill="rgb(33, 33, 33)" stroke="none" stroke-width="1px">5e-5</text><text x="0" y="147.50000140117473" dx="0em" dy="0.3em" style="text-anchor: end; visibility: hidden; font-family: Roboto, sans-serif; font-size: 12px; font-weight: 200;" fill="rgb(33, 33, 33)" stroke="none" stroke-width="1px">1e-4</text><text x="0" y="132.75000210176213" dx="0em" dy="0.3em" style="text-anchor: end; visibility: inherit; font-family: Roboto, sans-serif; font-size: 12px; font-weight: 200;" fill="rgb(33, 33, 33)" stroke="none" stroke-width="1px">1.5e-4</text><text x="0" y="118.00000280234948" dx="0em" dy="0.3em" style="text-anchor: end; visibility: hidden; font-family: Roboto, sans-serif; font-size: 12px; font-weight: 200;" fill="rgb(33, 33, 33)" stroke="none" stroke-width="1px">2e-4</text><text x="0" y="103.25000350293686" dx="0em" dy="0.3em" style="text-anchor: end; visibility: inherit; font-family: Roboto, sans-serif; font-size: 12px; font-weight: 200;" fill="rgb(33, 33, 33)" stroke="none" stroke-width="1px">2.5e-4</text><text x="0" y="88.50000420352424" dx="0em" dy="0.3em" style="text-anchor: end; visibility: hidden; font-family: Roboto, sans-serif; font-size: 12px; font-weight: 200;" fill="rgb(33, 33, 33)" stroke="none" stroke-width="1px">3e-4</text><text x="0" y="73.75000490411162" dx="0em" dy="0.3em" style="text-anchor: end; visibility: inherit; font-family: Roboto, sans-serif; font-size: 12px; font-weight: 200;" fill="rgb(33, 33, 33)" stroke="none" stroke-width="1px">3.5e-4</text><text x="0" y="59.000005604698984" dx="0em" dy="0.3em" style="text-anchor: end; visibility: hidden; font-family: Roboto, sans-serif; font-size: 12px; font-weight: 200;" fill="rgb(33, 33, 33)" stroke="none" stroke-width="1px">4e-4</text><text x="0" y="44.25000630528637" dx="0em" dy="0.3em" style="text-anchor: end; visibility: inherit; font-family: Roboto, sans-serif; font-size: 12px; font-weight: 200;" fill="rgb(33, 33, 33)" stroke="none" stroke-width="1px">4.5e-4</text><text x="0" y="29.500007005873726" dx="0em" dy="0.3em" style="text-anchor: end; visibility: hidden; font-family: Roboto, sans-serif; font-size: 12px; font-weight: 200;" fill="rgb(33, 33, 33)" stroke="none" stroke-width="1px">5e-4</text><text x="0" y="14.750007706461108" dx="0em" dy="0.3em" style="text-anchor: end; visibility: inherit; font-family: Roboto, sans-serif; font-size: 12px; font-weight: 200;" fill="rgb(33, 33, 33)" stroke="none" stroke-width="1px">5.5e-4</text><text x="0" y="0.000008407048488034974" dx="0em" dy="0.3em" style="text-anchor: end; visibility: hidden; font-family: Roboto, sans-serif; font-size: 12px; font-weight: 200;" fill="rgb(33, 33, 33)" stroke="none" stroke-width="1px">6e-4</text></g><line x1="72.34375" y1="0" x2="72.34375" y2="177" fill="rgb(0, 0, 0)" stroke="rgb(204, 204, 204)" stroke-width="1px"></line></g></g><g transform="translate(72, 0)" clip-path="url(#clip_0)"><clipPath id="clip_0"><rect width="257" height="177"></rect></clipPath><g><g><g><line x1="0" y1="0" x2="0" y2="177" fill="rgb(0, 0, 0)" stroke="rgb(66, 66, 66)" stroke-width="1px" opacity="0.25"></line><line x1="25.765625" y1="0" x2="25.765625" y2="177" fill="rgb(0, 0, 0)" stroke="rgb(66, 66, 66)" stroke-width="1px" opacity="0.25"></line><line x1="51.53125" y1="0" x2="51.53125" y2="177" fill="rgb(0, 0, 0)" stroke="rgb(66, 66, 66)" stroke-width="1px" opacity="0.25"></line><line x1="77.296875" y1="0" x2="77.296875" y2="177" fill="rgb(0, 0, 0)" stroke="rgb(66, 66, 66)" stroke-width="1px" opacity="0.25"></line><line x1="103.0625" y1="0" x2="103.0625" y2="177" fill="rgb(0, 0, 0)" stroke="rgb(66, 66, 66)" stroke-width="1px" opacity="0.25"></line><line x1="128.828125" y1="0" x2="128.828125" y2="177" fill="rgb(0, 0, 0)" stroke="rgb(66, 66, 66)" stroke-width="1px" opacity="0.25"></line><line x1="154.59375" y1="0" x2="154.59375" y2="177" fill="rgb(0, 0, 0)" stroke="rgb(66, 66, 66)" stroke-width="1px" opacity="0.25"></line><line x1="180.359375" y1="0" x2="180.359375" y2="177" fill="rgb(0, 0, 0)" stroke="rgb(66, 66, 66)" stroke-width="1px" opacity="0.25"></line><line x1="206.125" y1="0" x2="206.125" y2="177" fill="rgb(0, 0, 0)" stroke="rgb(66, 66, 66)" stroke-width="1px" opacity="0.25"></line><line x1="231.890625" y1="0" x2="231.890625" y2="177" fill="rgb(0, 0, 0)" stroke="rgb(66, 66, 66)" stroke-width="1px" opacity="0.25"></line><line x1="257.65625" y1="0" x2="257.65625" y2="177" fill="rgb(0, 0, 0)" stroke="rgb(66, 66, 66)" stroke-width="1px" opacity="0.25"></line></g><g><line x1="0" y1="177" x2="257.65625" y2="177" fill="rgb(0, 0, 0)" stroke="rgb(66, 66, 66)" stroke-width="1px" opacity="0.25"></line><line x1="0" y1="162.25000070058738" x2="257.65625" y2="162.25000070058738" fill="rgb(0, 0, 0)" stroke="rgb(66, 66, 66)" stroke-width="1px" opacity="0.25"></line><line x1="0" y1="147.50000140117473" x2="257.65625" y2="147.50000140117473" fill="rgb(0, 0, 0)" stroke="rgb(66, 66, 66)" stroke-width="1px" opacity="0.25"></line><line x1="0" y1="132.75000210176213" x2="257.65625" y2="132.75000210176213" fill="rgb(0, 0, 0)" stroke="rgb(66, 66, 66)" stroke-width="1px" opacity="0.25"></line><line x1="0" y1="118.00000280234948" x2="257.65625" y2="118.00000280234948" fill="rgb(0, 0, 0)" stroke="rgb(66, 66, 66)" stroke-width="1px" opacity="0.25"></line><line x1="0" y1="103.25000350293686" x2="257.65625" y2="103.25000350293686" fill="rgb(0, 0, 0)" stroke="rgb(66, 66, 66)" stroke-width="1px" opacity="0.25"></line><line x1="0" y1="88.50000420352424" x2="257.65625" y2="88.50000420352424" fill="rgb(0, 0, 0)" stroke="rgb(66, 66, 66)" stroke-width="1px" opacity="0.25"></line><line x1="0" y1="73.75000490411162" x2="257.65625" y2="73.75000490411162" fill="rgb(0, 0, 0)" stroke="rgb(66, 66, 66)" stroke-width="1px" opacity="0.25"></line><line x1="0" y1="59.000005604698984" x2="257.65625" y2="59.000005604698984" fill="rgb(0, 0, 0)" stroke="rgb(66, 66, 66)" stroke-width="1px" opacity="0.25"></line><line x1="0" y1="44.25000630528637" x2="257.65625" y2="44.25000630528637" fill="rgb(0, 0, 0)" stroke="rgb(66, 66, 66)" stroke-width="1px" opacity="0.25"></line><line x1="0" y1="29.500007005873726" x2="257.65625" y2="29.500007005873726" fill="rgb(0, 0, 0)" stroke="rgb(66, 66, 66)" stroke-width="1px" opacity="0.25"></line><line x1="0" y1="14.750007706461108" x2="257.65625" y2="14.750007706461108" fill="rgb(0, 0, 0)" stroke="rgb(66, 66, 66)" stroke-width="1px" opacity="0.25"></line><line x1="0" y1="0.000008407048488034974" x2="257.65625" y2="0.000008407048488034974" fill="rgb(0, 0, 0)" stroke="rgb(66, 66, 66)" stroke-width="1px" opacity="0.25"></line></g></g></g><g><g><line x1="0" y1="177" x2="257.65625" y2="177" fill="rgb(0, 0, 0)" stroke="rgb(153, 153, 153)" stroke-width="1.5px"></line></g></g><g><g><line x1="25.765625" y1="0" x2="25.765625" y2="177" fill="rgb(0, 0, 0)" stroke="rgb(153, 153, 153)" stroke-width="1.5px"></line></g></g><g><g><g><g><g><path stroke="rgb(51, 187, 238)" stroke-width="2px" d="M28.239125,88.5L29.475875000000002,88.5L30.712625,88.5L31.949375,88.5L33.186125,88.5L34.422875,88.5L35.659625,88.5L36.896375,88.5L38.133125,88.5L39.369875,88.5L40.606624999999994,88.5L41.843374999999995,88.5L43.080124999999995,88.5L44.316874999999996,88.5L45.553625000000004,88.5L46.790375000000004,88.5L48.027125000000005,88.5L49.263875,88.5L50.500625,88.5L51.737375,88.5L52.974125,88.5L54.210875,88.5L55.447625,88.5L56.684375,88.5L57.921124999999996,88.5L59.157875,88.5L60.394625,88.5L61.631375,88.5L62.868125,88.5L64.10487499999999,88.5L65.341625,88.5L66.57837500000001,88.5L67.815125,88.5L69.05187500000001,88.5L70.288625,88.5L71.525375,88.5L72.762125,88.5L73.998875,88.5L75.235625,88.5L76.472375,88.5L77.709125,88.5L78.945875,88.5L80.18262499999999,88.5L81.419375,88.5L82.65612499999999,88.5L83.892875,88.5L85.129625,88.5L86.366375,88.5L87.603125,88.5L88.83987499999999,88.5L90.076625,88.5L91.313375,88.5L92.55012500000001,88.5L93.786875,88.5L95.02362500000001,88.5L96.260375,88.5L97.497125,88.5L98.733875,88.5L99.970625,88.5L101.207375,88.5L102.444125,88.5L103.680875,88.5L104.917625,88.5L106.15437499999999,88.5L107.391125,88.5L108.62787499999999,88.5L109.864625,88.5L111.101375,88.5L112.338125,88.5L113.574875,88.5L114.81162499999999,88.5L116.04837500000001,88.5L117.285125,88.5L118.52187500000001,88.5L119.758625,88.5L120.99537500000001,88.5L122.232125,88.5L123.468875,88.5L124.705625,88.5L125.942375,88.5L127.179125,88.5L128.415875,88.5L129.652625,88.5L130.889375,88.5L132.126125,88.5L133.36287499999997,88.5L134.599625,88.5L135.836375,88.5L137.073125,88.5L138.309875,88.5L139.546625,88.5L140.783375,88.5L142.020125,88.5L143.256875,88.5L144.49362499999998,88.5L145.730375,88.5L146.967125,88.5L148.203875,88.5L149.44062499999998,88.5L150.67737499999998,88.5L151.914125,88.5L153.150875,88.5L154.38762499999999,88.5L155.624375,88.5L156.86112500000002,88.5L158.09787500000002,88.5L159.334625,88.5L160.571375,88.5L161.808125,88.5L163.04487500000002,88.5L164.281625,88.5L165.518375,88.5L166.755125,88.5L167.991875,88.5L169.22862500000002,88.5L170.465375,88.5L171.702125,88.5L172.938875,88.5L174.17562500000003,88.5L175.412375,88.5L176.649125,88.5L177.885875,88.5L179.122625,88.5L180.359375,88.5L181.596125,88.5L182.832875,88.5L184.069625,88.5L185.30637499999997,88.5L186.543125,88.5L187.779875,88.5L189.016625,88.5L190.25337499999998,88.5L191.490125,88.5L192.726875,88.5L193.963625,88.5L195.200375,88.5L196.43712499999998,88.5L197.673875,88.5L198.910625,88.5L200.147375,88.5L201.38412499999998,88.5L202.62087499999998,88.5L203.857625,88.5L205.094375,88.5L206.331125,88.5L207.567875,88.5L208.80462500000002,88.5L210.04137500000002,88.5L211.278125,88.5L212.514875,88.5L213.751625,88.5L214.98837500000002,88.5L216.225125,88.5L217.461875,88.5L218.698625,88.5L219.935375,88.5L221.17212500000002,88.5L222.408875,88.5L223.645625,88.5L224.882375,88.5L226.11912500000003,88.5L227.355875,88.5L228.592625,88.5L229.829375,88.5L231.066125,88.5L232.302875,88.5L233.539625,88.5L234.776375,88.5L236.013125,88.5L237.24987499999997,88.5L238.486625,88.5L239.723375,88.5L240.960125,88.5" style="fill: none;" fill="none"></path></g><g><path stroke="rgb(204, 51, 17)" stroke-width="2px" d="M28.239125,88.5L29.475875000000002,88.5L30.712625,88.5L31.949375,88.5L34.422875,88.5L35.659625,88.5L36.896375,88.5L38.133125,88.5L39.369875,88.5L40.606624999999994,88.5L41.843374999999995,88.5L43.080124999999995,88.5L44.316874999999996,88.5L45.553625000000004,88.5L46.790375000000004,88.5L48.027125000000005,88.5L49.263875,88.5L50.500625,88.5L51.737375,88.5L52.974125,88.5L54.210875,88.5L55.447625,88.5L56.684375,88.5L57.921124999999996,88.5L59.157875,88.5L60.394625,88.5L61.631375,88.5L62.868125,88.5L64.10487499999999,88.5L65.341625,88.5L66.57837500000001,88.5L67.815125,88.5L69.05187500000001,88.5L70.288625,88.5L71.525375,88.5L72.762125,88.5L73.998875,88.5L75.235625,88.5L76.472375,88.5L77.709125,88.5L78.945875,88.5L80.18262499999999,88.5L81.419375,88.5L82.65612499999999,88.5L83.892875,88.5L85.129625,88.5L86.366375,88.5L87.603125,88.5L88.83987499999999,88.5L90.076625,88.5L91.313375,88.5L92.55012500000001,88.5L93.786875,88.5L95.02362500000001,88.5L96.260375,88.5L97.497125,88.5L98.733875,88.5L99.970625,88.5L101.207375,88.5L102.444125,88.5L103.680875,88.5L104.917625,88.5L106.15437499999999,88.5L107.391125,88.5L108.62787499999999,88.5L109.864625,88.5L111.101375,88.5L112.338125,88.5L113.574875,88.5L114.81162499999999,88.5L116.04837500000001,88.5L117.285125,88.5L118.52187500000001,88.5L119.758625,88.5L120.99537500000001,88.5L123.468875,88.5L124.705625,88.5L125.942375,88.5L127.179125,88.5L128.415875,88.5L129.652625,88.5L130.889375,88.5L132.126125,88.5L133.36287499999997,88.5L134.599625,88.5L135.836375,88.5L137.073125,88.5L138.309875,88.5L139.546625,88.5L140.783375,88.5L142.020125,88.5L143.256875,88.5L144.49362499999998,88.5L145.730375,88.5L146.967125,88.5L148.203875,88.5L149.44062499999998,88.5" style="fill: none;" fill="none"></path></g></g></g></g><g opacity="0.2"><g><g><g><path stroke="rgb(51, 187, 238)" stroke-width="2px" d="M28.239125,88.5L29.475875000000002,88.5L30.712625,88.5L31.949375,88.5L33.186125,88.5L34.422875,88.5L35.659625,88.5L36.896375,88.5L38.133125,88.5L39.369875,88.5L40.606624999999994,88.5L41.843374999999995,88.5L43.080124999999995,88.5L44.316874999999996,88.5L45.553625000000004,88.5L46.790375000000004,88.5L48.027125000000005,88.5L49.263875,88.5L50.500625,88.5L51.737375,88.5L52.974125,88.5L54.210875,88.5L55.447625,88.5L56.684375,88.5L57.921124999999996,88.5L59.157875,88.5L60.394625,88.5L61.631375,88.5L62.868125,88.5L64.10487499999999,88.5L65.341625,88.5L66.57837500000001,88.5L67.815125,88.5L69.05187500000001,88.5L70.288625,88.5L71.525375,88.5L72.762125,88.5L73.998875,88.5L75.235625,88.5L76.472375,88.5L77.709125,88.5L78.945875,88.5L80.18262499999999,88.5L81.419375,88.5L82.65612499999999,88.5L83.892875,88.5L85.129625,88.5L86.366375,88.5L87.603125,88.5L88.83987499999999,88.5L90.076625,88.5L91.313375,88.5L92.55012500000001,88.5L93.786875,88.5L95.02362500000001,88.5L96.260375,88.5L97.497125,88.5L98.733875,88.5L99.970625,88.5L101.207375,88.5L102.444125,88.5L103.680875,88.5L104.917625,88.5L106.15437499999999,88.5L107.391125,88.5L108.62787499999999,88.5L109.864625,88.5L111.101375,88.5L112.338125,88.5L113.574875,88.5L114.81162499999999,88.5L116.04837500000001,88.5L117.285125,88.5L118.52187500000001,88.5L119.758625,88.5L120.99537500000001,88.5L122.232125,88.5L123.468875,88.5L124.705625,88.5L125.942375,88.5L127.179125,88.5L128.415875,88.5L129.652625,88.5L130.889375,88.5L132.126125,88.5L133.36287499999997,88.5L134.599625,88.5L135.836375,88.5L137.073125,88.5L138.309875,88.5L139.546625,88.5L140.783375,88.5L142.020125,88.5L143.256875,88.5L144.49362499999998,88.5L145.730375,88.5L146.967125,88.5L148.203875,88.5L149.44062499999998,88.5L150.67737499999998,88.5L151.914125,88.5L153.150875,88.5L154.38762499999999,88.5L155.624375,88.5L156.86112500000002,88.5L158.09787500000002,88.5L159.334625,88.5L160.571375,88.5L161.808125,88.5L163.04487500000002,88.5L164.281625,88.5L165.518375,88.5L166.755125,88.5L167.991875,88.5L169.22862500000002,88.5L170.465375,88.5L171.702125,88.5L172.938875,88.5L174.17562500000003,88.5L175.412375,88.5L176.649125,88.5L177.885875,88.5L179.122625,88.5L180.359375,88.5L181.596125,88.5L182.832875,88.5L184.069625,88.5L185.30637499999997,88.5L186.543125,88.5L187.779875,88.5L189.016625,88.5L190.25337499999998,88.5L191.490125,88.5L192.726875,88.5L193.963625,88.5L195.200375,88.5L196.43712499999998,88.5L197.673875,88.5L198.910625,88.5L200.147375,88.5L201.38412499999998,88.5L202.62087499999998,88.5L203.857625,88.5L205.094375,88.5L206.331125,88.5L207.567875,88.5L208.80462500000002,88.5L210.04137500000002,88.5L211.278125,88.5L212.514875,88.5L213.751625,88.5L214.98837500000002,88.5L216.225125,88.5L217.461875,88.5L218.698625,88.5L219.935375,88.5L221.17212500000002,88.5L222.408875,88.5L223.645625,88.5L224.882375,88.5L226.11912500000003,88.5L227.355875,88.5L228.592625,88.5L229.829375,88.5L231.066125,88.5L232.302875,88.5L233.539625,88.5L234.776375,88.5L236.013125,88.5L237.24987499999997,88.5L238.486625,88.5L239.723375,88.5L240.960125,88.5" style="fill: none;" fill="none"></path></g><g><path stroke="rgb(204, 51, 17)" stroke-width="2px" d="M28.239125,88.5L29.475875000000002,88.5L30.712625,88.5L31.949375,88.5L34.422875,88.5L35.659625,88.5L36.896375,88.5L38.133125,88.5L39.369875,88.5L40.606624999999994,88.5L41.843374999999995,88.5L43.080124999999995,88.5L44.316874999999996,88.5L45.553625000000004,88.5L46.790375000000004,88.5L48.027125000000005,88.5L49.263875,88.5L50.500625,88.5L51.737375,88.5L52.974125,88.5L54.210875,88.5L55.447625,88.5L56.684375,88.5L57.921124999999996,88.5L59.157875,88.5L60.394625,88.5L61.631375,88.5L62.868125,88.5L64.10487499999999,88.5L65.341625,88.5L66.57837500000001,88.5L67.815125,88.5L69.05187500000001,88.5L70.288625,88.5L71.525375,88.5L72.762125,88.5L73.998875,88.5L75.235625,88.5L76.472375,88.5L77.709125,88.5L78.945875,88.5L80.18262499999999,88.5L81.419375,88.5L82.65612499999999,88.5L83.892875,88.5L85.129625,88.5L86.366375,88.5L87.603125,88.5L88.83987499999999,88.5L90.076625,88.5L91.313375,88.5L92.55012500000001,88.5L93.786875,88.5L95.02362500000001,88.5L96.260375,88.5L97.497125,88.5L98.733875,88.5L99.970625,88.5L101.207375,88.5L102.444125,88.5L103.680875,88.5L104.917625,88.5L106.15437499999999,88.5L107.391125,88.5L108.62787499999999,88.5L109.864625,88.5L111.101375,88.5L112.338125,88.5L113.574875,88.5L114.81162499999999,88.5L116.04837500000001,88.5L117.285125,88.5L118.52187500000001,88.5L119.758625,88.5L120.99537500000001,88.5L123.468875,88.5L124.705625,88.5L125.942375,88.5L127.179125,88.5L128.415875,88.5L129.652625,88.5L130.889375,88.5L132.126125,88.5L133.36287499999997,88.5L134.599625,88.5L135.836375,88.5L137.073125,88.5L138.309875,88.5L139.546625,88.5L140.783375,88.5L142.020125,88.5L143.256875,88.5L144.49362499999998,88.5L145.730375,88.5L146.967125,88.5L148.203875,88.5L149.44062499999998,88.5" style="fill: none;" fill="none"></path></g></g></g></g></g></g><g transform="translate(72, 177)" clip-path="url(#clip_1)"><clipPath id="clip_1"><rect width="257" height="23"></rect></clipPath><g><g><line x1="0" y1="0" x2="0" y2="5" style="visibility: inherit;" fill="rgb(0, 0, 0)" stroke="rgb(204, 204, 204)" stroke-width="1px"></line><line x1="25.765625" y1="0" x2="25.765625" y2="5" style="visibility: inherit;" fill="rgb(0, 0, 0)" stroke="rgb(204, 204, 204)" stroke-width="1px"></line><line x1="51.53125" y1="0" x2="51.53125" y2="5" style="visibility: inherit;" fill="rgb(0, 0, 0)" stroke="rgb(204, 204, 204)" stroke-width="1px"></line><line x1="77.296875" y1="0" x2="77.296875" y2="5" style="visibility: inherit;" fill="rgb(0, 0, 0)" stroke="rgb(204, 204, 204)" stroke-width="1px"></line><line x1="103.0625" y1="0" x2="103.0625" y2="5" style="visibility: inherit;" fill="rgb(0, 0, 0)" stroke="rgb(204, 204, 204)" stroke-width="1px"></line><line x1="128.828125" y1="0" x2="128.828125" y2="5" style="visibility: inherit;" fill="rgb(0, 0, 0)" stroke="rgb(204, 204, 204)" stroke-width="1px"></line><line x1="154.59375" y1="0" x2="154.59375" y2="5" style="visibility: inherit;" fill="rgb(0, 0, 0)" stroke="rgb(204, 204, 204)" stroke-width="1px"></line><line x1="180.359375" y1="0" x2="180.359375" y2="5" style="visibility: inherit;" fill="rgb(0, 0, 0)" stroke="rgb(204, 204, 204)" stroke-width="1px"></line><line x1="206.125" y1="0" x2="206.125" y2="5" style="visibility: inherit;" fill="rgb(0, 0, 0)" stroke="rgb(204, 204, 204)" stroke-width="1px"></line><line x1="231.890625" y1="0" x2="231.890625" y2="5" style="visibility: inherit;" fill="rgb(0, 0, 0)" stroke="rgb(204, 204, 204)" stroke-width="1px"></line><line x1="257.65625" y1="0" x2="257.65625" y2="5" style="visibility: inherit;" fill="rgb(0, 0, 0)" stroke="rgb(204, 204, 204)" stroke-width="1px"></line></g><g transform="translate(0, 8)"><text x="0" y="0" dx="0em" dy="0.95em" style="text-anchor: middle; visibility: hidden; font-family: Roboto, sans-serif; font-size: 12px; font-weight: 200;" fill="rgb(33, 33, 33)" stroke="none" stroke-width="1px">-500k</text><text x="25.765625" y="0" dx="0em" dy="0.95em" style="text-anchor: middle; visibility: inherit; font-family: Roboto, sans-serif; font-size: 12px; font-weight: 200;" fill="rgb(33, 33, 33)" stroke="none" stroke-width="1px">0</text><text x="51.53125" y="0" dx="0em" dy="0.95em" style="text-anchor: middle; visibility: hidden; font-family: Roboto, sans-serif; font-size: 12px; font-weight: 200;" fill="rgb(33, 33, 33)" stroke="none" stroke-width="1px">500k</text><text x="77.296875" y="0" dx="0em" dy="0.95em" style="text-anchor: middle; visibility: inherit; font-family: Roboto, sans-serif; font-size: 12px; font-weight: 200;" fill="rgb(33, 33, 33)" stroke="none" stroke-width="1px">1M</text><text x="103.0625" y="0" dx="0em" dy="0.95em" style="text-anchor: middle; visibility: hidden; font-family: Roboto, sans-serif; font-size: 12px; font-weight: 200;" fill="rgb(33, 33, 33)" stroke="none" stroke-width="1px">1.5M</text><text x="128.828125" y="0" dx="0em" dy="0.95em" style="text-anchor: middle; visibility: inherit; font-family: Roboto, sans-serif; font-size: 12px; font-weight: 200;" fill="rgb(33, 33, 33)" stroke="none" stroke-width="1px">2M</text><text x="154.59375" y="0" dx="0em" dy="0.95em" style="text-anchor: middle; visibility: hidden; font-family: Roboto, sans-serif; font-size: 12px; font-weight: 200;" fill="rgb(33, 33, 33)" stroke="none" stroke-width="1px">2.5M</text><text x="180.359375" y="0" dx="0em" dy="0.95em" style="text-anchor: middle; visibility: inherit; font-family: Roboto, sans-serif; font-size: 12px; font-weight: 200;" fill="rgb(33, 33, 33)" stroke="none" stroke-width="1px">3M</text><text x="206.125" y="0" dx="0em" dy="0.95em" style="text-anchor: middle; visibility: hidden; font-family: Roboto, sans-serif; font-size: 12px; font-weight: 200;" fill="rgb(33, 33, 33)" stroke="none" stroke-width="1px">3.5M</text><text x="231.890625" y="0" dx="0em" dy="0.95em" style="text-anchor: middle; visibility: inherit; font-family: Roboto, sans-serif; font-size: 12px; font-weight: 200;" fill="rgb(33, 33, 33)" stroke="none" stroke-width="1px">4M</text><text x="257.65625" y="0" dx="0em" dy="0.95em" style="text-anchor: middle; visibility: hidden; font-family: Roboto, sans-serif; font-size: 12px; font-weight: 200;" fill="rgb(33, 33, 33)" stroke="none" stroke-width="1px">4.5M</text></g><line x1="0" y1="0" x2="257.65625" y2="0" fill="rgb(0, 0, 0)" stroke="rgb(204, 204, 204)" stroke-width="1px"></line></g></g></g></g></svg>