<svg viewBox="0 0 330 200" xmlns="http://www.w3.org/2000/svg"><g><g><g><g><g><line x1="41.171875" y1="177" x2="36.171875" y2="177" style="visibility: inherit;" fill="rgb(0, 0, 0)" stroke="rgb(204, 204, 204)" stroke-width="1px"></line><line x1="41.171875" y1="154.87500000000003" x2="36.171875" y2="154.87500000000003" style="visibility: inherit;" fill="rgb(0, 0, 0)" stroke="rgb(204, 204, 204)" stroke-width="1px"></line><line x1="41.171875" y1="132.75" x2="36.171875" y2="132.75" style="visibility: inherit;" fill="rgb(0, 0, 0)" stroke="rgb(204, 204, 204)" stroke-width="1px"></line><line x1="41.171875" y1="110.62500000000004" x2="36.171875" y2="110.62500000000004" style="visibility: inherit;" fill="rgb(0, 0, 0)" stroke="rgb(204, 204, 204)" stroke-width="1px"></line><line x1="41.171875" y1="88.5" x2="36.171875" y2="88.5" style="visibility: inherit;" fill="rgb(0, 0, 0)" stroke="rgb(204, 204, 204)" stroke-width="1px"></line><line x1="41.171875" y1="66.37499999999999" x2="36.171875" y2="66.37499999999999" style="visibility: inherit;" fill="rgb(0, 0, 0)" stroke="rgb(204, 204, 204)" stroke-width="1px"></line><line x1="41.171875" y1="44.25" x2="36.171875" y2="44.25" style="visibility: inherit;" fill="rgb(0, 0, 0)" stroke="rgb(204, 204, 204)" stroke-width="1px"></line><line x1="41.171875" y1="22.12499999999998" x2="36.171875" y2="22.12499999999998" style="visibility: inherit;" fill="rgb(0, 0, 0)" stroke="rgb(204, 204, 204)" stroke-width="1px"></line><line x1="41.171875" y1="0" x2="36.171875" y2="0" style="visibility: inherit;" fill="rgb(0, 0, 0)" stroke="rgb(204, 204, 204)" stroke-width="1px"></line></g><g transform="translate(31.171875, 0)"><text x="0" y="177" dx="0em" dy="0.3em" style="text-anchor: end; visibility: hidden; font-family: Roboto, sans-serif; font-size: 12px; font-weight: 200;" fill="rgb(33, 33, 33)" stroke="none" stroke-width="1px">2.2</text><text x="0" y="154.87500000000003" dx="0em" dy="0.3em" style="text-anchor: end; visibility: inherit; font-family: Roboto, sans-serif; font-size: 12px; font-weight: 200;" fill="rgb(33, 33, 33)" stroke="none" stroke-width="1px">2.4</text><text x="0" y="132.75" dx="0em" dy="0.3em" style="text-anchor: end; visibility: hidden; font-family: Roboto, sans-serif; font-size: 12px; font-weight: 200;" fill="rgb(33, 33, 33)" stroke="none" stroke-width="1px">2.6</text><text x="0" y="110.62500000000004" dx="0em" dy="0.3em" style="text-anchor: end; visibility: inherit; font-family: Roboto, sans-serif; font-size: 12px; font-weight: 200;" fill="rgb(33, 33, 33)" stroke="none" stroke-width="1px">2.8</text><text x="0" y="88.5" dx="0em" dy="0.3em" style="text-anchor: end; visibility: hidden; font-family: Roboto, sans-serif; font-size: 12px; font-weight: 200;" fill="rgb(33, 33, 33)" stroke="none" stroke-width="1px">3</text><text x="0" y="66.37499999999999" dx="0em" dy="0.3em" style="text-anchor: end; visibility: inherit; font-family: Roboto, sans-serif; font-size: 12px; font-weight: 200;" fill="rgb(33, 33, 33)" stroke="none" stroke-width="1px">3.2</text><text x="0" y="44.25" dx="0em" dy="0.3em" style="text-anchor: end; visibility: hidden; font-family: Roboto, sans-serif; font-size: 12px; font-weight: 200;" fill="rgb(33, 33, 33)" stroke="none" stroke-width="1px">3.4</text><text x="0" y="22.12499999999998" dx="0em" dy="0.3em" style="text-anchor: end; visibility: inherit; font-family: Roboto, sans-serif; font-size: 12px; font-weight: 200;" fill="rgb(33, 33, 33)" stroke="none" stroke-width="1px">3.6</text><text x="0" y="0" dx="0em" dy="0.3em" style="text-anchor: end; visibility: hidden; font-family: Roboto, sans-serif; font-size: 12px; font-weight: 200;" fill="rgb(33, 33, 33)" stroke="none" stroke-width="1px">3.8</text></g><line x1="41.171875" y1="0" x2="41.171875" y2="177" fill="rgb(0, 0, 0)" stroke="rgb(204, 204, 204)" stroke-width="1px"></line></g></g><g transform="translate(41, 0)" clip-path="url(#clip_0)"><clipPath id="clip_0"><rect width="288" height="177"></rect></clipPath><g><g><g><line x1="0" y1="0" x2="0" y2="177" fill="rgb(0, 0, 0)" stroke="rgb(66, 66, 66)" stroke-width="1px" opacity="0.25"></line><line x1="28.8828125" y1="0" x2="28.8828125" y2="177" fill="rgb(0, 0, 0)" stroke="rgb(66, 66, 66)" stroke-width="1px" opacity="0.25"></line><line x1="57.765625" y1="0" x2="57.765625" y2="177" fill="rgb(0, 0, 0)" stroke="rgb(66, 66, 66)" stroke-width="1px" opacity="0.25"></line><line x1="86.6484375" y1="0" x2="86.6484375" y2="177" fill="rgb(0, 0, 0)" stroke="rgb(66, 66, 66)" stroke-width="1px" opacity="0.25"></line><line x1="115.53125" y1="0" x2="115.53125" y2="177" fill="rgb(0, 0, 0)" stroke="rgb(66, 66, 66)" stroke-width="1px" opacity="0.25"></line><line x1="144.4140625" y1="0" x2="144.4140625" y2="177" fill="rgb(0, 0, 0)" stroke="rgb(66, 66, 66)" stroke-width="1px" opacity="0.25"></line><line x1="173.296875" y1="0" x2="173.296875" y2="177" fill="rgb(0, 0, 0)" stroke="rgb(66, 66, 66)" stroke-width="1px" opacity="0.25"></line><line x1="202.1796875" y1="0" x2="202.1796875" y2="177" fill="rgb(0, 0, 0)" stroke="rgb(66, 66, 66)" stroke-width="1px" opacity="0.25"></line><line x1="231.0625" y1="0" x2="231.0625" y2="177" fill="rgb(0, 0, 0)" stroke="rgb(66, 66, 66)" stroke-width="1px" opacity="0.25"></line><line x1="259.9453125" y1="0" x2="259.9453125" y2="177" fill="rgb(0, 0, 0)" stroke="rgb(66, 66, 66)" stroke-width="1px" opacity="0.25"></line><line x1="288.828125" y1="0" x2="288.828125" y2="177" fill="rgb(0, 0, 0)" stroke="rgb(66, 66, 66)" stroke-width="1px" opacity="0.25"></line></g><g><line x1="0" y1="177" x2="288.828125" y2="177" fill="rgb(0, 0, 0)" stroke="rgb(66, 66, 66)" stroke-width="1px" opacity="0.25"></line><line x1="0" y1="154.87500000000003" x2="288.828125" y2="154.87500000000003" fill="rgb(0, 0, 0)" stroke="rgb(66, 66, 66)" stroke-width="1px" opacity="0.25"></line><line x1="0" y1="132.75" x2="288.828125" y2="132.75" fill="rgb(0, 0, 0)" stroke="rgb(66, 66, 66)" stroke-width="1px" opacity="0.25"></line><line x1="0" y1="110.62500000000004" x2="288.828125" y2="110.62500000000004" fill="rgb(0, 0, 0)" stroke="rgb(66, 66, 66)" stroke-width="1px" opacity="0.25"></line><line x1="0" y1="88.5" x2="288.828125" y2="88.5" fill="rgb(0, 0, 0)" stroke="rgb(66, 66, 66)" stroke-width="1px" opacity="0.25"></line><line x1="0" y1="66.37499999999999" x2="288.828125" y2="66.37499999999999" fill="rgb(0, 0, 0)" stroke="rgb(66, 66, 66)" stroke-width="1px" opacity="0.25"></line><line x1="0" y1="44.25" x2="288.828125" y2="44.25" fill="rgb(0, 0, 0)" stroke="rgb(66, 66, 66)" stroke-width="1px" opacity="0.25"></line><line x1="0" y1="22.12499999999998" x2="288.828125" y2="22.12499999999998" fill="rgb(0, 0, 0)" stroke="rgb(66, 66, 66)" stroke-width="1px" opacity="0.25"></line><line x1="0" y1="0" x2="288.828125" y2="0" fill="rgb(0, 0, 0)" stroke="rgb(66, 66, 66)" stroke-width="1px" opacity="0.25"></line></g></g></g><g><g><line x1="0" y1="420.37500000000006" x2="288.828125" y2="420.37500000000006" fill="rgb(0, 0, 0)" stroke="rgb(153, 153, 153)" stroke-width="1.5px"></line></g></g><g><g><line x1="28.8828125" y1="0" x2="28.8828125" y2="177" fill="rgb(0, 0, 0)" stroke="rgb(153, 153, 153)" stroke-width="1.5px"></line></g></g><g><g><g><g><g><path stroke="rgb(51, 187, 238)" stroke-width="2px" d="M31.655562500000002,44.95670905709267L33.0419375,114.61743366345759L34.4283125,133.29356491444062L35.8146875,145.84991358209624L37.2010625,99.44535405885259L38.5874375,124.93482765919106L39.9738125,116.17147073745666L41.360187499999995,110.54366873816373L42.746562499999996,62.82624290996667L44.1329375,142.39470762318706L45.5193125,151.9441438622923L46.9056875,150.4140337201144L48.29206249999999,145.4376974567537L49.678437499999994,153.99251742743814L51.0648125,127.10714043877624L52.4511875,144.83036692484737L53.837562500000004,157.17422004358633L55.223937500000005,147.43000607970282L56.6103125,136.96620106719445L57.9966875,151.78862491254426L59.3830625,164.62697859647554L60.7694375,156.79020413469516L62.1558125,153.44382017212112L63.5421875,146.31768142164563L64.9285625,138.3306485969856L66.3149375,155.78366723326562L67.7013125,95.11734696304994L69.0876875,106.03809148799016L70.4740625,86.6977949689412L71.8604375,113.56893836353937L73.2468125,115.67117738531832L74.6331875,133.3250724525987L76.01956249999999,105.36734105667712L77.40593750000001,99.11214098604506L78.7923125,117.4548717270772L80.17868750000001,76.6562188428868L81.5650625,89.87435612288994L82.9514375,143.23448315530817L84.3378125,130.079136039928L85.7241875,129.81120949120196L87.1105625,113.72794870714358L88.4969375,86.57319507591492L89.88331249999999,61.96699931860319L91.2696875,86.87117516615508L92.65606249999999,134.45985904007213L94.0424375,115.88814612909995L95.4288125,80.03425520932521L96.8151875,110.09412131541414L98.20156250000001,115.21233013775958L99.5879375,131.1845187874357L100.97431250000001,92.19674336484356L102.3606875,104.95718933092068L103.74706250000001,127.11132896514533L105.1334375,62.85467241144482L106.5198125,71.99419515095508L107.9061875,94.48052490212784L109.2925625,98.62856905733598L110.67893749999999,83.64948126718222L112.0653125,107.17957053807463L113.45168749999999,82.33288978473479L114.8380625,105.35289662442352L116.2244375,99.04218942738608L117.61081250000001,77.47639307270643L118.9971875,111.07784201437376L120.3835625,102.47529985746232L121.7699375,76.65059617901129L123.1563125,47.7081038698213L124.54268750000001,56.127822610417404L125.9290625,67.44569179575407L127.3154375,63.734457082514545L128.7018125,51.6762139361885L130.0881875,49.63073953162353L131.4745625,20.603017736498817L132.8609375,40.85065994800589L134.2473125,32.479621041664245L135.6336875,48.37588751843497L137.0200625,49.1957526715453L138.4064375,48.818898541441925L139.7928125,116.45275970262969L141.1791875,58.311798238531836L142.5655625,98.79370981679924L143.9519375,56.167421330371866L145.3383125,69.10637136063536L146.72468750000002,53.82352399683926L148.1110625,97.40679581080043L149.4974375,73.37974591919283L150.8838125,66.4833291045934L152.2701875,73.83870476914107L153.6565625,71.56515734453595L155.04293750000002,28.757999426481675L156.42931249999998,2.8575347223028595L157.8156875,17.172584161647872L159.2020625,55.807623186998825L160.58843750000003,64.57611367660357L161.97481249999998,32.10323923562519L163.3611875,15.659492896405126L164.74756250000002,13.221410171036256L166.1339375,-16.462337198350202L167.5203125,59.74449570030369L168.9066875,41.29056369692326L170.2930625,43.416081723154996L171.6794375,20.137471495021224L173.0658125,46.071881638734816L174.4521875,61.255332783919144L175.8385625,40.647341547049L177.2249375,37.25257651665028L178.6113125,39.53731251155264L179.99768749999998,75.22568807837325L181.3840625,94.17862760923475L182.7704375,64.11638213337766L184.15681249999997,86.97028760398211L185.5431875,77.18217175176606L186.9295625,67.47543475014486L188.31593750000002,55.757232338085856L189.7023125,46.356680971321474L191.0886875,83.07911999341076L192.4750625,98.91949886868134L193.8614375,111.48537426465597L195.2478125,125.57094558044581L196.6341875,91.06223957517327L198.02056249999998,97.39569932686436L199.4069375,92.99037941972703L200.7933125,88.12082685637645L202.1796875,117.51431948905098L203.5660625,84.33614910224024L204.9524375,74.51878162967527L206.33881250000002,91.70163933484179L207.72518749999998,69.83378647594704L209.1115625,84.71573473709256L210.4979375,97.92098591147322L211.88431250000002,91.21158297907388L213.27068749999998,59.10241532356188L214.6570625,55.66047091502336L216.0434375,95.23513384591575L217.4298125,90.30843187529464L218.8161875,112.45443703626762L220.2025625,102.35785279211504L221.5889375,92.63005594931302L222.9753125,88.45673653198637L224.36168750000002,74.27632854410024L225.74806249999997,51.74229353683006L227.1344375,119.21379103670606L228.5208125,82.71262948757462L229.90718750000002,129.42384319928917L231.29356249999998,80.51965183870574L232.6799375,104.54086858544696L234.0663125,113.17846377202241L235.4526875,79.39067395632487L236.83906249999998,91.68948427501334L238.2254375,68.61025523938544L239.6118125,49.40354922889357L240.9981875,107.45724858926943L242.3845625,71.2018577223254L243.7709375,91.89000125916203L245.1573125,39.3078619253123L246.5436875,24.938171053617225L247.93006250000002,58.401122739725714L249.31643749999998,-5.611460750810281L250.7028125,-0.7744385036897672L252.0891875,59.56684280436801L253.47556250000002,-23.87556688188575L254.86193749999998,52.754909859901325L256.2483125,84.85435694861748L257.6346875,16.424731102039424L259.0210625,-23.235778375595828L260.4074375,-3.9983117128193655L261.7938125,11.322532108737246L263.1801875,38.40767547566488L264.56656250000003,-28.387140815980477L267.3393125,-42.12314062554615L268.7256875,35.39494836784019L270.11206250000004,-16.272524783273855" style="fill: none;" fill="none"></path></g><g><path stroke="rgb(204, 51, 17)" stroke-width="2px" d="M31.655562500000002,134.34496289491653L33.0419375,164.70026132091883L34.4283125,120.13653220449174L35.8146875,127.58059027593805L38.5874375,151.6235256556378L39.9738125,174.6093725235663L41.360187499999995,152.46376842265704L42.746562499999996,167.37402373902955L44.1329375,171.09449819285132L45.5193125,142.72947175695373L46.9056875,127.32286859984455L48.29206249999999,134.31321090897035L49.678437499999994,93.36959982530911L51.0648125,138.45471185360148L52.4511875,138.7682208820848L53.837562500000004,150.41610316412468L55.223937500000005,127.47027766303093L56.6103125,87.22501968937893L57.9966875,113.16009881048049L59.3830625,135.94760730797108L60.7694375,137.70309942879734L62.1558125,152.82954630154705L63.5421875,135.25119465891186L64.9285625,126.48877501759713L66.3149375,124.31375853319206L67.7013125,128.78922508315426L69.0876875,133.913055837068L70.4740625,137.63579789124518L71.8604375,118.38907174797396L73.2468125,127.08406882899646L74.6331875,124.83627010223309L76.01956249999999,120.19556189103345L77.40593750000001,102.84203070102014L78.7923125,142.95936625919762L80.17868750000001,123.66242843906458L81.5650625,117.26406312565912L82.9514375,113.16144112540017L84.3378125,125.39053115493714L85.7241875,155.84025626557013L87.1105625,143.97808865616688L88.4969375,132.18815164758865L89.88331249999999,132.02339894164086L91.2696875,123.64276939739291L92.65606249999999,122.87534515909668L94.0424375,120.06178203107868L95.4288125,112.29109219789895L96.8151875,137.6729469075187L98.20156250000001,141.22429299209844L99.5879375,125.34934623133216L100.97431250000001,128.0848964875626L102.3606875,140.9721176759443L103.74706250000001,145.01508655168053L105.1334375,124.50741968161721L106.5198125,128.1080540156811L107.9061875,122.64224562265824L109.2925625,151.4677861167203L110.67893749999999,94.30130745369158L112.0653125,119.37363206981738L113.45168749999999,107.01936843180026L114.8380625,96.6993613015609L116.2244375,92.82582988566134L117.61081250000001,114.2707420839431L118.9971875,118.22296290716903L120.3835625,112.94560321045739L121.7699375,138.87835336847806L123.1563125,139.22998831941902L124.54268750000001,138.73485630914098L125.9290625,135.13526147702052L127.3154375,113.08800602018069L128.7018125,134.02105693852442L130.0881875,134.45577871105394L131.4745625,115.43270108283349L132.8609375,129.67154980409614L134.2473125,117.72567161743926L135.6336875,135.95358826413803L138.4064375,170.22398043689162L139.7928125,165.50486012111324L141.1791875,147.86126236802468L142.5655625,135.72490456513248L143.9519375,138.36817089803034L145.3383125,150.76097201160795L146.72468750000002,147.07069429667123L148.1110625,151.3315720970114L149.4974375,139.39330732909917L150.8838125,129.50726115756078L152.2701875,107.25829403431919L153.6565625,99.94671252269568L155.04293750000002,92.18265933334243L156.42931249999998,108.18622420155651L157.8156875,124.7707264657238L159.2020625,111.53303834411018L160.58843750000003,111.39212463267155L161.97481249999998,120.90961574296655L163.3611875,101.251907007578L164.74756250000002,132.5168278197545L166.1339375,138.6610661017953L167.5203125,136.64744266677252" style="fill: none;" fill="none"></path></g></g></g></g><g opacity="0.2"><g><g><g><path stroke="rgb(51, 187, 238)" stroke-width="2px" d="M31.655562500000002,44.95670905709267L33.0419375,156.41386842727664L34.4283125,151.22265091538432L35.8146875,160.6161796152592L37.2010625,38.85956114530561L38.5874375,160.1959458589554L39.9738125,103.63973012566566L41.360187499999995,102.33827939629555L42.746562499999996,-7.5476915538311395L44.1329375,260.5446044951678L45.5193125,166.18168553709987L46.9056875,148.12719529867175L48.29206249999999,137.9894416630268L49.678437499999994,166.80798760056499L51.0648125,86.81067770719528L52.4511875,171.402706861496L53.837562500000004,175.6847762167454L55.223937500000005,132.8161591887474L56.6103125,121.27208760380745L57.9966875,174.02090585231784L59.3830625,183.88380503654483L60.7694375,145.03530031442645L62.1558125,148.42431029677394L63.5421875,135.62855771183968L64.9285625,126.35015612840652L66.3149375,181.9631207585335L67.7013125,4.118021786212902L69.0876875,122.41919150948524L70.4740625,57.687368005514145L71.8604375,153.87563860416415L73.2468125,118.82453522086143L74.6331875,159.80591154098514L76.01956249999999,63.43074730038643L77.40593750000001,89.72934132814407L78.7923125,144.96896705031398L80.17868750000001,15.458240568637828L81.5650625,109.70156183838844L82.9514375,223.27467320859435L84.3378125,110.34611544013023L85.7241875,129.40931966900826L87.1105625,89.6030575633049L88.4969375,45.84106466174126L89.88331249999999,25.05770570039747L91.2696875,124.22743892669678L92.65606249999999,205.8428848385811L94.0424375,88.03057676553726L95.4288125,26.253418833017328L96.8151875,155.18392047286036L98.20156250000001,122.8896433711052L99.5879375,155.14280176162723L100.97431250000001,33.715080231428125L102.3606875,124.09785827994347L103.74706250000001,160.34253841638568L105.1334375,-33.530312418937726L106.5198125,85.70347926020622L107.9061875,128.2100195288658L109.2925625,104.85063529014587L110.67893749999999,61.18084958195686L112.0653125,142.47470444440842L113.45168749999999,45.062868654727936L114.8380625,139.882906883955L116.2244375,89.57612863183022L117.61081250000001,45.12769854068756L118.9971875,161.4800154268742L120.3835625,89.57148662209511L121.7699375,37.91354066133497L123.1563125,4.294365406036357L124.54268750000001,68.75740072131157L125.9290625,84.42249557375908L127.3154375,58.16760501265526L128.7018125,33.58884921669958L130.0881875,46.56252792477608L131.4745625,-22.93856495618824L132.8609375,71.22212326526642L134.2473125,19.923062682151773L135.6336875,72.22028723359108L137.0200625,50.425550401210785L138.4064375,48.253617346286774L139.7928125,217.9035514444113L141.1791875,-28.899643957614938L142.5655625,159.51657718420032L143.9519375,-7.772011399269143L145.3383125,88.51479640603065L146.72468750000002,30.89925295114515L148.1110625,162.78170353174212L149.4974375,37.339171081781366L150.8838125,56.138703882694244L152.2701875,84.8717682659626L153.6565625,68.15483620762825L155.04293750000002,-35.45273745059971L156.42931249999998,-35.993162333965344L157.8156875,38.64515832066534L159.2020625,113.76018172502518L160.58843750000003,77.72884941101074L161.97481249999998,-16.606072425842324L163.3611875,-9.00612661242489L164.74756250000002,9.564286082982997L166.1339375,-60.987958252430005L167.5203125,174.05474504828456L168.9066875,13.60966569185255L170.2930625,46.60435876250267L171.6794375,-14.780443847179452L173.0658125,84.97349685430527L174.4521875,84.03050950169563L175.8385625,9.735354691743831L177.2249375,32.16042897105215L178.6113125,42.96441650390623L179.99768749999998,128.75825142860413L181.3840625,122.60803690552711L182.7704375,19.023013919591882L184.15681249999997,121.25114580988884L185.5431875,62.49999797344208L186.9295625,52.91532924771309L188.31593750000002,38.179928719997385L189.7023125,32.25585392117498L191.0886875,138.16277852654457L192.4750625,122.68006718158722L193.8614375,130.33418735861778L195.2478125,146.69930255413058L196.6341875,39.299180567264536L198.02056249999998,106.89588895440102L199.4069375,86.382399559021L200.7933125,80.81649801135063L202.1796875,161.6045584380627L203.5660625,34.56889352202413L204.9524375,59.792730420827866L206.33881250000002,117.47592589259148L207.72518749999998,37.03200718760488L209.1115625,107.03865712881088L210.4979375,117.7288626730442L211.88431250000002,81.14747858047485L213.27068749999998,10.938663840293865L214.6570625,50.497554302215576L216.0434375,154.59712824225429L217.4298125,82.91837891936302L218.8161875,145.67344477772716L220.2025625,87.21297642588615L221.5889375,78.03836068511009L222.9753125,82.19675740599632L224.36168750000002,53.00571656227112L225.74806249999997,17.94124102592466L227.1344375,220.42103728652003L228.5208125,27.960887163877466L229.90718750000002,199.490663766861L231.29356249999998,7.163364797830562L232.6799375,140.57269370555878L234.0663125,126.1348565518856L235.4526875,28.708989232778528L236.83906249999998,110.13769975304604L238.2254375,33.99141168594358L239.6118125,20.593490213155725L240.9981875,194.53779762983325L242.3845625,16.81877142190931L243.7709375,122.92221656441689L245.1573125,-39.565347075462384L246.5436875,3.383634746074657L247.93006250000002,108.59555026888847L249.31643749999998,-101.63033598661427L250.7028125,6.4810948669910236L252.0891875,150.07876476645473L253.47556250000002,-149.03918141126636L254.86193749999998,167.7006249725819L256.2483125,133.00352758169174L257.6346875,-86.21970766782765L259.0210625,-82.72654259204869L260.4074375,24.857888281345346L261.7938125,34.30379784107206L263.1801875,79.03539052605629L264.56656250000003,-128.57936525344851L267.3393125,-56.018475830555005L268.7256875,151.67208185791972L270.11206250000004,-93.77373450994496" style="fill: none;" fill="none"></path></g><g><path stroke="rgb(204, 51, 17)" stroke-width="2px" d="M31.655562500000002,134.34496289491653L33.0419375,182.91344037652019L34.4283125,77.35535225272179L35.8146875,136.33480256795883L38.5874375,183.01398208737376L39.9738125,206.40707364678386L41.360187499999995,120.7952002286911L42.746562499999996,189.11331912875178L44.1329375,176.58147534728053L45.5193125,100.61071327328682L46.9056875,104.35270062088966L48.29206249999999,144.76068323850635L49.678437499999994,32.08787119388578L51.0648125,205.9940534681082L52.4511875,139.2381159067154L53.837562500000004,167.8797115981579L55.223937500000005,93.06124931573868L56.6103125,26.867350995540598L57.9966875,152.05876654386523L59.3830625,170.12678718566897L60.7694375,140.33624133467674L62.1558125,175.51871886849406L63.5421875,108.88401424884796L64.9285625,113.34524935483932L66.3149375,121.05124926567078L67.7013125,135.50240582227707L69.0876875,141.59878885746002L70.4740625,143.21990525722504L71.8604375,89.51900026202202L73.2468125,140.12655964493752L74.6331875,121.46457275748253L76.01956249999999,113.23450049757957L77.40593750000001,76.81173598766327L78.7923125,203.13536672294143L80.17868750000001,94.71702253818512L81.5650625,107.66651532053947L82.9514375,107.0075081884861L84.3378125,143.73416608572006L85.7241875,201.51484376192096L87.1105625,126.18483728170395L88.4969375,114.50324615836143L89.88331249999999,131.7762698829174L91.2696875,111.07182508707047L92.65606249999999,121.72420880198479L94.0424375,115.84143733978271L95.4288125,100.63505744934082L96.8151875,175.745728969574L98.20156250000001,146.55131211876872L99.5879375,101.53692609071732L100.97431250000001,132.18822187185287L102.3606875,160.3029494583607L103.74706250000001,151.07953986525538L105.1334375,93.74591937661171L106.5198125,133.5090055167675L107.9061875,114.44353303313255L109.2925625,194.7060968577862L110.67893749999999,8.551589459180812L112.0653125,156.9821189939976L113.45168749999999,88.48797297477722L114.8380625,81.21935060620308L116.2244375,87.01553276181221L117.61081250000001,146.43811038136485L118.9971875,124.15129414200783L120.3835625,105.02956366539001L121.7699375,177.77747860550883L123.1563125,139.75744074583054L124.54268750000001,137.99215829372406L125.9290625,129.73586922883987L127.3154375,80.01712283492088L128.7018125,165.42063331604007L130.0881875,135.10786136984825L131.4745625,86.89808464050293L132.8609375,151.02982288599017L134.2473125,99.80685433745384L135.6336875,163.2954632341862L138.4064375,221.62956869602206L139.7928125,158.4261796474457L141.1791875,121.39586573839188L142.5655625,117.52036786079407L143.9519375,142.333070397377L145.3383125,169.35017368197444L146.72468750000002,141.53527772426605L148.1110625,157.72288879752162L149.4974375,121.48591017723083L150.8838125,114.6781919002533L152.2701875,73.88484334945679L153.6565625,88.97934025526047L155.04293750000002,80.53657954931259L156.42931249999998,132.19157150387764L157.8156875,149.64747986197474L159.2020625,91.67650616168976L160.58843750000003,111.18075406551361L161.97481249999998,135.18585240840912L163.3611875,71.76534390449524L164.74756250000002,179.4142090380192L166.1339375,147.8774235248566L167.5203125,133.62700751423836" style="fill: none;" fill="none"></path></g></g></g></g></g></g><g transform="translate(41, 177)" clip-path="url(#clip_1)"><clipPath id="clip_1"><rect width="288" height="23"></rect></clipPath><g><g><line x1="0" y1="0" x2="0" y2="5" style="visibility: inherit;" fill="rgb(0, 0, 0)" stroke="rgb(204, 204, 204)" stroke-width="1px"></line><line x1="28.8828125" y1="0" x2="28.8828125" y2="5" style="visibility: inherit;" fill="rgb(0, 0, 0)" stroke="rgb(204, 204, 204)" stroke-width="1px"></line><line x1="57.765625" y1="0" x2="57.765625" y2="5" style="visibility: inherit;" fill="rgb(0, 0, 0)" stroke="rgb(204, 204, 204)" stroke-width="1px"></line><line x1="86.6484375" y1="0" x2="86.6484375" y2="5" style="visibility: inherit;" fill="rgb(0, 0, 0)" stroke="rgb(204, 204, 204)" stroke-width="1px"></line><line x1="115.53125" y1="0" x2="115.53125" y2="5" style="visibility: inherit;" fill="rgb(0, 0, 0)" stroke="rgb(204, 204, 204)" stroke-width="1px"></line><line x1="144.4140625" y1="0" x2="144.4140625" y2="5" style="visibility: inherit;" fill="rgb(0, 0, 0)" stroke="rgb(204, 204, 204)" stroke-width="1px"></line><line x1="173.296875" y1="0" x2="173.296875" y2="5" style="visibility: inherit;" fill="rgb(0, 0, 0)" stroke="rgb(204, 204, 204)" stroke-width="1px"></line><line x1="202.1796875" y1="0" x2="202.1796875" y2="5" style="visibility: inherit;" fill="rgb(0, 0, 0)" stroke="rgb(204, 204, 204)" stroke-width="1px"></line><line x1="231.0625" y1="0" x2="231.0625" y2="5" style="visibility: inherit;" fill="rgb(0, 0, 0)" stroke="rgb(204, 204, 204)" stroke-width="1px"></line><line x1="259.9453125" y1="0" x2="259.9453125" y2="5" style="visibility: inherit;" fill="rgb(0, 0, 0)" stroke="rgb(204, 204, 204)" stroke-width="1px"></line><line x1="288.828125" y1="0" x2="288.828125" y2="5" style="visibility: inherit;" fill="rgb(0, 0, 0)" stroke="rgb(204, 204, 204)" stroke-width="1px"></line></g><g transform="translate(0, 8)"><text x="0" y="0" dx="0em" dy="0.95em" style="text-anchor: middle; visibility: hidden; font-family: Roboto, sans-serif; font-size: 12px; font-weight: 200;" fill="rgb(33, 33, 33)" stroke="none" stroke-width="1px">-500k</text><text x="28.8828125" y="0" dx="0em" dy="0.95em" style="text-anchor: middle; visibility: inherit; font-family: Roboto, sans-serif; font-size: 12px; font-weight: 200;" fill="rgb(33, 33, 33)" stroke="none" stroke-width="1px">0</text><text x="57.765625" y="0" dx="0em" dy="0.95em" style="text-anchor: middle; visibility: inherit; font-family: Roboto, sans-serif; font-size: 12px; font-weight: 200;" fill="rgb(33, 33, 33)" stroke="none" stroke-width="1px">500k</text><text x="86.6484375" y="0" dx="0em" dy="0.95em" style="text-anchor: middle; visibility: inherit; font-family: Roboto, sans-serif; font-size: 12px; font-weight: 200;" fill="rgb(33, 33, 33)" stroke="none" stroke-width="1px">1M</text><text x="115.53125" y="0" dx="0em" dy="0.95em" style="text-anchor: middle; visibility: inherit; font-family: Roboto, sans-serif; font-size: 12px; font-weight: 200;" fill="rgb(33, 33, 33)" stroke="none" stroke-width="1px">1.5M</text><text x="144.4140625" y="0" dx="0em" dy="0.95em" style="text-anchor: middle; visibility: inherit; font-family: Roboto, sans-serif; font-size: 12px; font-weight: 200;" fill="rgb(33, 33, 33)" stroke="none" stroke-width="1px">2M</text><text x="173.296875" y="0" dx="0em" dy="0.95em" style="text-anchor: middle; visibility: inherit; font-family: Roboto, sans-serif; font-size: 12px; font-weight: 200;" fill="rgb(33, 33, 33)" stroke="none" stroke-width="1px">2.5M</text><text x="202.1796875" y="0" dx="0em" dy="0.95em" style="text-anchor: middle; visibility: inherit; font-family: Roboto, sans-serif; font-size: 12px; font-weight: 200;" fill="rgb(33, 33, 33)" stroke="none" stroke-width="1px">3M</text><text x="231.0625" y="0" dx="0em" dy="0.95em" style="text-anchor: middle; visibility: inherit; font-family: Roboto, sans-serif; font-size: 12px; font-weight: 200;" fill="rgb(33, 33, 33)" stroke="none" stroke-width="1px">3.5M</text><text x="259.9453125" y="0" dx="0em" dy="0.95em" style="text-anchor: middle; visibility: inherit; font-family: Roboto, sans-serif; font-size: 12px; font-weight: 200;" fill="rgb(33, 33, 33)" stroke="none" stroke-width="1px">4M</text><text x="288.828125" y="0" dx="0em" dy="0.95em" style="text-anchor: middle; visibility: hidden; font-family: Roboto, sans-serif; font-size: 12px; font-weight: 200;" fill="rgb(33, 33, 33)" stroke="none" stroke-width="1px">4.5M</text></g><line x1="0" y1="0" x2="288.828125" y2="0" fill="rgb(0, 0, 0)" stroke="rgb(204, 204, 204)" stroke-width="1px"></line></g></g></g></g></svg>