<svg viewBox="0 0 330 200" xmlns="http://www.w3.org/2000/svg"><g><g><g><g><g><line x1="72.34375" y1="177" x2="67.34375" y2="177" style="visibility: inherit;" fill="rgb(0, 0, 0)" stroke="rgb(204, 204, 204)" stroke-width="1px"></line><line x1="72.34375" y1="160.90909090909093" x2="67.34375" y2="160.90909090909093" style="visibility: inherit;" fill="rgb(0, 0, 0)" stroke="rgb(204, 204, 204)" stroke-width="1px"></line><line x1="72.34375" y1="144.8181818181818" x2="67.34375" y2="144.8181818181818" style="visibility: inherit;" fill="rgb(0, 0, 0)" stroke="rgb(204, 204, 204)" stroke-width="1px"></line><line x1="72.34375" y1="128.72727272727272" x2="67.34375" y2="128.72727272727272" style="visibility: inherit;" fill="rgb(0, 0, 0)" stroke="rgb(204, 204, 204)" stroke-width="1px"></line><line x1="72.34375" y1="112.63636363636367" x2="67.34375" y2="112.63636363636367" style="visibility: inherit;" fill="rgb(0, 0, 0)" stroke="rgb(204, 204, 204)" stroke-width="1px"></line><line x1="72.34375" y1="96.54545454545458" x2="67.34375" y2="96.54545454545458" style="visibility: inherit;" fill="rgb(0, 0, 0)" stroke="rgb(204, 204, 204)" stroke-width="1px"></line><line x1="72.34375" y1="80.45454545454547" x2="67.34375" y2="80.45454545454547" style="visibility: inherit;" fill="rgb(0, 0, 0)" stroke="rgb(204, 204, 204)" stroke-width="1px"></line><line x1="72.34375" y1="64.36363636363636" x2="67.34375" y2="64.36363636363636" style="visibility: inherit;" fill="rgb(0, 0, 0)" stroke="rgb(204, 204, 204)" stroke-width="1px"></line><line x1="72.34375" y1="48.27272727272731" x2="67.34375" y2="48.27272727272731" style="visibility: inherit;" fill="rgb(0, 0, 0)" stroke="rgb(204, 204, 204)" stroke-width="1px"></line><line x1="72.34375" y1="32.181818181818215" x2="67.34375" y2="32.181818181818215" style="visibility: inherit;" fill="rgb(0, 0, 0)" stroke="rgb(204, 204, 204)" stroke-width="1px"></line><line x1="72.34375" y1="16.090909090909097" x2="67.34375" y2="16.090909090909097" style="visibility: inherit;" fill="rgb(0, 0, 0)" stroke="rgb(204, 204, 204)" stroke-width="1px"></line><line x1="72.34375" y1="0" x2="67.34375" y2="0" style="visibility: inherit;" fill="rgb(0, 0, 0)" stroke="rgb(204, 204, 204)" stroke-width="1px"></line></g><g transform="translate(62.34375, 0)"><text x="0" y="177" dx="0em" dy="0.3em" style="text-anchor: end; visibility: hidden; font-family: Roboto, sans-serif; font-size: 12px; font-weight: 200;" fill="rgb(33, 33, 33)" stroke="none" stroke-width="1px">7e-3</text><text x="0" y="160.90909090909093" dx="0em" dy="0.3em" style="text-anchor: end; visibility: inherit; font-family: Roboto, sans-serif; font-size: 12px; font-weight: 200;" fill="rgb(33, 33, 33)" stroke="none" stroke-width="1px">7.5e-3</text><text x="0" y="144.8181818181818" dx="0em" dy="0.3em" style="text-anchor: end; visibility: hidden; font-family: Roboto, sans-serif; font-size: 12px; font-weight: 200;" fill="rgb(33, 33, 33)" stroke="none" stroke-width="1px">8e-3</text><text x="0" y="128.72727272727272" dx="0em" dy="0.3em" style="text-anchor: end; visibility: inherit; font-family: Roboto, sans-serif; font-size: 12px; font-weight: 200;" fill="rgb(33, 33, 33)" stroke="none" stroke-width="1px">8.5e-3</text><text x="0" y="112.63636363636367" dx="0em" dy="0.3em" style="text-anchor: end; visibility: hidden; font-family: Roboto, sans-serif; font-size: 12px; font-weight: 200;" fill="rgb(33, 33, 33)" stroke="none" stroke-width="1px">9e-3</text><text x="0" y="96.54545454545458" dx="0em" dy="0.3em" style="text-anchor: end; visibility: inherit; font-family: Roboto, sans-serif; font-size: 12px; font-weight: 200;" fill="rgb(33, 33, 33)" stroke="none" stroke-width="1px">9.5e-3</text><text x="0" y="80.45454545454547" dx="0em" dy="0.3em" style="text-anchor: end; visibility: hidden; font-family: Roboto, sans-serif; font-size: 12px; font-weight: 200;" fill="rgb(33, 33, 33)" stroke="none" stroke-width="1px">0.01</text><text x="0" y="64.36363636363636" dx="0em" dy="0.3em" style="text-anchor: end; visibility: inherit; font-family: Roboto, sans-serif; font-size: 12px; font-weight: 200;" fill="rgb(33, 33, 33)" stroke="none" stroke-width="1px">0.0105</text><text x="0" y="48.27272727272731" dx="0em" dy="0.3em" style="text-anchor: end; visibility: hidden; font-family: Roboto, sans-serif; font-size: 12px; font-weight: 200;" fill="rgb(33, 33, 33)" stroke="none" stroke-width="1px">0.011</text><text x="0" y="32.181818181818215" dx="0em" dy="0.3em" style="text-anchor: end; visibility: inherit; font-family: Roboto, sans-serif; font-size: 12px; font-weight: 200;" fill="rgb(33, 33, 33)" stroke="none" stroke-width="1px">0.0115</text><text x="0" y="16.090909090909097" dx="0em" dy="0.3em" style="text-anchor: end; visibility: hidden; font-family: Roboto, sans-serif; font-size: 12px; font-weight: 200;" fill="rgb(33, 33, 33)" stroke="none" stroke-width="1px">0.012</text><text x="0" y="0" dx="0em" dy="0.3em" style="text-anchor: end; visibility: hidden; font-family: Roboto, sans-serif; font-size: 12px; font-weight: 200;" fill="rgb(33, 33, 33)" stroke="none" stroke-width="1px">0.0125</text></g><line x1="72.34375" y1="0" x2="72.34375" y2="177" fill="rgb(0, 0, 0)" stroke="rgb(204, 204, 204)" stroke-width="1px"></line></g></g><g transform="translate(72, 0)" clip-path="url(#clip_0)"><clipPath id="clip_0"><rect width="257" height="177"></rect></clipPath><g><g><g><line x1="0" y1="0" x2="0" y2="177" fill="rgb(0, 0, 0)" stroke="rgb(66, 66, 66)" stroke-width="1px" opacity="0.25"></line><line x1="25.765625" y1="0" x2="25.765625" y2="177" fill="rgb(0, 0, 0)" stroke="rgb(66, 66, 66)" stroke-width="1px" opacity="0.25"></line><line x1="51.53125" y1="0" x2="51.53125" y2="177" fill="rgb(0, 0, 0)" stroke="rgb(66, 66, 66)" stroke-width="1px" opacity="0.25"></line><line x1="77.296875" y1="0" x2="77.296875" y2="177" fill="rgb(0, 0, 0)" stroke="rgb(66, 66, 66)" stroke-width="1px" opacity="0.25"></line><line x1="103.0625" y1="0" x2="103.0625" y2="177" fill="rgb(0, 0, 0)" stroke="rgb(66, 66, 66)" stroke-width="1px" opacity="0.25"></line><line x1="128.828125" y1="0" x2="128.828125" y2="177" fill="rgb(0, 0, 0)" stroke="rgb(66, 66, 66)" stroke-width="1px" opacity="0.25"></line><line x1="154.59375" y1="0" x2="154.59375" y2="177" fill="rgb(0, 0, 0)" stroke="rgb(66, 66, 66)" stroke-width="1px" opacity="0.25"></line><line x1="180.359375" y1="0" x2="180.359375" y2="177" fill="rgb(0, 0, 0)" stroke="rgb(66, 66, 66)" stroke-width="1px" opacity="0.25"></line><line x1="206.125" y1="0" x2="206.125" y2="177" fill="rgb(0, 0, 0)" stroke="rgb(66, 66, 66)" stroke-width="1px" opacity="0.25"></line><line x1="231.890625" y1="0" x2="231.890625" y2="177" fill="rgb(0, 0, 0)" stroke="rgb(66, 66, 66)" stroke-width="1px" opacity="0.25"></line><line x1="257.65625" y1="0" x2="257.65625" y2="177" fill="rgb(0, 0, 0)" stroke="rgb(66, 66, 66)" stroke-width="1px" opacity="0.25"></line></g><g><line x1="0" y1="177" x2="257.65625" y2="177" fill="rgb(0, 0, 0)" stroke="rgb(66, 66, 66)" stroke-width="1px" opacity="0.25"></line><line x1="0" y1="160.90909090909093" x2="257.65625" y2="160.90909090909093" fill="rgb(0, 0, 0)" stroke="rgb(66, 66, 66)" stroke-width="1px" opacity="0.25"></line><line x1="0" y1="144.8181818181818" x2="257.65625" y2="144.8181818181818" fill="rgb(0, 0, 0)" stroke="rgb(66, 66, 66)" stroke-width="1px" opacity="0.25"></line><line x1="0" y1="128.72727272727272" x2="257.65625" y2="128.72727272727272" fill="rgb(0, 0, 0)" stroke="rgb(66, 66, 66)" stroke-width="1px" opacity="0.25"></line><line x1="0" y1="112.63636363636367" x2="257.65625" y2="112.63636363636367" fill="rgb(0, 0, 0)" stroke="rgb(66, 66, 66)" stroke-width="1px" opacity="0.25"></line><line x1="0" y1="96.54545454545458" x2="257.65625" y2="96.54545454545458" fill="rgb(0, 0, 0)" stroke="rgb(66, 66, 66)" stroke-width="1px" opacity="0.25"></line><line x1="0" y1="80.45454545454547" x2="257.65625" y2="80.45454545454547" fill="rgb(0, 0, 0)" stroke="rgb(66, 66, 66)" stroke-width="1px" opacity="0.25"></line><line x1="0" y1="64.36363636363636" x2="257.65625" y2="64.36363636363636" fill="rgb(0, 0, 0)" stroke="rgb(66, 66, 66)" stroke-width="1px" opacity="0.25"></line><line x1="0" y1="48.27272727272731" x2="257.65625" y2="48.27272727272731" fill="rgb(0, 0, 0)" stroke="rgb(66, 66, 66)" stroke-width="1px" opacity="0.25"></line><line x1="0" y1="32.181818181818215" x2="257.65625" y2="32.181818181818215" fill="rgb(0, 0, 0)" stroke="rgb(66, 66, 66)" stroke-width="1px" opacity="0.25"></line><line x1="0" y1="16.090909090909097" x2="257.65625" y2="16.090909090909097" fill="rgb(0, 0, 0)" stroke="rgb(66, 66, 66)" stroke-width="1px" opacity="0.25"></line><line x1="0" y1="0" x2="257.65625" y2="0" fill="rgb(0, 0, 0)" stroke="rgb(66, 66, 66)" stroke-width="1px" opacity="0.25"></line></g></g></g><g><g><line x1="0" y1="402.27272727272725" x2="257.65625" y2="402.27272727272725" fill="rgb(0, 0, 0)" stroke="rgb(153, 153, 153)" stroke-width="1.5px"></line></g></g><g><g><line x1="25.765625" y1="0" x2="25.765625" y2="177" fill="rgb(0, 0, 0)" stroke="rgb(153, 153, 153)" stroke-width="1.5px"></line></g></g><g><g><g><g><g><path stroke="rgb(51, 187, 238)" stroke-width="2px" d="M28.239125,154.81071895496413L29.475875000000002,121.42561227506536L30.712625,49.24289633162284L31.949375,29.519916106921876L33.186125,-27.37164161185131L34.422875,0.18658026255421867L35.659625,-30.359531648421374L36.896375,-31.94837315770865L38.133125,1.7508722781332566L39.369875,23.924630406500782L40.606624999999994,25.695918012248892L41.843374999999995,36.79119273809606L43.080124999999995,42.64387082453201L44.316874999999996,16.594815544975905L45.553625000000004,17.27406624974496L46.790375000000004,47.58581792223071L48.027125000000005,21.3121596233104L49.263875,8.949582230892162L50.500625,17.113809746090105L51.737375,8.28279408120992L52.974125,24.99574500912798L54.210875,14.572597093985522L55.447625,30.72857483755673L56.684375,45.03129843538458L57.921124999999996,31.899035699297126L59.157875,29.188478313686417L60.394625,8.69161465746805L61.631375,9.994546822759993L62.868125,18.15483795032078L64.10487499999999,32.24659184974931L65.341625,66.63345615522248L66.57837500000001,57.62151785946718L67.815125,50.24121338152272L69.05187500000001,66.76971535694122L70.288625,58.306735217807386L71.525375,71.03483117360605L72.762125,69.6560832795117L73.998875,39.895758422445034L75.235625,67.56262142290264L76.472375,77.59373193267905L77.709125,89.56336599904857L78.945875,94.52877860172988L80.18262499999999,100.15246114023442L81.419375,98.5563394423272L82.65612499999999,82.6372964092277L83.892875,77.58279354426995L85.129625,79.06994908868928L86.366375,93.0330604523934L87.603125,86.29441198868611L88.83987499999999,91.16017710559265L90.076625,85.84066832893116L91.313375,83.04298241200678L92.55012500000001,67.20108604530743L93.786875,67.48116567844873L95.02362500000001,65.33925014802516L96.260375,91.77714925396116L97.497125,95.75395805199913L98.733875,81.2514480261131L99.970625,57.51705963172162L101.207375,50.00670531193424L102.444125,47.01497237346382L103.680875,53.11745138877098L104.917625,66.87736003293149L106.15437499999999,58.25092004138172L107.391125,59.80236157524446L108.62787499999999,52.47212757968162L109.864625,55.28187019626438L111.101375,34.34732940684744L112.338125,50.85671135284731L113.574875,82.50130849723412L114.81162499999999,77.03520152465234L116.04837500000001,99.17006109435611L117.285125,117.04884431962087L118.52187500000001,130.02450379959188L119.758625,142.25260971380678L120.99537500000001,134.98326734647287L122.232125,123.28774211374005L123.468875,114.46769194344927L124.705625,87.91074951775654L125.942375,83.41820294378324L127.179125,79.30487191238154L128.415875,80.67280139497176L129.652625,103.53946077318834L130.889375,106.71415780750749L132.126125,113.7132700071802L133.36287499999997,115.36740062533062L134.599625,132.73648052832252L135.836375,134.190679408544L137.073125,107.34202054369287L138.309875,129.4090034119141L139.546625,131.64234306091817L140.783375,96.35819680442718L142.020125,66.69034958235423L143.256875,100.92592299194337L144.49362499999998,80.72166692794626L145.730375,72.6859760649605L146.967125,98.58738887604605L148.203875,102.73240237954629L149.44062499999998,117.01565397043505L150.67737499999998,123.95708912332184L151.914125,120.74562650697483L153.150875,115.0126965802082L154.38762499999999,124.11018929195866L155.624375,148.73290201313773L156.86112500000002,138.82543024321163L158.09787500000002,144.23591201733316L159.334625,147.23636758329567L160.571375,146.27007145611975L161.808125,127.33463397796254L163.04487500000002,143.08062831132432L164.281625,135.5029169051522L165.518375,164.50179379292734L166.755125,177.9632162693915L167.991875,163.02685691866847L169.22862500000002,141.30692352949993L170.465375,139.71829675603647L171.702125,141.61193626450202L172.938875,127.67379278789527L174.17562500000003,117.35547208967871L175.412375,134.71861492016842L176.649125,159.25842455279187L177.885875,164.33260671456557L179.122625,148.67582909289217L180.359375,157.74514643970153L181.596125,134.88082967284225L182.832875,132.05210432568023L184.069625,124.63843553811158L185.30637499999997,124.478650418221L186.543125,157.14356523889248L187.779875,148.7412987885244L189.016625,116.57210356057257L190.25337499999998,126.31777052265203L191.490125,113.12269246903321L192.726875,123.48253993261933L193.963625,138.38985635408486L195.200375,147.43586210188863L196.43712499999998,140.78015356202212L197.673875,140.5359785168454L198.910625,149.10489472204955L200.147375,161.3033340746704L201.38412499999998,150.22199619965107L202.62087499999998,157.36055582665304L203.857625,123.10800342881238L205.094375,125.01455585000683L206.331125,146.6175697544572L207.567875,147.66803146922013L208.80462500000002,159.01884535592126L210.04137500000002,141.33318936069153L211.278125,107.12496889051134L212.514875,100.00469091349281L213.751625,134.9567690862568L214.98837500000002,133.28647563732142L216.225125,149.19993529869276L217.461875,155.86690795106497L218.698625,144.18453760228962L219.935375,153.88250207906773L221.17212500000002,102.26414297985158L222.408875,128.54695267684804L223.645625,118.9240719753412L224.882375,125.0896357523148L226.11912500000003,116.92531828606235L227.355875,141.94463640167774L228.592625,134.87262124194834L229.829375,117.41684017566955L231.066125,135.50633359652718L232.302875,146.91946255522507L233.539625,164.7497990705387L234.776375,169.8834817247281L236.013125,179.38215094264848L238.486625,186.00004819263813L239.723375,173.56379515990764L240.960125,169.03717938212733" style="fill: none;" fill="none"></path></g><g><path stroke="rgb(204, 51, 17)" stroke-width="2px" d="M28.239125,128.5537219860337L29.475875000000002,118.12456055459654L30.712625,142.3947112112961L31.949375,168.06490026379535L34.422875,161.44651681089357L35.659625,141.87722282248907L36.896375,101.23870642905285L38.133125,102.43623443154735L39.369875,117.33646776083594L40.606624999999994,127.99679470574148L41.843374999999995,92.39845621198205L43.080124999999995,130.27911793953803L44.316874999999996,121.76823783448444L45.553625000000004,142.7363925399681L46.790375000000004,156.19910425905783L48.027125000000005,126.12517565470748L49.263875,147.83898759159715L50.500625,139.45079416928263L51.737375,171.68558433319996L52.974125,147.25669635818284L54.210875,151.938154358678L55.447625,143.21138144106345L56.684375,125.89803811057361L57.921124999999996,131.18281521641475L59.157875,135.40151341411607L60.394625,138.3931499871781L61.631375,127.97913903073577L62.868125,104.7131235368131L64.10487499999999,108.10923930226885L65.341625,132.2116247371953L66.57837500000001,136.89696919816137L67.815125,126.74278469760822L69.05187500000001,113.46080574132554L70.288625,109.75249709272074L71.525375,116.29979557619089L72.762125,125.37857556229179L73.998875,115.12115239316083L75.235625,84.1482269596539L76.472375,89.5025439606352L77.709125,98.83298409424293L78.945875,74.24928927718211L80.18262499999999,100.32342604639379L81.419375,94.01392347265521L82.65612499999999,106.67668949592661L83.892875,109.34028358991857L85.129625,102.81678125172543L86.366375,95.21976303430137L87.603125,99.95284869198646L88.83987499999999,83.35603466508525L90.076625,94.5918617193388L91.313375,112.408039870616L92.55012500000001,130.56191738661275L93.786875,138.64266899412527L95.02362500000001,132.78528119977548L96.260375,111.22416050563808L97.497125,133.27025250529783L98.733875,127.1918767340012L99.970625,131.8558709736164L101.207375,116.61687071253075L102.444125,126.67357570822796L103.680875,127.67787565743569L104.917625,159.9532285275856L106.15437499999999,101.07029285415017L107.391125,89.08222761762347L108.62787499999999,84.97380733063781L109.864625,59.94411607508249L111.101375,69.23472718713948L112.338125,92.68093923249084L113.574875,90.28659176539324L114.81162499999999,77.41818311746572L116.04837500000001,107.92398619369607L117.285125,120.41878770420517L118.52187500000001,130.47314982626935L119.758625,99.86120036306986L120.99537500000001,103.58944554583216L123.468875,95.51546040665878L124.705625,119.83118661339144L125.942375,124.31434852916853L127.179125,147.6345801656503L128.415875,98.38784246203927L129.652625,101.20464220325186L130.889375,126.16433638820884L132.126125,127.93522370045194L133.36287499999997,88.37171889924615L134.599625,95.3753135006101L135.836375,100.72834580001604L137.073125,95.64603750133033L138.309875,113.1326302487518L139.546625,113.55853404829455L140.783375,115.78754188717772L142.020125,131.9069242670401L143.256875,137.76398339399915L144.49362499999998,108.53102212538582L145.730375,116.0770040529928L146.967125,110.80430600891103L148.203875,139.21988858003263L149.44062499999998,165.35371831081522" style="fill: none;" fill="none"></path></g></g></g></g><g opacity="0.2"><g><g><g><path stroke="rgb(51, 187, 238)" stroke-width="2px" d="M28.239125,154.81071895496413L29.475875000000002,101.39454826712608L30.712625,-20.052510974082065L31.949375,6.325691362673615L33.186125,-101.64925936948167L34.422875,38.30952207473194L35.659625,-74.04096041890705L36.896375,-34.264919331127935L38.133125,51.45071355456657L39.369875,56.8500770086592L40.606624999999994,28.3367839726535L41.843374999999995,53.3737248317762L43.080124999999995,51.40377794477074L44.316874999999996,-22.42773456329646L45.553625000000004,18.292143873193062L46.790375000000004,93.03206723522058L48.027125000000005,-18.087209693410138L49.263875,-9.591145000674466L50.500625,29.35890728099781L51.737375,-4.962922226298918L52.974125,50.064254823056146L54.210875,-1.0617818006060304L55.447625,54.9622224813158L56.684375,66.48521440272982L57.921124999999996,12.200734933668945L59.157875,25.12265379455959L60.394625,-22.053628381003012L61.631375,11.948943070390024L62.868125,30.395267124880462L64.10487499999999,53.38421491059391L65.341625,118.213741210374L66.57837500000001,44.10361220890827L67.815125,39.17075754566628L69.05187500000001,91.56246713616632L70.288625,45.61226537281818L71.525375,90.12697477909653L72.762125,67.58796145970172L73.998875,-4.744728586890477L75.235625,109.06291576949036L76.472375,92.64039766382089L77.709125,107.5178170746023L78.945875,101.97689749977808L80.18262499999999,108.58798494393176L81.419375,96.16215689615771L82.65612499999999,58.75873186371545L83.892875,70.00103924762121L85.129625,81.3006824051792L86.366375,113.97772749716586L87.603125,76.18643929335205L88.83987499999999,98.45882478085434L90.076625,77.86140516400339L91.313375,78.84645353664054L92.55012500000001,43.43824149532753L93.786875,67.90128512815997L95.02362500000001,62.12637685239317L96.260375,131.43399791284043L97.497125,101.7191712490537L98.733875,59.49768298728901L99.970625,21.915477040139127L101.207375,38.74117383225399L102.444125,42.52737296575851L103.680875,62.27116991173139L104.917625,87.51722299917179L106.15437499999999,45.31126005405731L107.391125,62.129523876038476L108.62787499999999,41.47677658633755L109.864625,59.49648412113841L111.101375,2.945518222722165L112.338125,75.62078427184714L113.574875,129.96820421381432L114.81162499999999,68.83604106577961L116.04837500000001,132.37235044891185L117.285125,143.86701915751806L118.52187500000001,149.48799301954836L119.758625,160.59476858512923L120.99537500000001,124.07925379547207L122.232125,105.74445426464081L123.468875,101.23761668801308L124.705625,48.07533587921752L125.942375,76.67938308282334L127.179125,73.13487536527896L128.415875,82.72469561885706L129.652625,137.83944984051317L130.889375,111.47620335898618L132.126125,124.21193830668926L133.36287499999997,117.84859655255622L134.599625,158.7901003828103L135.836375,136.3719777288762L137.073125,67.06903224641627L138.309875,162.50947771424597L139.546625,134.99235253442419L140.783375,43.43197741969067L142.020125,22.188578749244876L143.256875,152.27928310632706L144.49362499999998,50.41528283195065L145.730375,60.632439770481824L146.967125,137.43950809267434L148.203875,108.94992263479668L149.44062499999998,138.4405313567682L150.67737499999998,134.36924185265195L151.914125,115.92843258245426L153.150875,106.41330169005829L154.38762499999999,137.7564283595844L155.624375,185.66697109490633L156.86112500000002,123.96422258832239L158.09787500000002,152.35163467851552L159.334625,151.7370509322394L160.571375,144.8206272653558L161.808125,98.93147776072676L163.04487500000002,166.69961981136692L164.281625,124.1363497958942L165.518375,208.00010912459007L166.755125,198.15534998408774L167.991875,140.62231789258394L169.22862500000002,108.72702344574712L170.465375,137.33535659584135L171.702125,144.45239552720028L172.938875,106.76657757298514L174.17562500000003,101.87799104235391L175.412375,160.76332916590303L176.649125,196.0681390017271L177.885875,171.94387995722622L179.122625,125.19066266038202L180.359375,171.34912245991558L181.596125,100.58435452255337L182.832875,127.80901630493729L184.069625,113.51793235675856L185.30637499999997,124.2389727383852L186.543125,206.14093746989965L187.779875,136.13789911297235L189.016625,68.31831071864477L190.25337499999998,140.93627096577126L191.490125,93.33007538860495L192.726875,139.02231112799862L193.963625,160.75083098628303L195.200375,161.0048707235943L196.43712499999998,130.79659075222233L197.673875,140.1697159490802L198.910625,161.95826902985573L200.147375,179.60099310360172L201.38412499999998,133.5999893871221L202.62087499999998,168.06839526715606L203.857625,71.72917483205146L205.094375,127.87438448179854L206.331125,179.02209061113268L207.567875,149.2437240413644L208.80462500000002,176.0450661859729L210.04137500000002,114.80470536784694L211.278125,55.81263818524102L212.514875,89.32427394796504L213.751625,187.38488634540275L214.98837500000002,130.78103546391836L216.225125,173.07012479074976L217.461875,165.86736692962322L218.698625,126.66098207912661L219.935375,168.42944879423487L221.17212500000002,24.8366043310274L222.408875,167.9711672223427L223.645625,104.48975092308089L224.882375,134.33798141777515L226.11912500000003,104.67884208668364L227.355875,179.4736135751009L228.592625,124.2645985023542L229.829375,91.2331685762514L231.066125,162.64057372781366L232.302875,164.03915599327195L233.539625,191.49530384350908L237.24987499999997,222.7519772777503L238.486625,169.90499826656148L239.723375,154.90941561081192L240.960125,162.2472557154569" style="fill: none;" fill="none"></path></g><g><path stroke="rgb(204, 51, 17)" stroke-width="2px" d="M28.239125,128.5537219860337L29.475875000000002,111.8670636957342L30.712625,165.6940558417277L31.949375,198.25304258953443L34.422875,152.80555537478492L35.659625,114.80584429069L36.896375,43.12497777017681L38.133125,104.18224175545303L39.369875,139.31141770021483L40.606624999999994,143.82613782178274L41.843374999999995,39.32382278144362L43.080124999999995,186.89396564256063L44.316874999999996,109.02970717711884L45.553625000000004,174.14754580029032L46.790375000000004,176.37734692543745L48.027125000000005,81.03549321266739L49.263875,180.4005169394341L50.500625,126.8706337972121L51.737375,220.0328589332375L52.974125,110.61559729278088L54.210875,158.9600846171379L55.447625,130.12150922282177L56.684375,99.92836493660106L57.921124999999996,139.1099182719534L59.157875,141.7295307259668L60.394625,142.88059208880773L61.631375,112.35814924267208L62.868125,69.8141360147433L64.10487499999999,113.20340982214972L65.341625,168.36518956856295L66.57837500000001,143.92498433589935L67.815125,111.51150996712124L69.05187500000001,93.53783889250323L70.288625,104.19003438543191L71.525375,126.12074302001434L72.762125,138.99674530733716L73.998875,99.7350177981637L75.235625,37.68883909691466L76.472375,97.53401943228464L77.709125,112.82864426347344L78.945875,37.37374710088427L80.18262499999999,139.43463116884232L81.419375,84.5496696166017L82.65612499999999,125.67083852534945L83.892875,113.33567473021424L85.129625,93.0315277454528L86.366375,83.8242357088761L87.603125,107.05247717824852L88.83987499999999,58.46081362529236L90.076625,111.44560230049221L91.313375,139.1323070973158L92.55012500000001,157.7927336604758L93.786875,150.76379640535876L95.02362500000001,123.99919950826603L96.260375,78.88247946446593L97.497125,166.33939050476658L98.733875,118.07431307705967L99.970625,138.85186233303764L101.207375,93.75837032090536L102.444125,141.7586332017725L103.680875,129.18432558124715L104.917625,208.36625783280894L106.15437499999999,12.745889343998671L107.391125,71.10012976283377L108.62787499999999,78.81117690015925L109.864625,22.39957919174976L111.101375,83.17064385522498L112.338125,127.85025730051778L113.574875,86.69507056474687L114.81162499999999,58.115570145574495L116.04837500000001,153.68269080804154L117.285125,139.1609899699688L118.52187500000001,145.5546930093657L119.758625,53.94327616827055L120.99537500000001,109.18181331997569L123.468875,83.4044826978987L124.705625,156.30477592349052L125.942375,131.03909140283412L127.179125,182.61492762037298L128.415875,24.51773590662265L129.652625,105.42984181507069L130.889375,163.60387766564435L132.126125,130.59155466881666L133.36287499999997,29.02646169743756L134.599625,105.88070540265605L135.836375,108.75789424912497L137.073125,88.02257505330174L138.309875,139.36251936988398L139.546625,114.19738974760881L140.783375,119.13105364550246L142.020125,156.08599783683366L143.256875,146.54957208443773L144.49362499999998,64.6815802224658L145.730375,127.39597694440323L146.967125,102.8952589427883L148.203875,181.84326243671507" style="fill: none;" fill="none"></path></g></g></g></g></g></g><g transform="translate(72, 177)" clip-path="url(#clip_1)"><clipPath id="clip_1"><rect width="257" height="23"></rect></clipPath><g><g><line x1="0" y1="0" x2="0" y2="5" style="visibility: inherit;" fill="rgb(0, 0, 0)" stroke="rgb(204, 204, 204)" stroke-width="1px"></line><line x1="25.765625" y1="0" x2="25.765625" y2="5" style="visibility: inherit;" fill="rgb(0, 0, 0)" stroke="rgb(204, 204, 204)" stroke-width="1px"></line><line x1="51.53125" y1="0" x2="51.53125" y2="5" style="visibility: inherit;" fill="rgb(0, 0, 0)" stroke="rgb(204, 204, 204)" stroke-width="1px"></line><line x1="77.296875" y1="0" x2="77.296875" y2="5" style="visibility: inherit;" fill="rgb(0, 0, 0)" stroke="rgb(204, 204, 204)" stroke-width="1px"></line><line x1="103.0625" y1="0" x2="103.0625" y2="5" style="visibility: inherit;" fill="rgb(0, 0, 0)" stroke="rgb(204, 204, 204)" stroke-width="1px"></line><line x1="128.828125" y1="0" x2="128.828125" y2="5" style="visibility: inherit;" fill="rgb(0, 0, 0)" stroke="rgb(204, 204, 204)" stroke-width="1px"></line><line x1="154.59375" y1="0" x2="154.59375" y2="5" style="visibility: inherit;" fill="rgb(0, 0, 0)" stroke="rgb(204, 204, 204)" stroke-width="1px"></line><line x1="180.359375" y1="0" x2="180.359375" y2="5" style="visibility: inherit;" fill="rgb(0, 0, 0)" stroke="rgb(204, 204, 204)" stroke-width="1px"></line><line x1="206.125" y1="0" x2="206.125" y2="5" style="visibility: inherit;" fill="rgb(0, 0, 0)" stroke="rgb(204, 204, 204)" stroke-width="1px"></line><line x1="231.890625" y1="0" x2="231.890625" y2="5" style="visibility: inherit;" fill="rgb(0, 0, 0)" stroke="rgb(204, 204, 204)" stroke-width="1px"></line><line x1="257.65625" y1="0" x2="257.65625" y2="5" style="visibility: inherit;" fill="rgb(0, 0, 0)" stroke="rgb(204, 204, 204)" stroke-width="1px"></line></g><g transform="translate(0, 8)"><text x="0" y="0" dx="0em" dy="0.95em" style="text-anchor: middle; visibility: hidden; font-family: Roboto, sans-serif; font-size: 12px; font-weight: 200;" fill="rgb(33, 33, 33)" stroke="none" stroke-width="1px">-500k</text><text x="25.765625" y="0" dx="0em" dy="0.95em" style="text-anchor: middle; visibility: inherit; font-family: Roboto, sans-serif; font-size: 12px; font-weight: 200;" fill="rgb(33, 33, 33)" stroke="none" stroke-width="1px">0</text><text x="51.53125" y="0" dx="0em" dy="0.95em" style="text-anchor: middle; visibility: hidden; font-family: Roboto, sans-serif; font-size: 12px; font-weight: 200;" fill="rgb(33, 33, 33)" stroke="none" stroke-width="1px">500k</text><text x="77.296875" y="0" dx="0em" dy="0.95em" style="text-anchor: middle; visibility: inherit; font-family: Roboto, sans-serif; font-size: 12px; font-weight: 200;" fill="rgb(33, 33, 33)" stroke="none" stroke-width="1px">1M</text><text x="103.0625" y="0" dx="0em" dy="0.95em" style="text-anchor: middle; visibility: hidden; font-family: Roboto, sans-serif; font-size: 12px; font-weight: 200;" fill="rgb(33, 33, 33)" stroke="none" stroke-width="1px">1.5M</text><text x="128.828125" y="0" dx="0em" dy="0.95em" style="text-anchor: middle; visibility: inherit; font-family: Roboto, sans-serif; font-size: 12px; font-weight: 200;" fill="rgb(33, 33, 33)" stroke="none" stroke-width="1px">2M</text><text x="154.59375" y="0" dx="0em" dy="0.95em" style="text-anchor: middle; visibility: hidden; font-family: Roboto, sans-serif; font-size: 12px; font-weight: 200;" fill="rgb(33, 33, 33)" stroke="none" stroke-width="1px">2.5M</text><text x="180.359375" y="0" dx="0em" dy="0.95em" style="text-anchor: middle; visibility: inherit; font-family: Roboto, sans-serif; font-size: 12px; font-weight: 200;" fill="rgb(33, 33, 33)" stroke="none" stroke-width="1px">3M</text><text x="206.125" y="0" dx="0em" dy="0.95em" style="text-anchor: middle; visibility: hidden; font-family: Roboto, sans-serif; font-size: 12px; font-weight: 200;" fill="rgb(33, 33, 33)" stroke="none" stroke-width="1px">3.5M</text><text x="231.890625" y="0" dx="0em" dy="0.95em" style="text-anchor: middle; visibility: inherit; font-family: Roboto, sans-serif; font-size: 12px; font-weight: 200;" fill="rgb(33, 33, 33)" stroke="none" stroke-width="1px">4M</text><text x="257.65625" y="0" dx="0em" dy="0.95em" style="text-anchor: middle; visibility: hidden; font-family: Roboto, sans-serif; font-size: 12px; font-weight: 200;" fill="rgb(33, 33, 33)" stroke="none" stroke-width="1px">4.5M</text></g><line x1="0" y1="0" x2="257.65625" y2="0" fill="rgb(0, 0, 0)" stroke="rgb(204, 204, 204)" stroke-width="1px"></line></g></g></g></g></svg>