<svg viewBox="0 0 330 200" xmlns="http://www.w3.org/2000/svg"><g><g><g><g><g><line x1="61.953125" y1="177" x2="56.953125" y2="177" style="visibility: inherit;" fill="rgb(0, 0, 0)" stroke="rgb(204, 204, 204)" stroke-width="1px"></line><line x1="61.953125" y1="159.3" x2="56.953125" y2="159.3" style="visibility: inherit;" fill="rgb(0, 0, 0)" stroke="rgb(204, 204, 204)" stroke-width="1px"></line><line x1="61.953125" y1="141.6" x2="56.953125" y2="141.6" style="visibility: inherit;" fill="rgb(0, 0, 0)" stroke="rgb(204, 204, 204)" stroke-width="1px"></line><line x1="61.953125" y1="123.89999999999999" x2="56.953125" y2="123.89999999999999" style="visibility: inherit;" fill="rgb(0, 0, 0)" stroke="rgb(204, 204, 204)" stroke-width="1px"></line><line x1="61.953125" y1="106.2" x2="56.953125" y2="106.2" style="visibility: inherit;" fill="rgb(0, 0, 0)" stroke="rgb(204, 204, 204)" stroke-width="1px"></line><line x1="61.953125" y1="88.5" x2="56.953125" y2="88.5" style="visibility: inherit;" fill="rgb(0, 0, 0)" stroke="rgb(204, 204, 204)" stroke-width="1px"></line><line x1="61.953125" y1="70.79999999999998" x2="56.953125" y2="70.79999999999998" style="visibility: inherit;" fill="rgb(0, 0, 0)" stroke="rgb(204, 204, 204)" stroke-width="1px"></line><line x1="61.953125" y1="53.10000000000001" x2="56.953125" y2="53.10000000000001" style="visibility: inherit;" fill="rgb(0, 0, 0)" stroke="rgb(204, 204, 204)" stroke-width="1px"></line><line x1="61.953125" y1="35.40000000000001" x2="56.953125" y2="35.40000000000001" style="visibility: inherit;" fill="rgb(0, 0, 0)" stroke="rgb(204, 204, 204)" stroke-width="1px"></line><line x1="61.953125" y1="17.700000000000017" x2="56.953125" y2="17.700000000000017" style="visibility: inherit;" fill="rgb(0, 0, 0)" stroke="rgb(204, 204, 204)" stroke-width="1px"></line><line x1="61.953125" y1="0" x2="56.953125" y2="0" style="visibility: inherit;" fill="rgb(0, 0, 0)" stroke="rgb(204, 204, 204)" stroke-width="1px"></line></g><g transform="translate(51.953125, 0)"><text x="0" y="177" dx="0em" dy="0.3em" style="text-anchor: end; visibility: hidden; font-family: Roboto, sans-serif; font-size: 12px; font-weight: 200;" fill="rgb(33, 33, 33)" stroke="none" stroke-width="1px">-1e-3</text><text x="0" y="159.3" dx="0em" dy="0.3em" style="text-anchor: end; visibility: inherit; font-family: Roboto, sans-serif; font-size: 12px; font-weight: 200;" fill="rgb(33, 33, 33)" stroke="none" stroke-width="1px">-8e-4</text><text x="0" y="141.6" dx="0em" dy="0.3em" style="text-anchor: end; visibility: hidden; font-family: Roboto, sans-serif; font-size: 12px; font-weight: 200;" fill="rgb(33, 33, 33)" stroke="none" stroke-width="1px">-6e-4</text><text x="0" y="123.89999999999999" dx="0em" dy="0.3em" style="text-anchor: end; visibility: inherit; font-family: Roboto, sans-serif; font-size: 12px; font-weight: 200;" fill="rgb(33, 33, 33)" stroke="none" stroke-width="1px">-4e-4</text><text x="0" y="106.2" dx="0em" dy="0.3em" style="text-anchor: end; visibility: hidden; font-family: Roboto, sans-serif; font-size: 12px; font-weight: 200;" fill="rgb(33, 33, 33)" stroke="none" stroke-width="1px">-2e-4</text><text x="0" y="88.5" dx="0em" dy="0.3em" style="text-anchor: end; visibility: inherit; font-family: Roboto, sans-serif; font-size: 12px; font-weight: 200;" fill="rgb(33, 33, 33)" stroke="none" stroke-width="1px">0</text><text x="0" y="70.79999999999998" dx="0em" dy="0.3em" style="text-anchor: end; visibility: hidden; font-family: Roboto, sans-serif; font-size: 12px; font-weight: 200;" fill="rgb(33, 33, 33)" stroke="none" stroke-width="1px">2e-4</text><text x="0" y="53.10000000000001" dx="0em" dy="0.3em" style="text-anchor: end; visibility: inherit; font-family: Roboto, sans-serif; font-size: 12px; font-weight: 200;" fill="rgb(33, 33, 33)" stroke="none" stroke-width="1px">4e-4</text><text x="0" y="35.40000000000001" dx="0em" dy="0.3em" style="text-anchor: end; visibility: hidden; font-family: Roboto, sans-serif; font-size: 12px; font-weight: 200;" fill="rgb(33, 33, 33)" stroke="none" stroke-width="1px">6e-4</text><text x="0" y="17.700000000000017" dx="0em" dy="0.3em" style="text-anchor: end; visibility: inherit; font-family: Roboto, sans-serif; font-size: 12px; font-weight: 200;" fill="rgb(33, 33, 33)" stroke="none" stroke-width="1px">8e-4</text><text x="0" y="0" dx="0em" dy="0.3em" style="text-anchor: end; visibility: hidden; font-family: Roboto, sans-serif; font-size: 12px; font-weight: 200;" fill="rgb(33, 33, 33)" stroke="none" stroke-width="1px">1e-3</text></g><line x1="61.953125" y1="0" x2="61.953125" y2="177" fill="rgb(0, 0, 0)" stroke="rgb(204, 204, 204)" stroke-width="1px"></line></g></g><g transform="translate(61, 0)" clip-path="url(#clip_0)"><clipPath id="clip_0"><rect width="268" height="177"></rect></clipPath><g><g><g><line x1="0" y1="0" x2="0" y2="177" fill="rgb(0, 0, 0)" stroke="rgb(66, 66, 66)" stroke-width="1px" opacity="0.25"></line><line x1="26.8046875" y1="0" x2="26.8046875" y2="177" fill="rgb(0, 0, 0)" stroke="rgb(66, 66, 66)" stroke-width="1px" opacity="0.25"></line><line x1="53.609375" y1="0" x2="53.609375" y2="177" fill="rgb(0, 0, 0)" stroke="rgb(66, 66, 66)" stroke-width="1px" opacity="0.25"></line><line x1="80.4140625" y1="0" x2="80.4140625" y2="177" fill="rgb(0, 0, 0)" stroke="rgb(66, 66, 66)" stroke-width="1px" opacity="0.25"></line><line x1="107.21875" y1="0" x2="107.21875" y2="177" fill="rgb(0, 0, 0)" stroke="rgb(66, 66, 66)" stroke-width="1px" opacity="0.25"></line><line x1="134.0234375" y1="0" x2="134.0234375" y2="177" fill="rgb(0, 0, 0)" stroke="rgb(66, 66, 66)" stroke-width="1px" opacity="0.25"></line><line x1="160.828125" y1="0" x2="160.828125" y2="177" fill="rgb(0, 0, 0)" stroke="rgb(66, 66, 66)" stroke-width="1px" opacity="0.25"></line><line x1="187.6328125" y1="0" x2="187.6328125" y2="177" fill="rgb(0, 0, 0)" stroke="rgb(66, 66, 66)" stroke-width="1px" opacity="0.25"></line><line x1="214.4375" y1="0" x2="214.4375" y2="177" fill="rgb(0, 0, 0)" stroke="rgb(66, 66, 66)" stroke-width="1px" opacity="0.25"></line><line x1="241.2421875" y1="0" x2="241.2421875" y2="177" fill="rgb(0, 0, 0)" stroke="rgb(66, 66, 66)" stroke-width="1px" opacity="0.25"></line><line x1="268.046875" y1="0" x2="268.046875" y2="177" fill="rgb(0, 0, 0)" stroke="rgb(66, 66, 66)" stroke-width="1px" opacity="0.25"></line></g><g><line x1="0" y1="177" x2="268.046875" y2="177" fill="rgb(0, 0, 0)" stroke="rgb(66, 66, 66)" stroke-width="1px" opacity="0.25"></line><line x1="0" y1="159.3" x2="268.046875" y2="159.3" fill="rgb(0, 0, 0)" stroke="rgb(66, 66, 66)" stroke-width="1px" opacity="0.25"></line><line x1="0" y1="141.6" x2="268.046875" y2="141.6" fill="rgb(0, 0, 0)" stroke="rgb(66, 66, 66)" stroke-width="1px" opacity="0.25"></line><line x1="0" y1="123.89999999999999" x2="268.046875" y2="123.89999999999999" fill="rgb(0, 0, 0)" stroke="rgb(66, 66, 66)" stroke-width="1px" opacity="0.25"></line><line x1="0" y1="106.2" x2="268.046875" y2="106.2" fill="rgb(0, 0, 0)" stroke="rgb(66, 66, 66)" stroke-width="1px" opacity="0.25"></line><line x1="0" y1="88.5" x2="268.046875" y2="88.5" fill="rgb(0, 0, 0)" stroke="rgb(66, 66, 66)" stroke-width="1px" opacity="0.25"></line><line x1="0" y1="70.79999999999998" x2="268.046875" y2="70.79999999999998" fill="rgb(0, 0, 0)" stroke="rgb(66, 66, 66)" stroke-width="1px" opacity="0.25"></line><line x1="0" y1="53.10000000000001" x2="268.046875" y2="53.10000000000001" fill="rgb(0, 0, 0)" stroke="rgb(66, 66, 66)" stroke-width="1px" opacity="0.25"></line><line x1="0" y1="35.40000000000001" x2="268.046875" y2="35.40000000000001" fill="rgb(0, 0, 0)" stroke="rgb(66, 66, 66)" stroke-width="1px" opacity="0.25"></line><line x1="0" y1="17.700000000000017" x2="268.046875" y2="17.700000000000017" fill="rgb(0, 0, 0)" stroke="rgb(66, 66, 66)" stroke-width="1px" opacity="0.25"></line><line x1="0" y1="0" x2="268.046875" y2="0" fill="rgb(0, 0, 0)" stroke="rgb(66, 66, 66)" stroke-width="1px" opacity="0.25"></line></g></g></g><g><g><line x1="0" y1="88.5" x2="268.046875" y2="88.5" fill="rgb(0, 0, 0)" stroke="rgb(153, 153, 153)" stroke-width="1.5px"></line></g></g><g><g><line x1="26.8046875" y1="0" x2="26.8046875" y2="177" fill="rgb(0, 0, 0)" stroke="rgb(153, 153, 153)" stroke-width="1.5px"></line></g></g><g><g><g><g><g><path stroke="rgb(51, 187, 238)" stroke-width="2px" d="M29.3779375,214.22880688821897L30.6645625,122.8541108077261L31.9511875,72.3892678406187L33.2378125,43.977980496091135L34.5244375,55.45729220603267L35.8110625,90.27659128175448L37.0976875,50.80639751570926L38.3843125,30.004229941900363L39.6709375,22.064601930126916L40.957562499999995,59.731643026448225L42.244187499999995,74.12824781110184L43.530812499999996,64.54745390088462L44.8174375,97.76642469557268L46.1040625,166.005697442653L47.390687500000006,115.78898532701855L48.677312500000006,96.85856715964299L49.9639375,98.51519776568051L51.2505625,29.48807084734769L52.5371875,38.402136804523366L53.8238125,51.771107274531325L55.1104375,59.04396953458427L56.397062500000004,32.42726421757514L57.6836875,30.888867933770936L58.9703125,7.881565672336033L60.2569375,-40.72552159581089L61.5435625,51.13708199545592L62.8301875,87.280876301552L64.1168125,52.00157184096795L65.4034375,58.66914014760786L66.6900625,22.726143356735246L67.9766875,31.42118889857694L69.26331250000001,88.39607592349857L70.5499375,81.74380146683188L71.8365625,9.587962173310931L73.1231875,97.4649024774455L74.4098125,44.923496069359636L75.6964375,40.593358228736356L76.9830625,30.50350286854144L78.26968749999999,40.18385458884906L79.5563125,45.99719225861408L80.84293749999999,67.15986277883493L82.1295625,84.87207038173801L83.41618749999999,56.09483459795307L84.70281250000001,70.22026826264988L85.9894375,99.22164442576567L87.2760625,93.60674314193277L88.56268750000001,45.36395358351305L89.8493125,21.818539456278042L91.13593750000001,46.59981675176616L92.4225625,39.726074598082L93.70918750000001,32.993546511649846L94.9958125,74.5797742220746L96.2824375,63.115476098479384L97.5690625,76.1117526724985L98.8556875,77.48104756934956L100.1423125,85.00570031913655L101.4289375,85.11709547906324L102.71556249999999,68.70888292934794L104.0021875,53.80827352733819L105.28881249999999,37.52170494079602L106.5754375,41.73206355653911L107.8620625,43.42192572200613L109.14868750000001,25.9010521046849L110.4353125,59.784128583587965L111.7219375,42.26252575875754L113.0085625,13.132411885664903L114.2951875,70.89567751817401L115.58181250000001,104.1375684201233L116.8684375,116.13017046312692L118.1550625,82.55394515796124L119.4416875,89.49672959429041L120.7283125,99.29762297013299L122.0149375,84.37005982030084L123.3015625,116.51075500814557L124.5881875,142.14787618577296L125.8748125,143.42735118154698L127.16143749999999,135.59242347473995L128.4480625,126.58366924711375L129.7346875,117.2928909544881L131.0213125,147.75341129863924L132.3079375,122.9653142675712L133.5945625,139.22747516104678L134.88118749999998,146.98780498961196L136.1678125,157.38619035881138L137.4544375,163.4592915741436L138.7410625,140.0187486349291L140.02768749999998,120.703125275868L141.3143125,99.33110196825731L142.60093750000001,77.64287747814875L143.8875625,91.1917880934175L145.1741875,98.29631108287586L146.4608125,145.78998550526717L147.74743750000002,149.43516590307976L149.0340625,101.35192148947091L150.3206875,47.74790776167583L151.6073125,17.10719597798153L152.8939375,2.3037348942402978L154.1805625,77.82869688143248L155.4671875,84.55730195996114L156.7538125,92.10025229829314L158.0404375,176.42210545556404L159.3270625,144.9899051905415L160.6136875,140.20748032594793L161.90031249999998,121.32548656791468L163.1869375,118.48675198077423L164.4735625,93.25712055163763L165.7601875,115.24776668787185L167.0468125,157.20335063414385L168.3334375,140.03675155820355L169.62006250000002,129.9149154305311L170.90668749999998,152.07952698702974L172.1933125,120.01073848425068L173.4799375,148.99632820244858L174.76656250000002,120.97314808996383L176.0531875,160.28247089654573L177.3398125,160.95822172985444L178.6264375,122.30687112655137L179.9130625,153.89359819637025L181.1996875,185.43136163351707L182.4863125,156.8171118385212L183.77293749999998,148.74154979087734L185.0595625,145.50497554552376L186.3461875,153.9721176033799L187.6328125,164.08345288127416L188.9194375,179.2881392273814L190.2060625,164.99968953518632L191.49268750000002,158.96842707196885L192.77931249999997,155.1326791292057L194.0659375,144.18486597572456L195.3525625,144.65709697565254L196.63918750000002,180.21826305548586L197.92581249999998,147.1753089502552L199.2124375,154.84540132117112L200.4990625,100.72327863766235L201.7856875,136.35405532438148L203.0723125,158.78100808605456L204.3589375,127.57202937685874L205.6455625,124.16948681654773L206.9321875,103.56458124618638L208.2188125,73.68724842420389L209.5054375,44.15887606956761L210.7920625,55.37800774770928L212.0786875,140.9667073736963L213.36531250000002,127.44148069475696L214.65193749999997,112.12538252638838L215.9385625,103.5162974473023L217.2251875,109.56224634705647L218.51181250000002,119.29420993908815L219.79843749999998,71.39553782826407L221.0850625,87.25919987425092L222.3716875,79.1982578915593L223.65831250000002,103.7024591711938L224.94493749999998,77.50332716885757L226.2315625,95.143255921141L227.5181875,121.86381715539734L228.8048125,77.78727920430089L230.0914375,49.89311863080969L231.3780625,44.6402780984681L232.66468749999999,64.99128357129156L233.9513125,52.418229229900895L235.23793750000002,52.54489014795826L236.5245625,43.954563812081716L237.8111875,52.8066855629677L239.0978125,0.5857877387341814L240.38443750000002,6.78242857953455L241.67106249999998,0.09846010718818887L242.9576875,13.38182365116672L244.2443125,53.25795430549427L245.53093750000002,57.45383644820566L246.81756249999998,81.87430169742223L248.1041875,106.78616622052142L249.3908125,105.3265318717611L250.6774375,83.22713421135893" style="fill: none;" fill="none"></path></g><g><path stroke="rgb(204, 51, 17)" stroke-width="2px" d="M29.3779375,-35.16862659109756L30.6645625,17.6315683076391L31.9511875,55.32700475666563L33.2378125,64.14293240477984L35.8110625,72.96919816848603L37.0976875,82.41603971708152L38.3843125,39.725065377529575L39.6709375,14.448738937803949L40.957562499999995,69.92350195262469L42.244187499999995,107.65002316013067L43.530812499999996,111.86872638220264L44.8174375,85.02214917043821L46.1040625,104.59228282868276L47.390687500000006,81.99507582182042L48.677312500000006,81.8378440599551L49.9639375,73.09092874071268L51.2505625,117.63525575025936L52.5371875,135.2736244231583L53.8238125,120.40571215724768L55.1104375,94.51381675510015L56.397062500000004,75.59783741795665L57.6836875,70.05807487285854L58.9703125,124.28969353943629L60.2569375,90.13076054221267L61.5435625,79.08095260215522L62.8301875,89.61480706967673L64.1168125,117.95802174185035L65.4034375,129.0682298226744L66.6900625,126.35203908537595L67.9766875,81.82500065129835L69.26331250000001,106.33571095944662L70.5499375,111.65235087424124L71.8365625,95.67642885788295L73.1231875,92.74874108590376L74.4098125,95.14421672053713L75.6964375,116.59333287029163L76.9830625,130.18361826086357L78.26968749999999,117.64853299460476L79.5563125,98.17897185802502L80.84293749999999,61.806370862910335L82.1295625,111.64236440660018L83.41618749999999,106.37458857723733L84.70281250000001,99.13193153475493L85.9894375,98.1192978911094L87.2760625,88.69855324236495L88.56268750000001,70.26906223049076L89.8493125,64.14002166659174L91.13593750000001,54.18961701939961L92.4225625,63.95693186964302L93.70918750000001,84.73723109781079L94.9958125,57.45388748334875L96.2824375,40.3452994044903L97.5690625,79.98651108296255L98.8556875,82.35390385584093L100.1423125,62.91738686468605L101.4289375,51.01947555983082L102.71556249999999,68.314365979236L104.0021875,59.374014739894996L105.28881249999999,83.58434721069668L106.5754375,87.88898003459245L107.8620625,101.26290497948057L109.14868750000001,87.08791472350566L110.4353125,75.08504115905977L111.7219375,60.865481453152626L113.0085625,70.05609701157108L114.2951875,71.16466506464887L115.58181250000001,88.02420937071474L116.8684375,70.41718022210661L118.1550625,49.13179328588105L119.4416875,85.33782723648822L120.7283125,103.68126481977501L122.0149375,95.25658896017339L123.3015625,84.96976294924403L124.5881875,63.76162951065353L125.8748125,68.77286505388452L128.4480625,89.6838835693414L129.7346875,122.12776119670735L131.0213125,128.9360043226121L132.3079375,84.75243745695802L133.5945625,120.5893715863936L134.88118749999998,106.28650328811518L136.1678125,130.04135737558613L137.4544375,119.0907846843485L138.7410625,116.7032471829915L140.02768749999998,141.71516184489514L141.3143125,118.25897275233943L142.60093750000001,111.81071767031955L143.8875625,112.84465456152965L145.1741875,119.02292289317406L146.4608125,138.85848984557842L147.74743750000002,160.2976805469078L149.0340625,184.08591596469626L150.3206875,166.50475299962443L151.6073125,179.7903334571903L152.8939375,199.48971685481726L154.1805625,142.65202726732102L155.4671875,135.9016666878356" style="fill: none;" fill="none"></path></g></g></g></g><g opacity="0.2"><g><g><g><path stroke="rgb(51, 187, 238)" stroke-width="2px" d="M29.3779375,214.22880688821897L30.6645625,68.02929315943038L31.9511875,23.943018592195585L33.2378125,10.566306578926742L34.5244375,70.4446815745323L35.8110625,138.44421685114503L37.0976875,-5.636611092835665L38.3843125,-0.3255300815217197L39.6709375,10.35519280610606L40.957562499999995,115.66280918684788L42.244187499999995,95.59257884227554L43.530812499999996,50.22840129293036L44.8174375,147.48641518433578L46.1040625,268.23091872408986L47.390687500000006,40.522945013595745L48.677312500000006,68.4762911061407L49.9639375,100.99944264418446L51.2505625,-74.03509355010465L52.5371875,51.77187777205836L53.8238125,71.82334100268781L55.1104375,69.95286406361265L56.397062500000004,-7.496917923912406L57.6836875,28.58130388101563L58.9703125,-26.62911517638713L61.5435625,188.9305956303142L62.8301875,141.49647527863272L64.1168125,-0.9173306878656149L65.4034375,68.67048646579497L66.6900625,-31.188331964425743L67.9766875,44.46375432796776L69.26331250000001,173.8583951247856L70.5499375,71.76539057597984L71.8365625,-98.64579159859568L74.4098125,-33.88861218793318L75.6964375,34.09815153479576L76.9830625,15.368719921912998L78.26968749999999,54.704382115392946L79.5563125,54.71719874383416L80.84293749999999,98.90386851673247L82.1295625,111.44038176478352L83.41618749999999,12.928980943048373L84.70281250000001,91.40841875357728L85.9894375,142.72370866290294L87.2760625,85.18439121705887L88.56268750000001,-27.00023074960336L89.8493125,-13.499581733252853L91.13593750000001,83.7717326941638L92.4225625,29.41546136769466L93.70918750000001,22.894754382083192L94.9958125,136.95911578740925L96.2824375,45.91902891313657L97.5690625,95.60616753349314L98.8556875,79.53498991462402L100.1423125,96.2926794438099L101.4289375,85.2841882189532L102.71556249999999,44.096564104780555L104.0021875,31.45735942432657L105.28881249999999,13.09185206098482L106.5754375,48.04760148015339L107.8620625,45.956718970206566L109.14868750000001,-0.3802583212964237L110.4353125,110.60874330194201L111.7219375,15.980121521512046L113.0085625,-30.562758923973888L114.2951875,157.54057596693747L115.58181250000001,154.0004047730472L116.8684375,134.11907352763228L118.1550625,32.18960720021278L119.4416875,99.91090624878416L120.7283125,113.99896303389687L122.0149375,61.978715095552616L123.3015625,164.72179778991267L124.5881875,180.60355795221403L125.8748125,145.34656367520802L127.16143749999999,123.84003191452939L128.4480625,113.07053790567443L129.7346875,103.35672351554967L131.0213125,193.44419181486592L132.3079375,85.78316872096912L133.5945625,163.62071650126018L134.88118749999998,158.6282997324597L136.1678125,172.98376841261052L137.4544375,172.568943397142L138.7410625,104.85793422610732L140.02768749999998,91.72969023727637L141.3143125,67.2730670068413L142.60093750000001,45.110540742985904L143.8875625,111.5151540163206L145.1741875,108.95309556706343L146.4608125,217.03049713885412L147.74743750000002,154.90293649979867L149.0340625,29.22705486905761L150.3206875,-32.65811283001676L154.1805625,191.11613986222073L155.4671875,94.65020957775414L156.7538125,103.41467780579114L158.0404375,302.9048851914704L159.3270625,97.84160479300772L160.6136875,133.0338430290576L161.90031249999998,93.00249593086482L163.1869375,114.22865010006353L164.4735625,55.41267340793274L165.7601875,148.2337358922232L167.0468125,220.13672655355185L168.3334375,114.28685294429306L169.62006250000002,114.73216123902239L170.90668749999998,185.32644432177767L172.1933125,71.9075557300821L173.4799375,192.47471277974546L174.76656250000002,78.93837792123668L176.0531875,219.24645510641858L177.3398125,161.97184797981754L178.6264375,64.32984522159677L179.9130625,201.27368880109861L181.1996875,232.73800678923726L182.4863125,113.89573714602739L183.77293749999998,136.62820671941154L185.0595625,140.65011417749338L186.3461875,166.67283069016412L187.6328125,179.25045579811558L188.9194375,202.09516874654219L190.2060625,143.5670149968937L191.49268750000002,149.92153337714262L192.77931249999997,149.37905721506104L194.0659375,127.76314624550287L195.3525625,145.36544347554445L196.63918750000002,233.5600121752359L197.92581249999998,97.61087779240916L199.2124375,166.3505398775451L200.4990625,19.540094612399116L201.7856875,189.80022035446018L203.0723125,192.42143722856417L204.3589375,80.758561313065L205.6455625,119.06567297608126L206.9321875,72.65722289064433L208.2188125,28.871249191230163L209.5054375,-0.13368246238678694L210.7920625,72.20670526492177L212.0786875,269.3497568126768L213.36531250000002,107.153640676348L214.65193749999997,89.15123527383548L215.9385625,90.60266982867324L217.2251875,118.63116969668772L218.51181250000002,133.8921553271357L219.79843749999998,-0.45247033797204494L221.0850625,111.0546929432312L222.3716875,67.10684491752181L223.65831250000002,140.45876109064557L224.94493749999998,38.20462916535325L226.2315625,121.60314904956613L227.5181875,161.94465900678188L228.8048125,11.672472277656198L230.0914375,8.0518777705729L231.3780625,36.76101729995571L232.66468749999999,95.51779178052675L233.9513125,33.55864771781489L235.23793750000002,52.73488152504433L236.5245625,31.069074308266863L237.8111875,66.08486818929669L239.0978125,-77.74555899761617L240.38443750000002,16.077389840735123L241.67106249999998,-9.927492601331323L242.9576875,33.306868967134506L244.2443125,113.07215028698556L245.53093750000002,63.74765966227278L246.81756249999998,118.50499957124703L248.1041875,144.15396300517023L249.3908125,103.13708034862066L250.6774375,50.078037720755674" style="fill: none;" fill="none"></path></g><g><path stroke="rgb(204, 51, 17)" stroke-width="2px" d="M29.3779375,-35.16862659109756L30.6645625,49.3116852468811L31.9511875,91.5146237477311L33.2378125,74.51046331896214L35.8110625,84.49277074958081L37.0976875,95.48442244174657L38.3843125,-21.323710983619094L39.6709375,-22.404387664049864L40.957562499999995,151.7380019815173L42.244187499999995,163.66951035358943L43.530812499999996,118.158517887583L44.8174375,44.89838124043308L46.1040625,133.88358343415894L47.390687500000006,48.14353559247684L48.677312500000006,81.60218123719096L49.9639375,59.97672476421576L51.2505625,184.43289659824222L52.5371875,161.72669905261137L53.8238125,98.10610873516998L55.1104375,55.67834027367644L56.397062500000004,47.22490580950398L57.6836875,61.74861334345769L58.9703125,205.6360508305952L60.2569375,38.89276569150388L61.5435625,62.50631922937464L62.8301875,105.4155438488815L64.1168125,160.4727712275926L65.4034375,145.73352488712408L66.6900625,122.27775548142381L67.9766875,15.034467609599233L69.26331250000001,143.10176829365082L70.5499375,119.62730968859978L71.8365625,71.71254774054978L73.1231875,88.35720963763924L74.4098125,98.73743006953737L75.6964375,148.76700654183514L76.9830625,150.56904613645747L78.26968749999999,98.84590521157952L79.5563125,68.97463026159676L80.84293749999999,7.24746949179098L82.1295625,186.39635462220758L83.41618749999999,98.4729248395306L84.70281250000001,88.2679459762594L85.9894375,96.60034742607968L87.2760625,74.56743627169635L88.56268750000001,42.624825715553015L89.8493125,54.94646082131658L91.13593750000001,39.26401004916988L92.4225625,78.6079041446792L93.70918750000001,115.90767993964255L94.9958125,16.528872061986476L96.2824375,14.682417286327109L97.5690625,139.44832860049792L98.8556875,85.90499301515229L100.1423125,33.762611377984285L101.4289375,33.172608602559194L102.71556249999999,94.25670160833397L104.0021875,45.96348788088653L105.28881249999999,119.89984591689426L106.5754375,94.34592927043559L107.8620625,121.32379239681177L109.14868750000001,65.82542933954392L110.4353125,57.080730812391266L111.7219375,39.536141894292086L113.0085625,83.84202034919872L114.2951875,72.82751714426558L115.58181250000001,113.31352582981344L116.8684375,44.00663649919443L118.1550625,17.203712881542742L119.4416875,139.64687816239893L120.7283125,131.19642119470518L122.0149375,82.61957517077099L123.3015625,69.53952393284999L124.5881875,31.949429352767766L125.8748125,76.28971836873097L128.4480625,121.05041134252679L129.7346875,170.79357763775624L131.0213125,139.14836901146919L132.3079375,18.477087158476934L133.5945625,174.34477278054692L134.88118749999998,84.83220084069762L136.1678125,165.67363850679249L137.4544375,102.66492564749205L138.7410625,113.12194093095604L140.02768749999998,179.23303383775055L141.3143125,83.07468911350588L142.60093750000001,102.13833504728973L143.8875625,114.3955598983448L145.1741875,128.29032539064065L146.4608125,168.61184027418494L147.74743750000002,192.4564665989019L149.0340625,219.7682690913789L150.3206875,140.1330085520167L151.6073125,199.71870414353907L152.8939375,229.03879195125774L154.1805625,57.39549288607668L155.4671875,125.7761258186074" style="fill: none;" fill="none"></path></g></g></g></g></g></g><g transform="translate(61, 177)" clip-path="url(#clip_1)"><clipPath id="clip_1"><rect width="268" height="23"></rect></clipPath><g><g><line x1="0" y1="0" x2="0" y2="5" style="visibility: inherit;" fill="rgb(0, 0, 0)" stroke="rgb(204, 204, 204)" stroke-width="1px"></line><line x1="26.8046875" y1="0" x2="26.8046875" y2="5" style="visibility: inherit;" fill="rgb(0, 0, 0)" stroke="rgb(204, 204, 204)" stroke-width="1px"></line><line x1="53.609375" y1="0" x2="53.609375" y2="5" style="visibility: inherit;" fill="rgb(0, 0, 0)" stroke="rgb(204, 204, 204)" stroke-width="1px"></line><line x1="80.4140625" y1="0" x2="80.4140625" y2="5" style="visibility: inherit;" fill="rgb(0, 0, 0)" stroke="rgb(204, 204, 204)" stroke-width="1px"></line><line x1="107.21875" y1="0" x2="107.21875" y2="5" style="visibility: inherit;" fill="rgb(0, 0, 0)" stroke="rgb(204, 204, 204)" stroke-width="1px"></line><line x1="134.0234375" y1="0" x2="134.0234375" y2="5" style="visibility: inherit;" fill="rgb(0, 0, 0)" stroke="rgb(204, 204, 204)" stroke-width="1px"></line><line x1="160.828125" y1="0" x2="160.828125" y2="5" style="visibility: inherit;" fill="rgb(0, 0, 0)" stroke="rgb(204, 204, 204)" stroke-width="1px"></line><line x1="187.6328125" y1="0" x2="187.6328125" y2="5" style="visibility: inherit;" fill="rgb(0, 0, 0)" stroke="rgb(204, 204, 204)" stroke-width="1px"></line><line x1="214.4375" y1="0" x2="214.4375" y2="5" style="visibility: inherit;" fill="rgb(0, 0, 0)" stroke="rgb(204, 204, 204)" stroke-width="1px"></line><line x1="241.2421875" y1="0" x2="241.2421875" y2="5" style="visibility: inherit;" fill="rgb(0, 0, 0)" stroke="rgb(204, 204, 204)" stroke-width="1px"></line><line x1="268.046875" y1="0" x2="268.046875" y2="5" style="visibility: inherit;" fill="rgb(0, 0, 0)" stroke="rgb(204, 204, 204)" stroke-width="1px"></line></g><g transform="translate(0, 8)"><text x="0" y="0" dx="0em" dy="0.95em" style="text-anchor: middle; visibility: hidden; font-family: Roboto, sans-serif; font-size: 12px; font-weight: 200;" fill="rgb(33, 33, 33)" stroke="none" stroke-width="1px">-500k</text><text x="26.8046875" y="0" dx="0em" dy="0.95em" style="text-anchor: middle; visibility: inherit; font-family: Roboto, sans-serif; font-size: 12px; font-weight: 200;" fill="rgb(33, 33, 33)" stroke="none" stroke-width="1px">0</text><text x="53.609375" y="0" dx="0em" dy="0.95em" style="text-anchor: middle; visibility: hidden; font-family: Roboto, sans-serif; font-size: 12px; font-weight: 200;" fill="rgb(33, 33, 33)" stroke="none" stroke-width="1px">500k</text><text x="80.4140625" y="0" dx="0em" dy="0.95em" style="text-anchor: middle; visibility: inherit; font-family: Roboto, sans-serif; font-size: 12px; font-weight: 200;" fill="rgb(33, 33, 33)" stroke="none" stroke-width="1px">1M</text><text x="107.21875" y="0" dx="0em" dy="0.95em" style="text-anchor: middle; visibility: hidden; font-family: Roboto, sans-serif; font-size: 12px; font-weight: 200;" fill="rgb(33, 33, 33)" stroke="none" stroke-width="1px">1.5M</text><text x="134.0234375" y="0" dx="0em" dy="0.95em" style="text-anchor: middle; visibility: inherit; font-family: Roboto, sans-serif; font-size: 12px; font-weight: 200;" fill="rgb(33, 33, 33)" stroke="none" stroke-width="1px">2M</text><text x="160.828125" y="0" dx="0em" dy="0.95em" style="text-anchor: middle; visibility: hidden; font-family: Roboto, sans-serif; font-size: 12px; font-weight: 200;" fill="rgb(33, 33, 33)" stroke="none" stroke-width="1px">2.5M</text><text x="187.6328125" y="0" dx="0em" dy="0.95em" style="text-anchor: middle; visibility: inherit; font-family: Roboto, sans-serif; font-size: 12px; font-weight: 200;" fill="rgb(33, 33, 33)" stroke="none" stroke-width="1px">3M</text><text x="214.4375" y="0" dx="0em" dy="0.95em" style="text-anchor: middle; visibility: hidden; font-family: Roboto, sans-serif; font-size: 12px; font-weight: 200;" fill="rgb(33, 33, 33)" stroke="none" stroke-width="1px">3.5M</text><text x="241.2421875" y="0" dx="0em" dy="0.95em" style="text-anchor: middle; visibility: inherit; font-family: Roboto, sans-serif; font-size: 12px; font-weight: 200;" fill="rgb(33, 33, 33)" stroke="none" stroke-width="1px">4M</text><text x="268.046875" y="0" dx="0em" dy="0.95em" style="text-anchor: middle; visibility: hidden; font-family: Roboto, sans-serif; font-size: 12px; font-weight: 200;" fill="rgb(33, 33, 33)" stroke="none" stroke-width="1px">4.5M</text></g><line x1="0" y1="0" x2="268.046875" y2="0" fill="rgb(0, 0, 0)" stroke="rgb(204, 204, 204)" stroke-width="1px"></line></g></g></g></g></svg>