<svg viewBox="0 0 330 200" xmlns="http://www.w3.org/2000/svg"><g><g><g><g><g><line x1="51.5625" y1="177" x2="46.5625" y2="177" style="visibility: inherit;" fill="rgb(0, 0, 0)" stroke="rgb(204, 204, 204)" stroke-width="1px"></line><line x1="51.5625" y1="159.3" x2="46.5625" y2="159.3" style="visibility: inherit;" fill="rgb(0, 0, 0)" stroke="rgb(204, 204, 204)" stroke-width="1px"></line><line x1="51.5625" y1="141.6" x2="46.5625" y2="141.6" style="visibility: inherit;" fill="rgb(0, 0, 0)" stroke="rgb(204, 204, 204)" stroke-width="1px"></line><line x1="51.5625" y1="123.89999999999999" x2="46.5625" y2="123.89999999999999" style="visibility: inherit;" fill="rgb(0, 0, 0)" stroke="rgb(204, 204, 204)" stroke-width="1px"></line><line x1="51.5625" y1="106.20000000000002" x2="46.5625" y2="106.20000000000002" style="visibility: inherit;" fill="rgb(0, 0, 0)" stroke="rgb(204, 204, 204)" stroke-width="1px"></line><line x1="51.5625" y1="88.5" x2="46.5625" y2="88.5" style="visibility: inherit;" fill="rgb(0, 0, 0)" stroke="rgb(204, 204, 204)" stroke-width="1px"></line><line x1="51.5625" y1="70.79999999999998" x2="46.5625" y2="70.79999999999998" style="visibility: inherit;" fill="rgb(0, 0, 0)" stroke="rgb(204, 204, 204)" stroke-width="1px"></line><line x1="51.5625" y1="53.10000000000001" x2="46.5625" y2="53.10000000000001" style="visibility: inherit;" fill="rgb(0, 0, 0)" stroke="rgb(204, 204, 204)" stroke-width="1px"></line><line x1="51.5625" y1="35.39999999999999" x2="46.5625" y2="35.39999999999999" style="visibility: inherit;" fill="rgb(0, 0, 0)" stroke="rgb(204, 204, 204)" stroke-width="1px"></line><line x1="51.5625" y1="17.699999999999978" x2="46.5625" y2="17.699999999999978" style="visibility: inherit;" fill="rgb(0, 0, 0)" stroke="rgb(204, 204, 204)" stroke-width="1px"></line><line x1="51.5625" y1="0" x2="46.5625" y2="0" style="visibility: inherit;" fill="rgb(0, 0, 0)" stroke="rgb(204, 204, 204)" stroke-width="1px"></line></g><g transform="translate(41.5625, 0)"><text x="0" y="177" dx="0em" dy="0.3em" style="text-anchor: end; visibility: hidden; font-family: Roboto, sans-serif; font-size: 12px; font-weight: 200;" fill="rgb(33, 33, 33)" stroke="none" stroke-width="1px">0.1</text><text x="0" y="159.3" dx="0em" dy="0.3em" style="text-anchor: end; visibility: inherit; font-family: Roboto, sans-serif; font-size: 12px; font-weight: 200;" fill="rgb(33, 33, 33)" stroke="none" stroke-width="1px">0.15</text><text x="0" y="141.6" dx="0em" dy="0.3em" style="text-anchor: end; visibility: hidden; font-family: Roboto, sans-serif; font-size: 12px; font-weight: 200;" fill="rgb(33, 33, 33)" stroke="none" stroke-width="1px">0.2</text><text x="0" y="123.89999999999999" dx="0em" dy="0.3em" style="text-anchor: end; visibility: inherit; font-family: Roboto, sans-serif; font-size: 12px; font-weight: 200;" fill="rgb(33, 33, 33)" stroke="none" stroke-width="1px">0.25</text><text x="0" y="106.20000000000002" dx="0em" dy="0.3em" style="text-anchor: end; visibility: hidden; font-family: Roboto, sans-serif; font-size: 12px; font-weight: 200;" fill="rgb(33, 33, 33)" stroke="none" stroke-width="1px">0.3</text><text x="0" y="88.5" dx="0em" dy="0.3em" style="text-anchor: end; visibility: inherit; font-family: Roboto, sans-serif; font-size: 12px; font-weight: 200;" fill="rgb(33, 33, 33)" stroke="none" stroke-width="1px">0.35</text><text x="0" y="70.79999999999998" dx="0em" dy="0.3em" style="text-anchor: end; visibility: hidden; font-family: Roboto, sans-serif; font-size: 12px; font-weight: 200;" fill="rgb(33, 33, 33)" stroke="none" stroke-width="1px">0.4</text><text x="0" y="53.10000000000001" dx="0em" dy="0.3em" style="text-anchor: end; visibility: inherit; font-family: Roboto, sans-serif; font-size: 12px; font-weight: 200;" fill="rgb(33, 33, 33)" stroke="none" stroke-width="1px">0.45</text><text x="0" y="35.39999999999999" dx="0em" dy="0.3em" style="text-anchor: end; visibility: hidden; font-family: Roboto, sans-serif; font-size: 12px; font-weight: 200;" fill="rgb(33, 33, 33)" stroke="none" stroke-width="1px">0.5</text><text x="0" y="17.699999999999978" dx="0em" dy="0.3em" style="text-anchor: end; visibility: inherit; font-family: Roboto, sans-serif; font-size: 12px; font-weight: 200;" fill="rgb(33, 33, 33)" stroke="none" stroke-width="1px">0.55</text><text x="0" y="0" dx="0em" dy="0.3em" style="text-anchor: end; visibility: hidden; font-family: Roboto, sans-serif; font-size: 12px; font-weight: 200;" fill="rgb(33, 33, 33)" stroke="none" stroke-width="1px">0.6</text></g><line x1="51.5625" y1="0" x2="51.5625" y2="177" fill="rgb(0, 0, 0)" stroke="rgb(204, 204, 204)" stroke-width="1px"></line></g></g><g transform="translate(51, 0)" clip-path="url(#clip_0)"><clipPath id="clip_0"><rect width="278" height="177"></rect></clipPath><g><g><g><line x1="0" y1="0" x2="0" y2="177" fill="rgb(0, 0, 0)" stroke="rgb(66, 66, 66)" stroke-width="1px" opacity="0.25"></line><line x1="27.84375" y1="0" x2="27.84375" y2="177" fill="rgb(0, 0, 0)" stroke="rgb(66, 66, 66)" stroke-width="1px" opacity="0.25"></line><line x1="55.6875" y1="0" x2="55.6875" y2="177" fill="rgb(0, 0, 0)" stroke="rgb(66, 66, 66)" stroke-width="1px" opacity="0.25"></line><line x1="83.53125" y1="0" x2="83.53125" y2="177" fill="rgb(0, 0, 0)" stroke="rgb(66, 66, 66)" stroke-width="1px" opacity="0.25"></line><line x1="111.375" y1="0" x2="111.375" y2="177" fill="rgb(0, 0, 0)" stroke="rgb(66, 66, 66)" stroke-width="1px" opacity="0.25"></line><line x1="139.21875" y1="0" x2="139.21875" y2="177" fill="rgb(0, 0, 0)" stroke="rgb(66, 66, 66)" stroke-width="1px" opacity="0.25"></line><line x1="167.0625" y1="0" x2="167.0625" y2="177" fill="rgb(0, 0, 0)" stroke="rgb(66, 66, 66)" stroke-width="1px" opacity="0.25"></line><line x1="194.90625" y1="0" x2="194.90625" y2="177" fill="rgb(0, 0, 0)" stroke="rgb(66, 66, 66)" stroke-width="1px" opacity="0.25"></line><line x1="222.75" y1="0" x2="222.75" y2="177" fill="rgb(0, 0, 0)" stroke="rgb(66, 66, 66)" stroke-width="1px" opacity="0.25"></line><line x1="250.59375" y1="0" x2="250.59375" y2="177" fill="rgb(0, 0, 0)" stroke="rgb(66, 66, 66)" stroke-width="1px" opacity="0.25"></line><line x1="278.4375" y1="0" x2="278.4375" y2="177" fill="rgb(0, 0, 0)" stroke="rgb(66, 66, 66)" stroke-width="1px" opacity="0.25"></line></g><g><line x1="0" y1="177" x2="278.4375" y2="177" fill="rgb(0, 0, 0)" stroke="rgb(66, 66, 66)" stroke-width="1px" opacity="0.25"></line><line x1="0" y1="159.3" x2="278.4375" y2="159.3" fill="rgb(0, 0, 0)" stroke="rgb(66, 66, 66)" stroke-width="1px" opacity="0.25"></line><line x1="0" y1="141.6" x2="278.4375" y2="141.6" fill="rgb(0, 0, 0)" stroke="rgb(66, 66, 66)" stroke-width="1px" opacity="0.25"></line><line x1="0" y1="123.89999999999999" x2="278.4375" y2="123.89999999999999" fill="rgb(0, 0, 0)" stroke="rgb(66, 66, 66)" stroke-width="1px" opacity="0.25"></line><line x1="0" y1="106.20000000000002" x2="278.4375" y2="106.20000000000002" fill="rgb(0, 0, 0)" stroke="rgb(66, 66, 66)" stroke-width="1px" opacity="0.25"></line><line x1="0" y1="88.5" x2="278.4375" y2="88.5" fill="rgb(0, 0, 0)" stroke="rgb(66, 66, 66)" stroke-width="1px" opacity="0.25"></line><line x1="0" y1="70.79999999999998" x2="278.4375" y2="70.79999999999998" fill="rgb(0, 0, 0)" stroke="rgb(66, 66, 66)" stroke-width="1px" opacity="0.25"></line><line x1="0" y1="53.10000000000001" x2="278.4375" y2="53.10000000000001" fill="rgb(0, 0, 0)" stroke="rgb(66, 66, 66)" stroke-width="1px" opacity="0.25"></line><line x1="0" y1="35.39999999999999" x2="278.4375" y2="35.39999999999999" fill="rgb(0, 0, 0)" stroke="rgb(66, 66, 66)" stroke-width="1px" opacity="0.25"></line><line x1="0" y1="17.699999999999978" x2="278.4375" y2="17.699999999999978" fill="rgb(0, 0, 0)" stroke="rgb(66, 66, 66)" stroke-width="1px" opacity="0.25"></line><line x1="0" y1="0" x2="278.4375" y2="0" fill="rgb(0, 0, 0)" stroke="rgb(66, 66, 66)" stroke-width="1px" opacity="0.25"></line></g></g></g><g><g><line x1="0" y1="212.4" x2="278.4375" y2="212.4" fill="rgb(0, 0, 0)" stroke="rgb(153, 153, 153)" stroke-width="1.5px"></line></g></g><g><g><line x1="27.84375" y1="0" x2="27.84375" y2="177" fill="rgb(0, 0, 0)" stroke="rgb(153, 153, 153)" stroke-width="1.5px"></line></g></g><g><g><g><g><g><path stroke="rgb(51, 187, 238)" stroke-width="2px" d="M30.516750000000002,187.89383890628815L31.85325,156.52312392890454L33.189750000000004,110.68967912829655L34.52625,72.5560350319042L35.86275,46.27070400949819L37.19925,29.35756556248947L38.53575,19.981989346507767L39.87225,21.003010087215802L41.208749999999995,34.561507902312805L42.545249999999996,33.22221533625253L43.88175,39.84513276334739L45.21825,50.878424068895285L46.55475,25.965954634101568L47.89125,22.61591893894733L49.22775,35.9826281242876L50.56425,33.54113139145788L51.90075,40.73118290730447L53.23725,49.805991483248285L54.573750000000004,50.7432452126382L55.910250000000005,52.59701522287882L57.24675,60.6478486541614L58.58325,65.56348942148631L59.91975,70.94750140643664L61.25625,52.648762781716954L62.59275,70.55239370598214L63.929249999999996,87.06159673619477L65.26575,78.24989888074076L66.60225,73.05270466295478L67.93875,68.54781291609909L69.27525,55.70293785875356L70.61175,40.79552230593713L71.94825,27.73259003481518L73.28475,39.704558187926295L74.62125,41.653391506601835L75.95774999999999,36.56631723380805L77.29425,56.779986118769294L78.63074999999999,77.97290986272L79.96725,113.30921974841222L81.30375,118.65385810530898L82.64025000000001,130.92828386038244L83.97675,142.4478840599048L85.31325,120.09855855400238L86.64975,97.64187196139709L87.98625,83.50119989176518L89.32275,91.01087495559985L90.65925,106.23192390581252L91.99575,116.34423676993707L93.33225,116.63374873082249L94.66875,117.35080736686011L96.00525,99.70737764468961L97.34175,104.6363173892211L98.67824999999999,93.31533193168391L100.01475,122.68724590054721L101.35125,135.2129021114932L102.68775000000001,142.30731619518406L104.02425,107.45428990554332L105.36075000000001,117.4603183319086L106.69725,97.92705823241887L108.03375,88.96590763842518L109.37025,80.8531661040508L110.70675,67.71408439677458L112.04325,84.58376404405566L113.37975,90.25068572974767L114.71624999999999,90.85585091958383L116.05275,105.88781895667286L117.38924999999999,100.1772698881028L118.72575,103.87707527171365L120.06225,78.26717329794639L121.39874999999999,64.83417340740247L122.73525000000001,68.16308859720635L124.07175,74.64429839452986L125.40825000000001,93.35765372276835L126.74475,96.0073342094453L128.08125,115.04562153396797L129.41774999999998,122.00377392517203L130.75425,122.76236563531563L132.09074999999999,115.95460690979958L133.42725000000002,101.73937310889245L134.76375,115.12252750226781L136.10025000000002,111.05589136975364L137.43675,94.01804663596961L138.77325,87.58398778115757L140.10975,97.02085099503425L141.44625,105.4758551805319L142.78275000000002,99.08874001795661L144.11925,92.67416310485966L145.45575,99.1329742537544L146.79225,97.67500531832016L148.12875,116.89042008971951L149.46525000000003,119.46484393272269L150.80175,120.48886730667034L152.13825,110.83341715333509L153.47475,105.2247133684018L154.81125,123.61296151827923L156.14775,131.83822035998793L157.48425,149.4720490563553L158.82075,162.01888727835663L160.15725,171.56282935912517L161.49374999999998,171.6543771503872L162.83025,181.31961637964883L164.16675,174.73078889746094L165.50325,166.70840795456544L166.83974999999998,144.29966092836364L168.17624999999998,144.7100099702567L169.51275,137.85656934618297L170.84925,124.92401971363628L172.18574999999998,130.88346862520936L173.52224999999999,153.52096014813281L174.85875000000001,168.46389307496366L176.19525000000002,166.40547895143877L177.53175,172.00995074099572L178.86825,167.525957798876L180.20475,148.43907212729312L181.54125000000002,161.46403017708693L182.87775000000002,158.7259866754355L184.21425,165.2345212292756L185.55075,175.6853314490369L186.88725,178.81125266619034L188.22375000000002,164.28157163183394L189.56025,164.85742942166627L190.89675,146.93916779322805L192.23325,136.18065700032344L193.56975,133.93495027242915L194.90625,135.8494073964287L196.24275,137.26891339880996L197.57925,128.69602903522716L198.91575,113.05669752596418L200.25224999999998,113.7730652418053L201.58875,116.12239909686542L202.92525,126.22560588191686L204.26175,109.8550094680234L205.59824999999998,117.3639410064366L206.93474999999998,101.39672035489957L208.27125,132.29326117106962L209.60775,117.24594138663225L210.94425,102.23029379964599L212.28074999999998,95.67602199626403L213.61724999999998,78.55837042279504L214.95375,77.28632379023709L216.29025000000001,69.99461551933574L217.62675,73.87548083084279L218.96325,75.95830266247661L220.29975000000002,73.80445734364076L221.63625000000002,82.52292266668249L222.97275,91.9390690373264L224.30925,92.87751365941062L225.64575,92.35237519050415L226.98225000000002,97.94252773347364L228.31875,96.63453916205683L229.65525,98.80529673751424L230.99175,107.14930025015013L232.32825,115.60480843111122L233.66475,126.3972212536588L235.00125,128.03352571865645L236.33775,119.67828561628296L237.67425,128.88479897597097L239.01075,121.83243073712981L240.34725,115.47211660916327L241.68375,104.13372859701346L243.02025,94.70500628319283L244.35675,85.18854104141532L245.69324999999998,94.52037704145991L247.02975,105.22313202474167L248.36625,108.08184842260869L249.70275,110.14293330664746L251.03924999999998,121.87499100777691L252.37574999999998,145.27333469637148L253.71225,152.10194938807436L255.04875,159.65636889355628L256.38525,165.77906929145604L257.72175,125.51110465699642L259.05825,137.94404821976548L260.39475,130.44622086873366" style="fill: none;" fill="none"></path></g><g><path stroke="rgb(204, 51, 17)" stroke-width="2px" d="M30.516750000000002,215.95826926231385L31.85325,147.0843224465847L33.189750000000004,117.7489766777778L34.52625,94.59319159143112L37.19925,58.03111758050119L38.53575,57.233017499839335L39.87225,41.26040657410683L41.208749999999995,10.663411953931064L42.545249999999996,24.619690204878236L43.88175,18.607407734075043L45.21825,30.95892739265841L46.55475,37.159954011652076L47.89125,56.61033709113768L49.22775,43.51915533926269L50.56425,29.863577862316166L51.90075,34.460001051335716L53.23725,24.961834123947252L54.573750000000004,22.59945916159389L55.910250000000005,29.231501116608072L57.24675,28.036522299088706L58.58325,23.305022685213075L59.91975,28.964023297502994L61.25625,33.88683714042368L62.59275,24.182760362238714L63.929249999999996,22.44868304085149L65.26575,19.349445893674638L66.60225,18.17638497114728L67.93875,43.43604298001779L69.27525,45.158505056162255L70.61175,45.38790967163196L71.94825,40.956278139800396L73.28475,22.985122865955127L74.62125,26.62541719327003L75.95774999999999,33.167883903374786L77.29425,38.825491791822266L78.63074999999999,32.37156850705999L79.96725,28.31123850342439L81.30375,23.11410815691441L82.64025000000001,11.948121145974634L83.97675,16.46238380773973L85.31325,22.935484698862716L86.64975,26.879176515719227L87.98625,23.79326676898362L89.32275,11.381030612065764L90.65925,17.66031426785557L91.99575,25.99301407507278L93.33225,25.25765881160856L94.66875,44.969857519234495L96.00525,37.65468487811086L97.34175,50.1651890950737L98.67824999999999,55.693168356286726L100.01475,68.88296201844912L101.35125,70.67272761237874L102.68775000000001,66.4076427720279L104.02425,60.03026034010789L105.36075000000001,59.50195347770039L106.69725,67.73121312322792L108.03375,77.87189634241346L109.37025,60.58424301861194L110.70675,63.68168295334874L112.04325,54.70794123715794L113.37975,51.81420195047037L114.71624999999999,33.8709721895691L116.05275,36.98535240248661L117.38924999999999,50.738799894784876L118.72575,47.063072455486605L120.06225,53.289179914332045L121.39874999999999,44.000867396078455L122.73525000000001,35.0608614238989L124.07175,31.07356820779389L125.40825000000001,22.506964849694626L126.74475,27.894549192943572L128.08125,26.173813770984637L129.41774999999998,21.45517790721358L130.75425,17.748817193546913L133.42725000000002,16.403606607937228L134.76375,24.90765126372778L136.10025000000002,36.624840649517814L137.43675,49.12882648024106L138.77325,73.3490024787971L140.10975,81.78693421738082L141.44625,60.94204612765748L142.78275000000002,64.75094193097375L144.11925,76.76968762562527L145.45575,74.22768434814127L146.79225,65.6252743395061L148.12875,72.23614226292914L149.46525000000003,52.42532699174488L150.80175,62.142219415109174L152.13825,66.75672223973324L153.47475,83.80884568934471L154.81125,58.80195709851281L156.14775,92.46380156509218L157.48425,86.56711652178848L158.82075,95.90407397687008L160.15725,100.66441576444848L161.49374999999998,74.86163765408841" style="fill: none;" fill="none"></path></g></g></g></g><g opacity="0.2"><g><g><g><path stroke="rgb(51, 187, 238)" stroke-width="2px" d="M30.516750000000002,187.89383890628815L31.85325,137.70069494247437L33.189750000000004,66.68957211971282L34.52625,27.710869574546805L35.86275,11.952575826644889L37.19925,5.960606360435478L38.53575,6.574765348434441L39.87225,22.491668128967277L41.208749999999995,54.55765857696532L42.545249999999996,31.233521962165824L43.88175,49.71943953037261L45.21825,67.36831834316253L46.55475,-11.3214059829712L47.89125,17.597428464889518L49.22775,56.016979837417594L50.56425,29.880608224868766L51.90075,51.51321759223937L53.23725,63.415900254249564L54.573750000000004,52.148983025550834L55.910250000000005,55.377500796318046L57.24675,72.72365727424621L58.58325,72.93678882122039L59.91975,79.02341308593749L61.25625,25.20087161064147L62.59275,97.40771284103393L63.929249999999996,111.82533087730407L65.26575,65.03237464427947L66.60225,65.25692131519317L67.93875,61.79047944545745L69.27525,36.43563237190246L70.61175,18.434403920173636L71.94825,8.13819422721862L73.28475,57.662508988380424L74.62125,44.5766413450241L75.95774999999999,28.9357060432434L77.29425,87.10048892498016L78.63074999999999,109.76229515075683L79.96725,166.31368424892426L81.30375,126.67081561088561L82.64025000000001,149.33992245197297L83.97675,159.7272843360901L85.31325,86.57457032203673L86.64975,63.95684208869933L87.98625,62.290191793441764L89.32275,102.27538754940032L90.65925,129.06349732875825L91.99575,131.51270606517792L93.33225,117.06801667213439L94.66875,118.42639532089233L96.00525,73.24223306179046L97.34175,112.02972700595855L98.67824999999999,76.3338537454605L100.01475,166.745116853714L101.35125,154.00138642787934L102.68775000000001,152.94893732070923L104.02425,55.174750471115104L105.36075000000001,132.4693609714508L106.69725,68.62716808319091L108.03375,75.52418174743651L109.37025,68.68405380249023L110.70675,48.0054618358612L112.04325,109.8882835149765L113.37975,98.75106825828551L114.71624999999999,91.76359870433807L116.05275,128.43577101230622L117.38924999999999,91.6114462852478L118.72575,109.42678334712981L120.06225,39.852320337295524L121.39874999999999,44.6846735715866L122.73525000000001,73.15646138191222L124.07175,84.36611309051513L125.40825000000001,121.42768671512603L126.74475,99.98185493946075L128.08125,143.60305252075196L129.41774999999998,132.44100251197816L130.75425,123.900253200531L132.09074999999999,105.74296882152557L133.42725000000002,80.41652240753173L134.76375,135.19725909233094L136.10025000000002,104.95593717098235L137.43675,68.46127953529357L138.77325,77.9328994989395L140.10975,111.1761458158493L141.44625,118.15836145877837L142.78275000000002,89.50806727409362L144.11925,83.05229773521422L145.45575,108.82119097709655L146.79225,95.48805191516875L148.12875,145.71354224681855L149.46525000000003,123.32647969722747L150.80175,122.02490236759185L152.13825,96.3502419233322L153.47475,96.81165769100188L154.81125,151.1953337430954L156.14775,144.17610862255097L157.48425,175.92279210090638L158.82075,180.83914461135865L160.15725,185.87874248027802L161.49374999999998,171.79169883728028L162.83025,195.81747522354127L164.16675,164.84754767417908L165.50325,154.67483654022217L166.83974999999998,110.68654038906097L168.17624999999998,145.32553353309632L169.51275,127.57640841007232L170.84925,105.52519526481628L172.18574999999998,139.82264199256898L173.52224999999999,187.477197432518L174.85875000000001,190.87829246520997L176.19525000000002,163.31785776615143L177.53175,180.41665842533112L178.86825,160.79996838569642L180.20475,119.80874361991881L181.54125000000002,181.00146725177765L182.87775000000002,154.61892142295838L184.21425,174.9973230600357L185.55075,191.3615467786789L186.88725,183.50013449192048L188.22375000000002,142.48705008029938L189.56025,165.7212161064148L190.89675,120.06177535057067L192.23325,120.04289081096648L193.56975,130.56639018058777L194.90625,138.72109308242798L196.24275,139.3981724023819L197.57925,115.8367024898529L198.91575,89.5977002620697L200.25224999999998,114.84761681556701L201.58875,119.64639987945556L202.92525,141.38041605949402L204.26175,85.29911484718322L205.59824999999998,128.6273383140564L206.93474999999998,77.44588937759399L208.27125,178.6380723953247L209.60775,94.67496170997619L210.94425,79.70682241916656L212.28074999999998,85.84461429119109L213.61724999999998,52.881893062591544L214.95375,75.37825384140014L216.29025000000001,59.057053112983695L217.62675,79.69677879810332L218.96325,79.08253540992736L220.29975000000002,70.57368936538695L221.63625000000002,95.60062065124511L222.97275,106.06328859329223L224.30925,94.28518059253692L225.64575,91.56466748714446L226.98225000000002,106.32775654792785L228.31875,94.67255630493163L229.65525,102.06143310070037L230.99175,119.665305519104L232.32825,128.2880707025528L233.66475,142.58584048748017L235.00125,130.48798241615296L236.33775,107.14542546272277L237.67425,142.69456901550294L239.01075,111.2538783788681L240.34725,105.93164541721343L241.68375,87.12614657878875L243.02025,80.56192281246184L244.35675,70.91384317874908L245.69324999999998,108.51813104152679L247.02975,121.2772644996643L248.36625,112.36992301940917L249.70275,113.23456063270568L251.03924999999998,139.47307755947114L252.37574999999998,180.3708502292633L253.71225,162.34487142562867L255.04875,170.98799815177918L256.38525,174.96311988830567L257.72175,65.109157705307L259.05825,156.59346356391907L260.39475,119.19947984218597" style="fill: none;" fill="none"></path></g><g><path stroke="rgb(204, 51, 17)" stroke-width="2px" d="M30.516750000000002,215.95826926231385L31.85325,105.75995435714721L33.189750000000004,89.5870447397232L34.52625,67.36198832988738L37.19925,10.295673751831046L38.53575,56.128957772254935L39.87225,18.419317388534537L41.208749999999995,-33.94729993343354L42.545249999999996,45.20248975753783L43.88175,9.679868960380546L45.21825,49.37417950630187L46.55475,46.42774822711944L47.89125,85.72240283489226L49.22775,23.908029699325553L50.56425,9.396263265609733L51.90075,41.351394081115714L53.23725,10.718603038787833L54.573750000000004,19.056496524810782L55.910250000000005,39.17855372428893L57.24675,26.244163298606864L58.58325,16.208032751083365L59.91975,37.452338004112235L61.25625,41.27096071243285L62.59275,9.626760149002067L63.929249999999996,19.84757938385009L65.26575,14.700603389739982L66.60225,16.416796588897697L67.93875,81.32549121379851L69.27525,47.742196583747855L70.61175,45.73201646804809L71.94825,34.30883231163024L73.28475,-3.9716064691543655L74.62125,32.0858582496643L75.95774999999999,42.98158349990844L77.29425,47.31190338134765L78.63074999999999,22.690683746337882L79.96725,22.220743560791007L81.30375,15.318412685394279L82.64025000000001,-4.8008593082428055L83.97675,23.2337777853012L85.31325,32.64513602256774L86.64975,32.79471423625945L87.98625,19.16440215110778L89.32275,-7.237323617935188L90.65925,27.07923974990844L91.99575,38.492063784599296L93.33225,24.15462591648101L94.66875,74.53815557956695L96.00525,26.681925916671744L97.34175,68.93094542026519L98.67824999999999,63.98513724803924L100.01475,88.66765251159667L101.35125,73.35737600326537L102.68775000000001,60.01001551151275L104.02425,50.464186692237845L105.36075000000001,58.70949318408965L106.69725,80.07510259151458L108.03375,93.08292117118835L109.37025,34.6527630329132L110.70675,68.32784285545348L112.04325,41.247328662872306L113.37975,47.47359302043914L114.71624999999999,6.956127548217766L116.05275,41.656922721862784L117.38924999999999,71.36897113323211L118.72575,41.5494812965393L120.06225,62.62834110260009L121.39874999999999,30.06839861869811L122.73525000000001,21.65085246562957L124.07175,25.092628383636466L125.40825000000001,9.657059812545768L126.74475,35.97592570781707L128.08125,23.592710638046256L129.41774999999998,14.377224111556998L130.75425,12.189276123046866L133.42725000000002,14.385790729522697L134.76375,37.66371824741363L136.10025000000002,54.20062472820281L137.43675,67.88480522632598L138.77325,109.67926647663116L140.10975,94.44383182525634L141.44625,29.6747139930725L142.78275000000002,70.46428563594817L144.11925,94.79780616760253L145.45575,70.41467943191527L146.79225,52.721659326553336L148.12875,82.15244414806365L149.46525000000003,22.70910408496856L150.80175,76.71755805015563L152.13825,73.6784764766693L153.47475,109.3870308637619L154.81125,21.291624212265006L156.14775,142.95656826496125L157.48425,77.72208895683288L158.82075,109.90951015949248L160.15725,107.80492844581603L161.49374999999998,36.15747048854827" style="fill: none;" fill="none"></path></g></g></g></g></g><g><g><span fill="rgb(0, 0, 0)" stroke="none" stroke-width="1px">Alt + Scroll to Zoom</span></g></g></g><g transform="translate(51, 177)" clip-path="url(#clip_1)"><clipPath id="clip_1"><rect width="278" height="23"></rect></clipPath><g><g><line x1="0" y1="0" x2="0" y2="5" style="visibility: inherit;" fill="rgb(0, 0, 0)" stroke="rgb(204, 204, 204)" stroke-width="1px"></line><line x1="27.84375" y1="0" x2="27.84375" y2="5" style="visibility: inherit;" fill="rgb(0, 0, 0)" stroke="rgb(204, 204, 204)" stroke-width="1px"></line><line x1="55.6875" y1="0" x2="55.6875" y2="5" style="visibility: inherit;" fill="rgb(0, 0, 0)" stroke="rgb(204, 204, 204)" stroke-width="1px"></line><line x1="83.53125" y1="0" x2="83.53125" y2="5" style="visibility: inherit;" fill="rgb(0, 0, 0)" stroke="rgb(204, 204, 204)" stroke-width="1px"></line><line x1="111.375" y1="0" x2="111.375" y2="5" style="visibility: inherit;" fill="rgb(0, 0, 0)" stroke="rgb(204, 204, 204)" stroke-width="1px"></line><line x1="139.21875" y1="0" x2="139.21875" y2="5" style="visibility: inherit;" fill="rgb(0, 0, 0)" stroke="rgb(204, 204, 204)" stroke-width="1px"></line><line x1="167.0625" y1="0" x2="167.0625" y2="5" style="visibility: inherit;" fill="rgb(0, 0, 0)" stroke="rgb(204, 204, 204)" stroke-width="1px"></line><line x1="194.90625" y1="0" x2="194.90625" y2="5" style="visibility: inherit;" fill="rgb(0, 0, 0)" stroke="rgb(204, 204, 204)" stroke-width="1px"></line><line x1="222.75" y1="0" x2="222.75" y2="5" style="visibility: inherit;" fill="rgb(0, 0, 0)" stroke="rgb(204, 204, 204)" stroke-width="1px"></line><line x1="250.59375" y1="0" x2="250.59375" y2="5" style="visibility: inherit;" fill="rgb(0, 0, 0)" stroke="rgb(204, 204, 204)" stroke-width="1px"></line><line x1="278.4375" y1="0" x2="278.4375" y2="5" style="visibility: inherit;" fill="rgb(0, 0, 0)" stroke="rgb(204, 204, 204)" stroke-width="1px"></line></g><g transform="translate(0, 8)"><text x="0" y="0" dx="0em" dy="0.95em" style="text-anchor: middle; visibility: hidden; font-family: Roboto, sans-serif; font-size: 12px; font-weight: 200;" fill="rgb(33, 33, 33)" stroke="none" stroke-width="1px">-500k</text><text x="27.84375" y="0" dx="0em" dy="0.95em" style="text-anchor: middle; visibility: inherit; font-family: Roboto, sans-serif; font-size: 12px; font-weight: 200;" fill="rgb(33, 33, 33)" stroke="none" stroke-width="1px">0</text><text x="55.6875" y="0" dx="0em" dy="0.95em" style="text-anchor: middle; visibility: inherit; font-family: Roboto, sans-serif; font-size: 12px; font-weight: 200;" fill="rgb(33, 33, 33)" stroke="none" stroke-width="1px">500k</text><text x="83.53125" y="0" dx="0em" dy="0.95em" style="text-anchor: middle; visibility: inherit; font-family: Roboto, sans-serif; font-size: 12px; font-weight: 200;" fill="rgb(33, 33, 33)" stroke="none" stroke-width="1px">1M</text><text x="111.375" y="0" dx="0em" dy="0.95em" style="text-anchor: middle; visibility: inherit; font-family: Roboto, sans-serif; font-size: 12px; font-weight: 200;" fill="rgb(33, 33, 33)" stroke="none" stroke-width="1px">1.5M</text><text x="139.21875" y="0" dx="0em" dy="0.95em" style="text-anchor: middle; visibility: inherit; font-family: Roboto, sans-serif; font-size: 12px; font-weight: 200;" fill="rgb(33, 33, 33)" stroke="none" stroke-width="1px">2M</text><text x="167.0625" y="0" dx="0em" dy="0.95em" style="text-anchor: middle; visibility: inherit; font-family: Roboto, sans-serif; font-size: 12px; font-weight: 200;" fill="rgb(33, 33, 33)" stroke="none" stroke-width="1px">2.5M</text><text x="194.90625" y="0" dx="0em" dy="0.95em" style="text-anchor: middle; visibility: inherit; font-family: Roboto, sans-serif; font-size: 12px; font-weight: 200;" fill="rgb(33, 33, 33)" stroke="none" stroke-width="1px">3M</text><text x="222.75" y="0" dx="0em" dy="0.95em" style="text-anchor: middle; visibility: inherit; font-family: Roboto, sans-serif; font-size: 12px; font-weight: 200;" fill="rgb(33, 33, 33)" stroke="none" stroke-width="1px">3.5M</text><text x="250.59375" y="0" dx="0em" dy="0.95em" style="text-anchor: middle; visibility: inherit; font-family: Roboto, sans-serif; font-size: 12px; font-weight: 200;" fill="rgb(33, 33, 33)" stroke="none" stroke-width="1px">4M</text><text x="278.4375" y="0" dx="0em" dy="0.95em" style="text-anchor: middle; visibility: hidden; font-family: Roboto, sans-serif; font-size: 12px; font-weight: 200;" fill="rgb(33, 33, 33)" stroke="none" stroke-width="1px">4.5M</text></g><line x1="0" y1="0" x2="278.4375" y2="0" fill="rgb(0, 0, 0)" stroke="rgb(204, 204, 204)" stroke-width="1px"></line></g></g></g></g></svg>